<svg width="24" height="24" viewBox="0 0 24 24" fill="none" xmlns="http://www.w3.org/2000/svg">
<path d="M0.25 19.7502V4.25H23.75V19.7502H0.25Z" fill="white" stroke="#404040" stroke-width="0.5"/>
<path d="M14.9216 11.9998C14.9216 12.7303 13.6135 14.5564 11.9998 14.5564C10.3862 14.5564 9.07812 12.7303 9.07812 11.9998C9.07812 10.3862 10.3862 9.07812 11.9998 9.07812C13.6135 9.07812 14.9216 10.3862 14.9216 11.9998Z" fill="#D80027"/>
<path d="M14.9216 11.9995C14.9216 13.6131 13.6135 14.9212 11.9998 14.9212C10.3862 14.9212 9.07812 13.6131 9.07812 11.9995" fill="#0052B4"/>
<path d="M15.8734 13.8078L15.0986 14.5825L15.6151 15.099L16.3898 14.3243L15.8734 13.8078Z" fill="#404040"/>
<path d="M14.5824 15.0988L13.8076 15.8735L14.3241 16.39L15.0988 15.6153L14.5824 15.0988Z" fill="#404040"/>
<path d="M17.4232 15.3566L16.6484 16.1313L17.1649 16.6478L17.9396 15.8731L17.4232 15.3566Z" fill="#404040"/>
<path d="M16.1322 16.6481L15.3574 17.4229L15.8739 17.9393L16.6486 17.1646L16.1322 16.6481Z" fill="#404040"/>
<path d="M16.6488 14.5822L15.874 15.3569L16.3905 15.8734L17.1652 15.0987L16.6488 14.5822Z" fill="#404040"/>
<path d="M15.3577 15.8732L14.583 16.6479L15.0995 17.1644L15.8742 16.3897L15.3577 15.8732Z" fill="#404040"/>
<path d="M14.5825 7.35105L16.6484 9.41699L17.1649 8.90052L15.099 6.83458L14.5825 7.35105Z" fill="#404040"/>
<path d="M13.8083 8.12614L14.583 8.90088L15.0994 8.38444L14.3247 7.6097L13.8083 8.12614Z" fill="#404040"/>
<path d="M15.0983 9.41716L15.873 10.1919L16.3895 9.67546L15.6147 8.90072L15.0983 9.41716Z" fill="#404040"/>
<path d="M15.3561 6.57634L16.1309 7.35107L16.6473 6.8346L15.8726 6.05987L15.3561 6.57634Z" fill="#404040"/>
<path d="M16.6481 7.86784L17.4229 8.64258L17.9393 8.12611L17.1646 7.35137L16.6481 7.86784Z" fill="#404040"/>
<path d="M8.6431 17.4229L6.57715 15.3569L6.06068 15.8734L8.12663 17.9394L8.6431 17.4229Z" fill="#404040"/>
<path d="M9.41732 16.6483L8.64258 15.8735L8.12614 16.39L8.90088 17.1647L9.41732 16.6483Z" fill="#404040"/>
<path d="M8.1263 15.3568L7.35156 14.582L6.83509 15.0985L7.60983 15.8732L8.1263 15.3568Z" fill="#404040"/>
<path d="M10.1919 15.8736L8.12598 13.8076L7.60951 14.3241L9.67545 16.39L10.1919 15.8736Z" fill="#404040"/>
<path d="M6.57663 8.64212L8.64258 6.57617L8.12611 6.0597L6.06016 8.12565L6.57663 8.64212Z" fill="#404040"/>
<path d="M7.35105 9.41702L9.41699 7.35107L8.90052 6.8346L6.83458 8.90055L7.35105 9.41702Z" fill="#404040"/>
<path d="M8.12546 10.1919L10.1914 8.12598L9.67497 7.60954L7.60902 9.67549L8.12546 10.1919Z" fill="#404040"/>
</svg>
