<svg width="24" height="24" viewBox="0 0 24 24" fill="none" xmlns="http://www.w3.org/2000/svg">
<path d="M24 4H0V20.0002H24V4Z" fill="#F0F0F0"/>
<path d="M24 5.99951H0V7.99934H24V5.99951Z" fill="#D80027"/>
<path d="M24 9.99951H0V11.9993H24V9.99951Z" fill="#D80027"/>
<path d="M24 13.9995H0V15.9993H24V13.9995Z" fill="#D80027"/>
<path d="M24 17.9995H0V19.9993H24V17.9995Z" fill="#D80027"/>
<path d="M12 4H0V12.6155H12V4Z" fill="#2E52B2"/>
<path d="M4.67874 7.5293L4.48548 8.12386H3.86035L4.36618 8.49113L4.17291 9.08564L4.67874 8.71838L5.18424 9.08564L4.99102 8.49113L5.49685 8.12386H4.87168L4.67874 7.5293Z" fill="#F0F0F0"/>
<path d="M4.87168 10.2698L4.67874 9.67529L4.48548 10.2698H3.86035L4.36618 10.6371L4.17291 11.2316L4.67874 10.8643L5.18424 11.2316L4.99102 10.6371L5.49685 10.2698H4.87168Z" fill="#F0F0F0"/>
<path d="M2.23012 10.2698L2.03714 9.67529L1.84388 10.2698H1.21875L1.72458 10.6371L1.53131 11.2316L2.03714 10.8643L2.54269 11.2316L2.34947 10.6371L2.8552 10.2698H2.23012Z" fill="#F0F0F0"/>
<path d="M2.03714 7.5293L1.84388 8.12386H1.21875L1.72458 8.49113L1.53131 9.08564L2.03714 8.71838L2.54269 9.08564L2.34947 8.49113L2.8552 8.12386H2.23012L2.03714 7.5293Z" fill="#F0F0F0"/>
<path d="M4.67874 5.38379L4.48548 5.9784H3.86035L4.36618 6.34571L4.17291 6.94023L4.67874 6.57291L5.18424 6.94023L4.99102 6.34571L5.49685 5.9784H4.87168L4.67874 5.38379Z" fill="#F0F0F0"/>
<path d="M2.03714 5.38379L1.84388 5.9784H1.21875L1.72458 6.34571L1.53131 6.94023L2.03714 6.57291L2.54269 6.94023L2.34947 6.34571L2.8552 5.9784H2.23012L2.03714 5.38379Z" fill="#F0F0F0"/>
<path d="M7.32127 7.5293L7.12805 8.12386H6.50293L7.00871 8.49113L6.81554 9.08564L7.32127 8.71838L7.82687 9.08564L7.6336 8.49113L8.13943 8.12386H7.5143L7.32127 7.5293Z" fill="#F0F0F0"/>
<path d="M7.5143 10.2698L7.32127 9.67529L7.12805 10.2698H6.50293L7.00871 10.6371L6.81554 11.2316L7.32127 10.8643L7.82687 11.2316L7.6336 10.6371L8.13943 10.2698H7.5143Z" fill="#F0F0F0"/>
<path d="M10.1559 10.2698L9.96288 9.67529L9.76961 10.2698H9.14453L9.65027 10.6371L9.45705 11.2316L9.96288 10.8643L10.4684 11.2316L10.2752 10.6371L10.781 10.2698H10.1559Z" fill="#F0F0F0"/>
<path d="M9.96288 7.5293L9.76961 8.12386H9.14453L9.65027 8.49113L9.45705 9.08564L9.96288 8.71838L10.4684 9.08564L10.2752 8.49113L10.781 8.12386H10.1559L9.96288 7.5293Z" fill="#F0F0F0"/>
<path d="M7.32127 5.38379L7.12805 5.9784H6.50293L7.00871 6.34571L6.81554 6.94023L7.32127 6.57291L7.82687 6.94023L7.6336 6.34571L8.13943 5.9784H7.5143L7.32127 5.38379Z" fill="#F0F0F0"/>
<path d="M9.96288 5.38379L9.76961 5.9784H9.14453L9.65027 6.34571L9.45705 6.94023L9.96288 6.57291L10.4684 6.94023L10.2752 6.34571L10.781 5.9784H10.1559L9.96288 5.38379Z" fill="#F0F0F0"/>
</svg>
