<svg width="45" height="48" viewBox="0 0 45 48" fill="none" xmlns="http://www.w3.org/2000/svg">
<path d="M28.1876 34.5734C28.8778 34.6546 29.4462 34.2892 29.6898 33.6802C29.4868 33.2336 29.0808 32.8682 28.553 32.8276C27.8628 32.7464 27.2944 33.1118 27.0508 33.7208C27.2538 34.1674 27.7004 34.5328 28.1876 34.5734Z" fill="#FE0020"/>
<path d="M21.635 27.6501C23.6244 27.8125 25.3296 26.4727 25.7356 24.6457C25.4108 23.0217 24.0304 21.7631 22.3252 21.6413C20.3358 21.4789 18.6306 22.8187 18.2246 24.6457C18.5494 26.2291 19.9298 27.4877 21.635 27.6501Z" fill="#FE0020"/>
<path d="M27.7394 13.4236C27.1304 13.3424 26.6026 13.6672 26.3184 14.1138C26.5214 14.4792 26.9274 14.7634 27.374 14.804C27.983 14.8852 28.5108 14.5604 28.795 14.1138C28.592 13.7484 28.186 13.5048 27.7394 13.4236Z" fill="#FE0020"/>
<path d="M39.8612 15.2901C40.7138 15.3713 41.4446 14.9247 41.81 14.2345C41.5258 13.6661 40.9574 13.2195 40.2672 13.1789C39.4146 13.0977 38.6838 13.5443 38.3184 14.2345C38.6026 14.8029 39.2116 15.2089 39.8612 15.2901Z" fill="#FE0020"/>
<path d="M20.5417 2.72389C20.4605 3.37349 20.7853 3.94189 21.3131 4.18549C21.7191 3.98249 22.0439 3.57649 22.0845 3.08929C22.1657 2.43969 21.8409 1.87129 21.3131 1.62769C20.9071 1.87129 20.5823 2.27729 20.5417 2.72389Z" fill="#FE0020"/>
<path d="M10.6944 23.8382C10.0854 23.757 9.55764 24.0818 9.27344 24.5284C9.47644 24.8938 9.88244 25.178 10.329 25.2186C10.938 25.2998 11.4658 24.975 11.75 24.5284C11.547 24.163 11.141 23.8788 10.6944 23.8382Z" fill="#FE0020"/>
<path d="M3.25294 13.2162C3.17174 14.3124 3.82134 15.2462 4.75514 15.6116C5.56714 15.2868 6.17614 14.5154 6.25734 13.6222C6.33854 12.526 5.68894 11.5922 4.75514 11.2268C3.94314 11.5516 3.33414 12.323 3.25294 13.2162Z" fill="#FE0020"/>
<path d="M4.06432 32.217C3.13052 32.1358 2.31853 32.6636 1.95312 33.435C2.23733 34.1252 2.88692 34.6124 3.61772 34.6936C4.55152 34.7748 5.36352 34.247 5.72892 33.4756C5.48532 32.7854 4.83572 32.2982 4.06432 32.217Z" fill="#FE0020"/>
<path d="M21.7993 43.282C21.3121 43.3632 20.9061 43.6474 20.7031 44.094C20.9467 44.6218 21.5557 44.9872 22.2053 44.906C22.6925 44.8248 23.0985 44.5406 23.3015 44.094C23.0173 43.5662 22.4083 43.2008 21.7993 43.282Z" fill="#FE0020"/>
<path d="M40.266 34.6118C41.2404 34.5306 42.0524 33.9622 42.4584 33.1096C42.0118 32.1758 40.9968 31.5262 39.8194 31.6074C38.845 31.6886 38.033 32.257 37.627 33.1096C38.1142 34.0434 39.1292 34.693 40.266 34.6118Z" fill="#FE0020"/>
<path d="M43.3608 31.668C42.7924 30.8966 42.5894 29.9222 42.833 29.029C43.239 27.3238 43.4826 25.578 43.4826 23.7916C43.4826 21.7616 43.1984 19.7722 42.6706 17.864C42.427 16.9302 42.5082 15.9558 42.9954 15.1438C43.3608 14.5754 43.5232 13.8852 43.4826 13.1138C43.3608 11.368 41.9398 9.9876 40.2346 9.9064C40.1534 9.9064 40.0316 9.9064 39.9504 9.9064C39.0166 9.9064 38.1234 9.541 37.4332 8.8508C34.4288 5.7246 30.4906 3.5728 26.2682 2.7202C25.5374 2.5578 24.9284 2.1518 24.563 1.5022C24.0352 0.609002 23.0608 0 21.9646 0C20.8684 0 19.9346 0.568402 19.4068 1.4616C19.0008 2.1518 18.3106 2.639 17.5392 2.7608C15.428 3.2074 13.4386 3.9382 11.571 4.9938C9.9064 5.9276 8.4042 7.0238 7.0238 8.3636C6.2118 9.1756 5.075 9.5816 3.9382 9.5816H3.8976C1.7864 9.5816 0.0406 11.3274 0 13.4386C0 14.4536 0.365401 15.3468 0.974401 16.0776C1.3804 16.5242 1.5022 17.1738 1.3398 17.7422C0.730801 19.7316 0.446599 21.8022 0.446599 23.8728C0.446599 26.1464 0.812002 28.3388 1.5022 30.4906C1.6646 31.0184 1.5428 31.5462 1.1774 31.9522C0.609001 32.6424 0.243601 33.5356 0.324801 34.51C0.446601 36.337 1.9082 37.7986 3.7352 37.8798C3.7758 37.8798 3.8164 37.8798 3.8976 37.8798C5.0344 37.8798 6.09 38.367 6.8614 39.179C8.2012 40.4782 9.7034 41.615 11.3274 42.5488C13.398 43.7262 15.5904 44.5382 17.9046 44.9848C18.5136 45.1066 19.082 45.472 19.3662 46.0404C19.8534 47.0148 20.8684 47.6644 22.0052 47.6644C23.0608 47.6644 23.9946 47.096 24.5224 46.284C24.969 45.5532 25.6998 45.066 26.5524 44.9036C30.4906 44.051 34.0634 42.1428 36.946 39.382C37.6362 38.6918 38.6512 38.367 39.6256 38.4888C39.8692 38.5294 40.1534 38.5294 40.397 38.4888C42.3458 38.3264 44.1322 36.5806 44.2946 34.6318C44.2946 33.4544 43.9698 32.4394 43.3608 31.668ZM40.194 11.4492C41.0872 11.5304 41.818 12.2612 41.8992 13.1544C42.021 14.3724 41.006 15.3874 39.788 15.2656C38.8948 15.1844 38.164 14.4536 38.0828 13.5604C37.961 12.3424 38.976 11.3274 40.194 11.4492ZM24.36 4.6284C24.4006 4.5878 24.4006 4.6284 24.36 4.6284C24.6442 4.2224 25.0502 4.06 25.4968 4.1412C29.7598 4.9126 33.7386 7.105 36.6618 10.3124C37.0272 10.7184 37.1084 11.3274 36.8648 11.8146C36.6212 12.3018 36.1746 12.586 35.6468 12.586H32.1958C31.262 12.586 30.3688 12.18 29.7598 11.4898C29.435 11.0838 28.826 10.6372 28.1358 10.4342C27.1208 10.1906 26.2682 9.5004 25.781 8.6072L24.2382 5.7246C24.1164 5.3998 24.157 4.9532 24.36 4.6284ZM27.3238 14.819C26.6742 14.7378 26.1464 14.21 26.0652 13.5604C25.9434 12.6266 26.7554 11.8146 27.6892 11.9364C28.3388 12.0176 28.8666 12.5454 28.9478 13.195C29.029 14.1694 28.2576 14.9408 27.3238 14.819ZM20.503 2.7202C20.5842 2.0706 21.112 1.5428 21.7616 1.4616C22.6954 1.3398 23.5074 2.1518 23.3856 3.0856C23.3044 3.7352 22.7766 4.263 22.127 4.3442C21.1932 4.466 20.3812 3.6946 20.503 2.7202ZM7.2674 15.3468C7.5922 14.7784 7.7952 14.0882 7.7952 13.398C7.7952 13.1544 7.7546 12.8702 7.714 12.6266C7.3892 11.0432 7.9576 9.4192 9.2162 8.3636C11.774 6.2524 14.7784 4.7908 18.0264 4.1412C18.6354 4.0194 19.2444 4.263 19.6504 4.7502C20.097 5.3186 20.8278 5.7652 21.7616 5.8464C22.33 5.887 22.8578 6.2118 23.1014 6.699L24.5224 9.338C25.0096 10.2718 25.0908 11.368 24.7254 12.3424C24.6036 12.6672 24.563 12.992 24.563 13.3574C24.563 13.804 24.6442 14.21 24.8066 14.5754C25.1314 15.3468 25.1314 16.1994 24.7254 16.9302L24.6848 17.0114C24.1976 17.9046 23.2638 18.4324 22.2082 18.3918C22.127 18.3918 22.0052 18.3918 21.924 18.3918C19.7316 18.3918 17.8234 19.7316 17.0114 21.5992C16.646 22.4518 15.834 22.9796 14.9002 22.9796H14.7784C14.0476 22.9796 13.3574 22.6142 12.9108 22.0052C12.5454 21.518 12.0582 21.1526 11.4898 20.909C11.4086 20.8684 11.2056 20.8684 11.0026 20.8278C10.0688 20.7466 9.1756 20.2188 8.6884 19.4068L7.308 17.255C6.902 16.7678 6.902 15.9558 7.2674 15.3468ZM25.7404 23.4262C25.9434 25.8216 23.954 27.811 21.5992 27.5674C19.7722 27.405 18.3106 25.9434 18.1482 24.1164C17.9452 21.721 19.9346 19.7316 22.2894 19.9752C24.1164 20.1376 25.578 21.5992 25.7404 23.4262ZM10.3124 25.2126C9.6628 25.1314 9.135 24.6036 9.0538 23.954C8.932 23.0202 9.744 22.2082 10.6778 22.33C11.3274 22.4112 11.8552 22.939 11.9364 23.5886C12.0176 24.5224 11.2462 25.3344 10.3124 25.2126ZM1.5022 13.195C1.5834 12.0582 2.5172 11.1244 3.654 11.0432C5.1156 10.9214 6.3336 12.1394 6.2118 13.601C6.1306 14.7378 5.1968 15.6716 4.06 15.7528C2.5984 15.8746 1.3804 14.6566 1.5022 13.195ZM3.654 36.2558C2.6796 36.1746 1.9082 35.3626 1.827 34.4288C1.7052 33.1296 2.8014 32.0334 4.1006 32.1552C5.075 32.2364 5.8464 33.0484 5.9276 33.9822C6.0494 35.322 4.9532 36.3776 3.654 36.2558ZM5.6434 29.9628C5.3186 30.45 4.7908 30.7342 4.2224 30.6936C4.2224 30.6936 4.2224 30.6936 4.1818 30.6936C3.5322 30.653 2.9638 30.2064 2.8014 29.5974C2.233 27.7298 1.9488 25.781 1.9488 23.7916C1.9488 22.0052 2.1924 20.2188 2.639 18.5136C2.842 17.7828 3.4916 17.255 4.2224 17.2144C4.2224 17.2144 4.2224 17.2144 4.263 17.2144C4.9126 17.1738 5.5622 17.458 5.9276 18.0264L7.3486 20.3C7.8358 21.0714 7.9576 22.0052 7.6734 22.8578C7.5516 23.142 7.511 23.5074 7.511 23.8322C7.511 24.2788 7.6328 24.7254 7.7952 25.1314C8.0388 25.6592 7.9982 26.2682 7.714 26.796L5.6434 29.9628ZM23.345 44.8224C23.2638 45.472 22.736 45.9998 22.0864 46.081C21.1526 46.2028 20.3406 45.3908 20.4624 44.457C20.5436 43.8074 21.0714 43.2796 21.721 43.1984C22.6954 43.0766 23.4668 43.8886 23.345 44.8224ZM23.5074 40.6C23.142 41.209 22.4924 41.615 21.7616 41.6962C21.3556 41.7368 20.9902 41.818 20.8278 41.8992C20.3812 42.0616 20.0158 42.3458 19.7316 42.6706C19.2444 43.239 18.473 43.5232 17.7422 43.3608C14.413 42.6706 11.368 41.1278 8.8508 38.9354C7.6734 37.9204 7.1862 36.3776 7.4298 34.8348C7.4704 34.6318 7.4704 34.4288 7.4704 34.2258C7.4704 33.6574 7.3486 33.1296 7.105 32.683C6.7396 31.9116 6.8208 31.0184 7.2674 30.2876L8.9726 27.608C9.2974 27.0802 9.8658 26.796 10.4748 26.796C11.4492 26.796 12.3424 26.3088 12.8702 25.578C13.3168 24.969 14.007 24.6036 14.7378 24.6036H14.8596C15.7528 24.6036 16.6054 25.1314 16.9708 25.984C17.7828 27.8922 19.691 29.1914 21.8834 29.1914C22.0052 29.1914 22.127 29.1914 22.2488 29.1914C23.4262 29.1102 24.5224 29.638 25.172 30.653L25.4562 31.0996C25.8216 31.668 25.8622 32.3988 25.578 33.0078C25.4156 33.3732 25.2938 33.8198 25.2938 34.2664C25.2938 34.4288 25.2938 34.5912 25.3344 34.7536C25.578 36.2152 25.2532 37.7174 24.4818 38.976L23.5074 40.6ZM36.0934 37.8798C33.4544 40.5594 30.1658 42.3864 26.5118 43.239C26.2276 43.3202 25.6998 43.4014 25.2126 43.4014C24.4818 43.3608 24.0758 42.5894 24.4818 41.9804L25.8622 39.7068C26.6742 38.4076 27.9328 37.4738 29.3944 37.0272C29.4756 36.9866 29.5568 36.9866 29.5974 36.946C30.044 36.7024 30.45 36.3776 30.7342 35.9716C31.1402 35.4032 31.7492 35.0378 32.48 35.0378H34.0634C34.9972 35.0378 35.8498 35.525 36.2964 36.337C36.2964 36.337 36.2964 36.337 36.2964 36.3776C36.6212 36.7836 36.54 37.4332 36.0934 37.8798ZM28.5012 32.7642C29.1508 32.8454 29.6786 33.3732 29.7598 34.0228C29.8816 34.9566 29.0696 35.7686 28.1358 35.6468C27.4862 35.5656 26.9584 35.0378 26.8772 34.3882C26.796 33.4544 27.5674 32.6424 28.5012 32.7642ZM36.337 32.1146C35.8904 32.9266 35.0378 33.4138 34.104 33.4138H32.5206C31.8304 33.4138 31.1808 33.0484 30.7748 32.48C30.5312 32.1146 30.2064 31.8304 29.841 31.6274C29.3944 31.3838 28.9072 31.3026 28.4606 31.262C27.811 31.2214 27.202 30.856 26.8772 30.2876L26.5524 29.7598C25.9434 28.7854 25.9434 27.5268 26.5118 26.5524C26.999 25.7404 27.3238 24.766 27.3238 23.751C27.3238 22.5736 26.9178 21.4368 26.2682 20.5436C25.6592 19.7316 25.578 18.5948 26.0652 17.7016L26.1058 17.6204C26.5118 16.8896 27.202 16.4024 28.014 16.2806C28.7854 16.1588 29.435 15.7122 29.8004 15.2656C30.4094 14.5348 31.262 14.1288 32.2364 14.1288H35.0784C35.8904 14.1288 36.6618 14.5348 37.1084 15.225C37.555 15.8746 38.2046 16.4024 38.976 16.646C40.194 17.0114 41.1278 17.9858 41.412 19.2038C41.7774 20.706 41.9398 22.2082 41.9398 23.751C41.9398 25.0502 41.818 26.3088 41.5744 27.5674C41.3308 28.7854 40.4376 29.7192 39.2196 30.0034C38.7324 30.1252 38.2858 30.2876 38.0422 30.45C37.3114 30.856 36.743 31.4244 36.337 32.1146ZM42.6706 34.4288C42.5488 35.728 41.5338 36.7836 40.2346 36.8648C38.57 36.9866 37.2302 35.6062 37.352 33.9822C37.4738 32.683 38.4888 31.6274 39.788 31.5462C41.412 31.4244 42.7924 32.7642 42.6706 34.4288Z" fill="#393E41"/>
</svg>
