<svg width="19" height="19" viewBox="0 0 19 19" fill="none" xmlns="http://www.w3.org/2000/svg">
<path d="M17.6861 7.55733C17.4423 7.38653 17.222 7.18167 17.0315 6.94839C17.0457 6.62361 17.1082 6.30311 17.217 5.99848C17.4215 5.27639 17.6762 4.37771 17.1854 3.6745C16.691 2.9657 15.7878 2.94191 15.0622 2.92256C14.757 2.93527 14.4516 2.90104 14.1559 2.82094C13.9934 2.55497 13.8692 2.26548 13.7876 1.96176C13.5455 1.24259 13.2439 0.347493 12.4361 0.0737122C11.6524 -0.191974 10.949 0.312807 10.3288 0.756701C10.0796 0.964263 9.79978 1.12833 9.50023 1.24256C9.20053 1.12846 8.92056 0.96436 8.67129 0.756701C8.05107 0.312417 7.34752 -0.190771 6.56396 0.0737122C5.75646 0.347493 5.45495 1.24214 5.21257 1.96147C5.13104 2.26366 5.00827 2.55207 4.84804 2.81782C4.55143 2.90036 4.24456 2.93557 3.93785 2.92227C3.21229 2.94158 2.30911 2.96541 1.81471 3.67418C1.32387 4.37777 1.57853 5.27645 1.78305 5.99861C1.89057 6.30165 1.95372 6.61984 1.97033 6.94251C1.78071 7.17907 1.55961 7.38614 1.31377 7.55736C0.728335 8.02303 0 8.60278 0 9.4999C0 10.397 0.728335 10.9768 1.31389 11.4425C1.55777 11.6133 1.77806 11.8181 1.96852 12.0514C1.95437 12.3762 1.89179 12.6966 1.78298 13.0013C1.5785 13.7234 1.32381 14.6221 1.81465 15.3253C2.30905 16.0341 3.21223 16.0579 3.93782 16.0773C4.24307 16.0645 4.54841 16.0988 4.84408 16.1789C5.00665 16.4449 5.13079 16.7344 5.21247 17.0381C5.45486 17.7574 5.75636 18.6524 6.56405 18.9262C6.70714 18.9751 6.8568 19 7.0074 19C7.61527 19 8.17035 18.602 8.67136 18.2432C8.9206 18.0356 9.20041 17.8715 9.49998 17.7572C9.79968 17.8713 10.0797 18.0354 10.329 18.2431C10.9492 18.6874 11.6525 19.1902 12.4363 18.9261C13.2438 18.6523 13.5453 17.7576 13.7877 17.0383C13.8692 16.7361 13.992 16.4477 14.1522 16.182C14.4488 16.0994 14.7557 16.0642 15.0624 16.0775C15.788 16.0582 16.6911 16.0344 17.1855 15.3256C17.6764 14.622 17.4217 13.7233 17.2172 13.0012C17.1097 12.6981 17.0465 12.38 17.0299 12.0573C17.2195 11.8207 17.4406 11.6136 17.6865 11.4424C18.2717 10.9768 19 10.397 19 9.4999C19 8.60278 18.2717 8.02303 17.6861 7.55733ZM13.0285 8.01939L9.07016 12.148C8.76112 12.4705 8.25999 12.4706 7.95084 12.1482C7.95078 12.1482 7.95072 12.1481 7.95066 12.148L5.97148 10.0837C5.65841 9.76535 5.65205 9.24256 5.95727 8.91602C6.26248 8.58948 6.7637 8.58285 7.07677 8.9012C7.08157 8.90608 7.08631 8.91102 7.09099 8.91602L8.51041 10.3966L11.909 6.85168C12.2142 6.52514 12.7155 6.51854 13.0285 6.83689C13.3416 7.15524 13.3479 7.67803 13.0427 8.00457C13.038 8.00961 13.0333 8.01452 13.0285 8.01939Z" fill="white"/>
</svg>
