<svg width="100" height="120" viewBox="0 0 100 120" fill="none" xmlns="http://www.w3.org/2000/svg">
<path fill-rule="evenodd" clip-rule="evenodd" d="M89.61 67.4272H10.3906V104.986C10.3906 106.778 11.5373 108.358 13.2128 108.874C21.1724 111.319 43.5558 118.199 48.8615 119.83C49.6042 120.057 50.3964 120.057 51.1391 119.83C56.4448 118.199 78.8282 111.319 86.7878 108.874C88.4633 108.358 89.61 106.778 89.61 104.986C89.61 95.5803 89.61 67.4272 89.61 67.4272Z" fill="#CADCF0"/>
<path fill-rule="evenodd" clip-rule="evenodd" d="M89.6086 67.4272H49.9989C49.9989 67.4272 49.6147 120 49.9989 120C50.3831 120 50.7653 119.943 51.1377 119.83C56.4434 118.199 78.8268 111.319 86.7864 108.874C88.4619 108.358 89.6086 106.778 89.6086 104.986C89.6086 95.5803 89.6086 67.4272 89.6086 67.4272Z" fill="#A4BBDB"/>
<path fill-rule="evenodd" clip-rule="evenodd" d="M50 80.5928L10.3903 67.4272C10.3903 67.4272 3.44475 77.9775 0.339351 82.6927C-0.0092137 83.2223 -0.0943747 83.8857 0.107635 84.4883C0.311624 85.0909 0.777038 85.5596 1.3692 85.7584C8.89306 88.2621 31.1656 95.6757 37.008 97.6194C37.8458 97.8993 38.7647 97.5768 39.2598 96.8281C41.9156 92.8129 50 80.5928 50 80.5928Z" fill="#E9F3FC"/>
<path fill-rule="evenodd" clip-rule="evenodd" d="M89.6097 67.4272L50 80.5928C50 80.5928 58.0843 92.8129 60.7402 96.8281C61.2353 97.5768 62.1542 97.8993 62.992 97.6194C68.8344 95.6757 91.1069 88.2621 98.6308 85.7584C99.223 85.5596 99.6884 85.0909 99.8924 84.4883C100.094 83.8857 100.009 83.2223 99.6606 82.6927C96.5552 77.9775 89.6097 67.4272 89.6097 67.4272Z" fill="#E9F3FC"/>
<path fill-rule="evenodd" clip-rule="evenodd" d="M40.4112 39.7724C39.9161 39.0278 38.9991 38.7052 38.1614 38.9852C32.3229 40.9269 10.0444 48.3425 2.52057 50.8482C1.92841 51.045 1.46101 51.5137 1.259 52.1163C1.05699 52.7189 1.14215 53.3843 1.49072 53.9119C4.35054 58.2578 10.389 67.4284 10.389 67.4284L49.9987 54.2182C49.9987 54.2182 42.8848 43.4995 40.4112 39.7724Z" fill="#CADCF0"/>
<path fill-rule="evenodd" clip-rule="evenodd" d="M98.508 53.9119C98.8566 53.3843 98.9417 52.7189 98.7397 52.1163C98.5377 51.5137 98.0703 51.045 97.4782 50.8482C89.9543 48.3425 67.6758 40.9269 61.8374 38.9852C60.9996 38.7052 60.0826 39.0278 59.5875 39.7724C57.1139 43.4995 50 54.2182 50 54.2182L89.6097 67.4284C89.6097 67.4284 95.6482 58.2578 98.508 53.9119Z" fill="#E9F3FC"/>
<path fill-rule="evenodd" clip-rule="evenodd" d="M89.61 67.4289L50.0003 54.2188L10.3906 67.4289L50.0003 80.5945L89.61 67.4289Z" fill="#CADCF0"/>
<path fill-rule="evenodd" clip-rule="evenodd" d="M50.0003 80.5945V54.2188L10.3906 67.4289L50.0003 80.5945Z" fill="#A4BBDB"/>
<path fill-rule="evenodd" clip-rule="evenodd" d="M42.0423 60.0465C41.2184 59.4946 40.4757 58.9042 39.8162 58.2854C39.0121 57.5286 37.7585 57.5834 37.0178 58.4092C36.2791 59.2329 36.3326 60.5172 37.1386 61.274C37.9486 62.0369 38.8616 62.7632 39.8756 63.4429C40.7906 64.0556 42.0185 63.7919 42.6166 62.8545C43.2147 61.9171 42.9573 60.6592 42.0423 60.0465Z" fill="#347BFA"/>
<path fill-rule="evenodd" clip-rule="evenodd" d="M35.8725 53.8129C35.2843 52.9952 34.7872 52.1735 34.3792 51.3518C33.8841 50.3536 32.6899 49.9559 31.7155 50.4631C30.7411 50.9704 30.3529 52.1938 30.848 53.192C31.3511 54.2024 31.961 55.2148 32.6839 56.2191C33.3315 57.12 34.5713 57.3127 35.4526 56.6493C36.332 55.9838 36.5201 54.7137 35.8725 53.8129Z" fill="#347BFA"/>
<path fill-rule="evenodd" clip-rule="evenodd" d="M32.9772 45.5332C32.997 44.7156 33.1138 43.9223 33.3277 43.1614C33.6287 42.0861 33.0207 40.9601 31.9691 40.6517C30.9194 40.3433 29.8203 40.9661 29.5192 42.0435C29.2162 43.131 29.0459 44.2651 29.0162 45.4318C28.9904 46.5517 29.8539 47.483 30.9472 47.5094C32.0404 47.5378 32.9494 46.6532 32.9772 45.5332Z" fill="#347BFA"/>
<path fill-rule="evenodd" clip-rule="evenodd" d="M36.023 38.7557C36.5319 38.2728 37.1023 37.8265 37.7262 37.4227C38.6511 36.8242 38.9283 35.5703 38.3461 34.6249C37.7618 33.6774 36.5379 33.3933 35.613 33.9898C34.7753 34.5315 34.0147 35.1301 33.3315 35.7793C32.5294 36.5401 32.4818 37.8244 33.2245 38.6461C33.9672 39.4678 35.2209 39.5165 36.023 38.7557Z" fill="#347BFA"/>
<path fill-rule="evenodd" clip-rule="evenodd" d="M43.3868 35.2579C44.383 35.0692 45.4386 34.9475 46.5516 34.9008C47.6448 34.8521 48.4925 33.9046 48.4469 32.7867C48.4014 31.6688 47.4765 30.7984 46.3833 30.8451C45.0761 30.9019 43.8364 31.0459 42.6659 31.2671C41.5925 31.472 40.8795 32.5311 41.0795 33.6307C41.2776 34.7324 42.3114 35.4608 43.3868 35.2579Z" fill="#347BFA"/>
<path fill-rule="evenodd" clip-rule="evenodd" d="M53.7118 35.1372C55.4011 35.1575 56.9736 35.0966 58.4332 34.9647C59.5225 34.8653 60.3286 33.8793 60.2315 32.7634C60.1345 31.6495 59.172 30.8237 58.0827 30.9232C56.7459 31.0429 55.3061 31.0997 53.7573 31.0794C52.6641 31.0672 51.7669 31.966 51.755 33.0839C51.7412 34.2039 52.6185 35.125 53.7118 35.1372Z" fill="#347BFA"/>
<path fill-rule="evenodd" clip-rule="evenodd" d="M64.9429 33.7188C66.9035 33.1041 68.5592 32.3169 69.9456 31.414C70.8665 30.8114 71.1398 29.5575 70.5516 28.6121C69.9654 27.6686 68.7394 27.3886 67.8165 27.9912C66.7015 28.7176 65.3647 29.3425 63.7843 29.8375C62.7406 30.1662 62.1504 31.3004 62.4712 32.3716C62.7901 33.4429 63.8991 34.0455 64.9429 33.7188Z" fill="#347BFA"/>
<path fill-rule="evenodd" clip-rule="evenodd" d="M75.0222 25.7371C75.957 23.7568 76.3154 21.663 76.2243 19.6443C76.1728 18.5243 75.244 17.66 74.1527 17.7127C73.0615 17.7655 72.2158 18.715 72.2673 19.8329C72.3307 21.2045 72.0891 22.6267 71.4553 23.9719C70.98 24.9803 71.3919 26.1956 72.3762 26.6825C73.3605 27.1695 74.5469 26.7454 75.0222 25.7371Z" fill="#347BFA"/>
<path fill-rule="evenodd" clip-rule="evenodd" d="M73.7603 12.4702C72.3165 10.4717 70.3578 9.0799 68.2228 8.63152C67.1514 8.40834 66.1037 9.1144 65.8839 10.212C65.666 11.3097 66.3572 12.383 67.4267 12.6082C68.6585 12.8658 69.7438 13.7322 70.5776 14.8866C71.2292 15.7854 72.471 15.9741 73.3483 15.3086C74.2277 14.6411 74.4118 13.369 73.7603 12.4702Z" fill="#347BFA"/>
<path fill-rule="evenodd" clip-rule="evenodd" d="M47.8877 9.02454C50.0306 -3.40655 68.6016 -2.60311 57.7901 9.02454H47.8877Z" fill="#CADCF0"/>
<path fill-rule="evenodd" clip-rule="evenodd" d="M47.8877 12.1738C50.0306 24.6029 68.6016 23.8015 57.7901 12.1738H47.8877Z" fill="#CADCF0"/>
<path fill-rule="evenodd" clip-rule="evenodd" d="M47.707 12.6486H60.9684C62.0616 12.6486 62.9489 11.7397 62.9489 10.6197C62.9489 9.49977 62.0616 8.59082 60.9684 8.59082H47.707C46.6158 8.59082 45.7266 9.49977 45.7266 10.6197C45.7266 11.7397 46.6158 12.6486 47.707 12.6486Z" fill="#347BFA"/>
</svg>
