<svg width="24" height="24" viewBox="0 0 24 24" fill="none" xmlns="http://www.w3.org/2000/svg">
<g id="fi-rr-expand-arrows" clip-path="url(#clip0_10_143)">
<path id="Vector" d="M22.9781 9.02154C23.2433 9.02154 23.4977 8.91618 23.6852 8.72865C23.8727 8.54111 23.9781 8.28676 23.9781 8.02154V3.97754C23.9781 2.91667 23.5567 1.89926 22.8065 1.14911C22.0564 0.398966 21.0389 -0.0224609 19.9781 -0.0224609H15.9781C15.7129 -0.0224609 15.4585 0.0828959 15.271 0.270432C15.0834 0.457969 14.9781 0.712323 14.9781 0.977539C14.9781 1.24276 15.0834 1.49711 15.271 1.68465C15.4585 1.87218 15.7129 1.97754 15.9781 1.97754H19.9781C20.1628 1.98011 20.3463 2.00872 20.5231 2.06254L12.0001 10.5855L3.47808 2.06354C3.63389 2.0229 3.79407 2.00141 3.95508 1.99954H8.00008C8.2653 1.99954 8.51965 1.89418 8.70719 1.70665C8.89472 1.51911 9.00008 1.26476 9.00008 0.999539C9.00008 0.734323 8.89472 0.479969 8.70719 0.292432C8.51965 0.104896 8.2653 -0.000460938 8.00008 -0.000460938H3.95508C2.89421 -0.000460938 1.8768 0.420966 1.12665 1.17111C0.376505 1.92126 -0.0449219 2.93867 -0.0449219 3.99954V7.99954C-0.0449219 8.26476 0.060435 8.51911 0.247971 8.70665C0.435508 8.89418 0.689862 8.99954 0.955078 8.99954C1.22029 8.99954 1.47465 8.89418 1.66219 8.70665C1.84972 8.51911 1.95508 8.26476 1.95508 7.99954V3.99954C1.95773 3.81446 1.98634 3.63067 2.04008 3.45354L10.5861 11.9995L2.03508 20.5505C1.98438 20.3787 1.95747 20.2007 1.95508 20.0215V15.9775C1.95508 15.7123 1.84972 15.458 1.66219 15.2704C1.47465 15.0829 1.22029 14.9775 0.955078 14.9775C0.689862 14.9775 0.435508 15.0829 0.247971 15.2704C0.060435 15.458 -0.0449219 15.7123 -0.0449219 15.9775V20.0215C-0.0449219 21.0824 0.376505 22.0998 1.12665 22.85C1.8768 23.6001 2.89421 24.0215 3.95508 24.0215H7.95508C8.2203 24.0215 8.47465 23.9162 8.66219 23.7286C8.84972 23.5411 8.95508 23.2868 8.95508 23.0215C8.95508 22.7563 8.84972 22.502 8.66219 22.3144C8.47465 22.1269 8.2203 22.0215 7.95508 22.0215H3.95508C3.78815 22.0196 3.62216 21.9964 3.46108 21.9525L12.0001 13.4135L20.5061 21.9195C20.3346 21.9702 20.1569 21.9971 19.9781 21.9995H15.9331C15.6679 21.9995 15.4135 22.1049 15.226 22.2924C15.0384 22.48 14.9331 22.7343 14.9331 22.9995C14.9331 23.2648 15.0384 23.5191 15.226 23.7066C15.4135 23.8942 15.6679 23.9995 15.9331 23.9995H19.9781C21.0389 23.9995 22.0564 23.5781 22.8065 22.828C23.5567 22.0778 23.9781 21.0604 23.9781 19.9995V15.9995C23.9781 15.7343 23.8727 15.48 23.6852 15.2924C23.4977 15.1049 23.2433 14.9995 22.9781 14.9995C22.7129 14.9995 22.4585 15.1049 22.271 15.2924C22.0834 15.48 21.9781 15.7343 21.9781 15.9995V19.9995C21.9758 20.1665 21.9523 20.3325 21.9081 20.4935L13.4141 11.9995L21.9141 3.49954C21.9548 3.65567 21.9763 3.81619 21.9781 3.97754V8.02154C21.9781 8.28676 22.0834 8.54111 22.271 8.72865C22.4585 8.91618 22.7129 9.02154 22.9781 9.02154Z" fill="#151A2D"/>
<path id="Vector_2" d="M23 9C23.2652 9 23.5196 8.89464 23.7071 8.70711C23.8946 8.51957 24 8.26522 24 8V3C24 2.20435 23.6839 1.44129 23.1213 0.87868C22.5587 0.31607 21.7956 0 21 0L16 0C15.7348 0 15.4804 0.105357 15.2929 0.292893C15.1054 0.48043 15 0.734784 15 1C15 1.26522 15.1054 1.51957 15.2929 1.70711C15.4804 1.89464 15.7348 2 16 2H20.586L12 10.586L3.414 2H8C8.26522 2 8.51957 1.89464 8.70711 1.70711C8.89464 1.51957 9 1.26522 9 1C9 0.734784 8.89464 0.48043 8.70711 0.292893C8.51957 0.105357 8.26522 0 8 0L3 0C2.20435 0 1.44129 0.31607 0.87868 0.87868C0.31607 1.44129 0 2.20435 0 3L0 8C0 8.26522 0.105357 8.51957 0.292893 8.70711C0.48043 8.89464 0.734784 9 1 9C1.26522 9 1.51957 8.89464 1.70711 8.70711C1.89464 8.51957 2 8.26522 2 8V3.414L10.586 12L2 20.586V16C2 15.7348 1.89464 15.4804 1.70711 15.2929C1.51957 15.1054 1.26522 15 1 15C0.734784 15 0.48043 15.1054 0.292893 15.2929C0.105357 15.4804 0 15.7348 0 16L0 21C0 21.7956 0.31607 22.5587 0.87868 23.1213C1.44129 23.6839 2.20435 24 3 24H8C8.26522 24 8.51957 23.8946 8.70711 23.7071C8.89464 23.5196 9 23.2652 9 23C9 22.7348 8.89464 22.4804 8.70711 22.2929C8.51957 22.1054 8.26522 22 8 22H3.414L12 13.414L20.586 22H16C15.7348 22 15.4804 22.1054 15.2929 22.2929C15.1054 22.4804 15 22.7348 15 23C15 23.2652 15.1054 23.5196 15.2929 23.7071C15.4804 23.8946 15.7348 24 16 24H21C21.7956 24 22.5587 23.6839 23.1213 23.1213C23.6839 22.5587 24 21.7956 24 21V16C24 15.7348 23.8946 15.4804 23.7071 15.2929C23.5196 15.1054 23.2652 15 23 15C22.7348 15 22.4804 15.1054 22.2929 15.2929C22.1054 15.4804 22 15.7348 22 16V20.586L13.414 12L22 3.414V8C22 8.26522 22.1054 8.51957 22.2929 8.70711C22.4804 8.89464 22.7348 9 23 9Z" fill="#151A2D"/>
</g>
<defs>
<clipPath id="clip0_10_143">
<rect width="24" height="24" fill="white"/>
</clipPath>
</defs>
</svg>
