<svg width="9" height="14" viewBox="0 0 9 14" fill="none" xmlns="http://www.w3.org/2000/svg">
<path d="M7.20925 4.88006L2.61925 0.29006C2.43189 0.103809 2.17844 -0.000732422 1.91425 -0.000732422C1.65006 -0.000732422 1.39661 0.103809 1.20925 0.29006C1.11552 0.383023 1.04113 0.493624 0.990359 0.615483C0.939591 0.737343 0.913452 0.868048 0.913452 1.00006C0.913452 1.13207 0.939591 1.26278 0.990359 1.38464C1.04113 1.5065 1.11552 1.6171 1.20925 1.71006L5.80925 6.29006C5.90298 6.38302 5.97737 6.49362 6.02814 6.61548C6.07891 6.73734 6.10505 6.86805 6.10505 7.00006C6.10505 7.13207 6.07891 7.26278 6.02814 7.38464C5.97737 7.5065 5.90298 7.6171 5.80925 7.71006L1.20925 12.2901C1.02095 12.477 0.914632 12.7312 0.913694 12.9965C0.912757 13.2619 1.01727 13.5168 1.20425 13.7051C1.39123 13.8934 1.64535 13.9997 1.91072 14.0006C2.17608 14.0016 2.43095 13.897 2.61925 13.7101L7.20925 9.12006C7.77105 8.55756 8.08661 7.79506 8.08661 7.00006C8.08661 6.20506 7.77105 5.44256 7.20925 4.88006Z" fill="white"/>
</svg>
