<svg xmlns="http://www.w3.org/2000/svg" width="16" height="17" viewBox="0 0 16 17" fill="none">
<g clip-path="url(#clip0_109_5513)">
<path d="M7.65067 10.5C7.47386 10.5 7.30429 10.5702 7.17926 10.6953C7.05424 10.8203 6.984 10.9899 6.984 11.1667V13.1667C6.984 13.6971 6.77329 14.2058 6.39821 14.5809C6.02314 14.956 5.51443 15.1667 4.984 15.1667H3.33333C2.8029 15.1667 2.29419 14.956 1.91912 14.5809C1.54405 14.2058 1.33333 13.6971 1.33333 13.1667V3.83333C1.33333 3.3029 1.54405 2.79419 1.91912 2.41912C2.29419 2.04405 2.8029 1.83333 3.33333 1.83333H4.984C5.51443 1.83333 6.02314 2.04405 6.39821 2.41912C6.77329 2.79419 6.984 3.3029 6.984 3.83333V5.83333C6.984 6.01014 7.05424 6.17971 7.17926 6.30474C7.30429 6.42976 7.47386 6.5 7.65067 6.5C7.82748 6.5 7.99705 6.42976 8.12207 6.30474C8.2471 6.17971 8.31733 6.01014 8.31733 5.83333V3.83333C8.31627 2.9496 7.96475 2.10237 7.33985 1.47748C6.71496 0.852588 5.86773 0.501059 4.984 0.5H3.33333C2.4496 0.501059 1.60237 0.852588 0.97748 1.47748C0.352588 2.10237 0.00105857 2.9496 0 3.83333L0 13.1667C0.00105857 14.0504 0.352588 14.8976 0.97748 15.5225C1.60237 16.1474 2.4496 16.4989 3.33333 16.5H4.984C5.86773 16.4989 6.71496 16.1474 7.33985 15.5225C7.96475 14.8976 8.31627 14.0504 8.31733 13.1667V11.1667C8.31733 10.9899 8.2471 10.8203 8.12207 10.6953C7.99705 10.5702 7.82748 10.5 7.65067 10.5Z" fill="#404040"/>
<path d="M15.2443 7.08557L12.187 4.02823C12.1255 3.96456 12.0519 3.91377 11.9706 3.87883C11.8893 3.84389 11.8018 3.8255 11.7133 3.82473C11.6248 3.82396 11.537 3.84083 11.455 3.87435C11.3731 3.90787 11.2987 3.95737 11.2361 4.01997C11.1735 4.08256 11.124 4.157 11.0905 4.23893C11.0569 4.32086 11.0401 4.40865 11.0408 4.49717C11.0416 4.58569 11.06 4.67317 11.0949 4.7545C11.1299 4.83584 11.1807 4.9094 11.2443 4.9709L14.0857 7.8129L3.99967 7.8329C3.82286 7.8329 3.65329 7.90314 3.52827 8.02816C3.40325 8.15319 3.33301 8.32275 3.33301 8.49957C3.33301 8.67638 3.40325 8.84595 3.52827 8.97097C3.65329 9.09599 3.82286 9.16623 3.99967 9.16623L14.125 9.14557L11.243 12.0282C11.1793 12.0897 11.1285 12.1633 11.0936 12.2446C11.0587 12.326 11.0403 12.4134 11.0395 12.502C11.0387 12.5905 11.0556 12.6783 11.0891 12.7602C11.1226 12.8421 11.1722 12.9166 11.2347 12.9792C11.2973 13.0418 11.3718 13.0913 11.4537 13.1248C11.5356 13.1583 11.6234 13.1752 11.7119 13.1744C11.8005 13.1736 11.8879 13.1552 11.9693 13.1203C12.0506 13.0854 12.1242 13.0346 12.1857 12.9709L15.243 9.91357C15.6181 9.53869 15.829 9.03017 15.8292 8.49984C15.8295 7.96951 15.6191 7.4608 15.2443 7.08557Z" fill="#404040"/>
</g>
<defs>
<clipPath id="clip0_109_5513">
<rect width="16" height="16" fill="white" transform="translate(0 0.5)"/>
</clipPath>
</defs>
</svg>