<svg width="16" height="16" viewBox="0 0 16 16" fill="none" xmlns="http://www.w3.org/2000/svg">
<g clip-path="url(#clip0_1524_9266)">
<path d="M8 0C6.41775 0 4.87104 0.469192 3.55544 1.34824C2.23985 2.22729 1.21447 3.47672 0.608967 4.93853C0.00346629 6.40034 -0.15496 8.00887 0.153721 9.56072C0.462403 11.1126 1.22433 12.538 2.34315 13.6569C3.46197 14.7757 4.88743 15.5376 6.43928 15.8463C7.99113 16.155 9.59966 15.9965 11.0615 15.391C12.5233 14.7855 13.7727 13.7602 14.6518 12.4446C15.5308 11.129 16 9.58225 16 8C15.9977 5.87897 15.1541 3.84547 13.6543 2.34568C12.1545 0.845886 10.121 0.00229405 8 0ZM8 14.6667C6.68146 14.6667 5.39253 14.2757 4.2962 13.5431C3.19987 12.8106 2.34539 11.7694 1.84081 10.5512C1.33622 9.33305 1.2042 7.99261 1.46144 6.6994C1.71867 5.40619 2.35361 4.21831 3.28596 3.28596C4.21831 2.35361 5.4062 1.71867 6.6994 1.46143C7.99261 1.2042 9.33305 1.33622 10.5512 1.8408C11.7694 2.34539 12.8106 3.19987 13.5431 4.2962C14.2757 5.39253 14.6667 6.68146 14.6667 8C14.6647 9.76752 13.9617 11.4621 12.7119 12.7119C11.4621 13.9617 9.76752 14.6647 8 14.6667Z" fill="#01509A"/>
<path d="M8.47804 3.37534C8.09359 3.30529 7.69845 3.32059 7.32057 3.42016C6.94269 3.51973 6.59131 3.70114 6.2913 3.95154C5.99129 4.20194 5.74998 4.51522 5.58445 4.8692C5.41891 5.22319 5.3332 5.60923 5.33337 6C5.33337 6.17681 5.40361 6.34638 5.52864 6.47141C5.65366 6.59643 5.82323 6.66667 6.00004 6.66667C6.17685 6.66667 6.34642 6.59643 6.47145 6.47141C6.59647 6.34638 6.66671 6.17681 6.66671 6C6.66654 5.80385 6.70965 5.61008 6.79297 5.43251C6.87629 5.25493 6.99776 5.09793 7.14872 4.97269C7.29968 4.84745 7.47642 4.75706 7.66632 4.70797C7.85623 4.65887 8.05463 4.65228 8.24737 4.68867C8.51073 4.73979 8.75288 4.86826 8.94287 5.05766C9.13287 5.24706 9.26209 5.4888 9.31404 5.752C9.36651 6.02827 9.33028 6.31405 9.21054 6.56849C9.09081 6.82293 8.89369 7.033 8.64737 7.16867C8.23949 7.40498 7.90243 7.74635 7.67132 8.1572C7.44022 8.56806 7.32351 9.03338 7.33337 9.50467V10C7.33337 10.1768 7.40361 10.3464 7.52864 10.4714C7.65366 10.5964 7.82323 10.6667 8.00004 10.6667C8.17685 10.6667 8.34642 10.5964 8.47145 10.4714C8.59647 10.3464 8.66671 10.1768 8.66671 10V9.50467C8.65834 9.27268 8.71124 9.04258 8.82009 8.83753C8.92893 8.63249 9.08987 8.45973 9.28671 8.33667C9.76972 8.07138 10.1587 7.66297 10.4001 7.16761C10.6415 6.67224 10.7235 6.11424 10.6349 5.57035C10.5462 5.02646 10.2913 4.5234 9.90504 4.13033C9.51881 3.73727 9.02029 3.47351 8.47804 3.37534Z" fill="#01509A"/>
<path d="M8.66671 12C8.66671 11.6318 8.36823 11.3333 8.00004 11.3333C7.63185 11.3333 7.33337 11.6318 7.33337 12C7.33337 12.3682 7.63185 12.6667 8.00004 12.6667C8.36823 12.6667 8.66671 12.3682 8.66671 12Z" fill="#01509A"/>
</g>
<defs>
<clipPath id="clip0_1524_9266">
<rect width="16" height="16" fill="white"/>
</clipPath>
</defs>
</svg>
