<svg width="17" height="16" viewBox="0 0 17 16" fill="none" xmlns="http://www.w3.org/2000/svg">
<path fill-rule="evenodd" clip-rule="evenodd" d="M12.9875 0.180171C13.1029 0.0648075 13.2594 0 13.4226 0C13.5857 0 13.7422 0.0648075 13.8576 0.180171L16.3192 2.64163C16.3765 2.6988 16.422 2.7667 16.453 2.84146C16.484 2.91623 16.5 2.99637 16.5 3.07731C16.5 3.15826 16.484 3.2384 16.453 3.31316C16.422 3.38792 16.3765 3.45583 16.3192 3.51299L11.4675 8.36454C11.374 8.45839 11.2659 8.53652 11.1475 8.59592L6.3142 11.0118C6.19877 11.0695 6.06816 11.0893 5.94081 11.0687C5.81347 11.048 5.69584 10.9879 5.60455 10.8967C5.51325 10.8056 5.45292 10.688 5.43207 10.5607C5.41122 10.4334 5.4309 10.3028 5.48835 10.1873L7.90437 5.35294C7.96377 5.23452 8.04191 5.12646 8.13576 5.03295L12.9875 0.180171ZM13.4232 1.48598L9.00468 5.90431L7.72837 8.45931L8.04098 8.77191L10.5973 7.49441L15.0146 3.07731L13.4232 1.48598ZM10.3462 1.23122L9.11545 2.46195H4.06926C3.54249 2.46195 3.1831 2.46195 2.9074 2.48533C2.63663 2.50749 2.49879 2.54687 2.40278 2.5961C2.17121 2.71409 1.98293 2.90236 1.86493 3.13393C1.8157 3.22992 1.77632 3.36777 1.75416 3.63853C1.73078 3.91421 1.73078 4.27359 1.73078 4.80034V12.4309C1.73078 12.9576 1.73078 13.317 1.75416 13.5927C1.77632 13.8634 1.8157 14.0013 1.86493 14.0973C1.98293 14.3289 2.17121 14.5171 2.40278 14.6351C2.49879 14.6843 2.63663 14.7237 2.9074 14.7459C3.18433 14.7693 3.54249 14.7693 4.06926 14.7693H11.7001C12.2269 14.7693 12.5863 14.7693 12.8619 14.7459C13.1327 14.7237 13.2706 14.6843 13.3666 14.6351C13.5981 14.5171 13.7864 14.3289 13.9044 14.0973C13.9536 14.0013 13.993 13.8634 14.0152 13.5927C14.0386 13.3158 14.0386 12.9576 14.0386 12.4309V7.38488L15.2694 6.15414V12.4555C15.2694 12.9515 15.2694 13.3601 15.2423 13.6936C15.214 14.0394 15.1537 14.3582 15.001 14.656C14.765 15.1192 14.3885 15.4957 13.9253 15.7317C13.6263 15.8843 13.3087 15.9446 12.9629 15.9729C12.6306 16 12.2207 16 11.7259 16H4.04464C3.54864 16 3.14002 16 2.80648 15.9729C2.46063 15.9446 2.14186 15.8843 1.84401 15.7317C1.38086 15.4957 1.0043 15.1192 0.76831 14.656C0.615693 14.357 0.555385 14.0394 0.527077 13.6936C0.5 13.3613 0.5 12.9515 0.5 12.4555V4.77572C0.5 4.27974 0.5 3.87114 0.527077 3.53761C0.555385 3.19177 0.615693 2.87301 0.76831 2.57518C1.0043 2.11204 1.38086 1.7355 1.84401 1.49952C2.14309 1.3469 2.46063 1.2866 2.80648 1.25829C3.13879 1.23122 3.54864 1.23122 4.04464 1.23122H4.06926H10.3462Z" fill="#404040"/>
</svg>
