<svg width="23" height="24" viewBox="0 0 23 24" fill="none" xmlns="http://www.w3.org/2000/svg">
<path d="M9 5.45455C9 4.10127 10.1217 3 11.5 3C12.8783 3 14 4.10127 14 5.45455C14 6.80782 12.8783 7.90909 11.5 7.90909C10.1217 7.90909 9 6.80782 9 5.45455ZM11.5 9.54545C10.1217 9.54545 9 10.6467 9 12C9 13.3533 10.1217 14.4545 11.5 14.4545C12.8783 14.4545 14 13.3533 14 12C14 10.6467 12.8783 9.54545 11.5 9.54545ZM11.5 16.0909C10.1217 16.0909 9 17.1922 9 18.5455C9 19.8987 10.1217 21 11.5 21C12.8783 21 14 19.8987 14 18.5455C14 17.1922 12.8783 16.0909 11.5 16.0909Z" fill="white"/>
</svg>
