<svg width="8" height="14" viewBox="0 0 8 14" fill="none" xmlns="http://www.w3.org/2000/svg">
<path d="M2.70069 7.71043C2.60696 7.61746 2.53257 7.50686 2.4818 7.385C2.43103 7.26314 2.40489 7.13244 2.40489 7.00043C2.40489 6.86842 2.43103 6.73771 2.4818 6.61585C2.53257 6.49399 2.60696 6.38339 2.70069 6.29043L7.29069 1.71043C7.38442 1.61746 7.45881 1.50686 7.50958 1.385C7.56035 1.26314 7.58649 1.13244 7.58649 1.00043C7.58649 0.868415 7.56035 0.737709 7.50958 0.61585C7.45881 0.49399 7.38442 0.383389 7.29069 0.290426C7.10333 0.104175 6.84988 -0.000366211 6.58569 -0.000366211C6.3215 -0.000366211 6.06805 0.104175 5.88069 0.290426L1.29069 4.88043C0.728888 5.44293 0.41333 6.20542 0.41333 7.00043C0.41333 7.79543 0.728888 8.55793 1.29069 9.12043L5.88069 13.7104C6.06695 13.8952 6.31835 13.9993 6.58069 14.0004C6.7123 14.0012 6.84276 13.976 6.9646 13.9262C7.08643 13.8764 7.19725 13.8031 7.29069 13.7104C7.38442 13.6175 7.45881 13.5069 7.50958 13.385C7.56035 13.2631 7.58649 13.1324 7.58649 13.0004C7.58649 12.8684 7.56035 12.7377 7.50958 12.6159C7.45881 12.494 7.38442 12.3834 7.29069 12.2904L2.70069 7.71043Z" fill="white"/>
</svg>
