<svg width="20" height="20" viewBox="0 0 20 20" fill="none" xmlns="http://www.w3.org/2000/svg">
<path d="M0.244396 18.5775L5.93183 12.89C4.83017 11.5292 4.16685 9.8 4.16685 7.91668C4.16685 3.55168 7.71849 0 12.0834 0C16.4484 0 20 3.55164 20 7.91664C20 12.2816 16.4484 15.8333 12.0834 15.8333C10.2001 15.8333 8.47095 15.17 7.11014 14.0683L1.4227 19.7558C1.2602 19.9183 1.04689 20 0.83353 20C0.620174 20 0.406855 19.9183 0.244358 19.7558C-0.081459 19.43 -0.081459 18.9033 0.244396 18.5775ZM12.0834 14.1666C15.53 14.1666 18.3333 11.3633 18.3333 7.91664C18.3333 4.46996 15.53 1.66664 12.0834 1.66664C8.63676 1.66664 5.83348 4.46996 5.83348 7.91664C5.83348 11.3633 8.6368 14.1666 12.0834 14.1666Z" fill="#404040"/>
</svg>
