<svg xmlns="http://www.w3.org/2000/svg" width="36" height="36" viewBox="0 0 36 36" fill="none">
<g clip-path="url(#clip0_332_23501)">
<path d="M36 18C36 14.4399 34.9443 10.9598 32.9665 7.99974C30.9886 5.03966 28.1774 2.73255 24.8883 1.37018C21.5992 0.00779915 17.98 -0.348661 14.4884 0.345873C10.9967 1.04041 7.78943 2.75474 5.27209 5.27209C2.75474 7.78943 1.04041 10.9967 0.345873 14.4884C-0.348661 17.98 0.00779915 21.5992 1.37018 24.8883C2.73255 28.1774 5.03966 30.9886 7.99974 32.9665C10.9598 34.9443 14.4399 36 18 36C22.7723 35.9948 27.3477 34.0968 30.7222 30.7222C34.0968 27.3477 35.9948 22.7723 36 18ZM3.00001 18C3.00001 15.0333 3.87974 12.1332 5.52796 9.66645C7.17619 7.19972 9.51886 5.27713 12.2598 4.14182C15.0006 3.0065 18.0166 2.70945 20.9264 3.28823C23.8361 3.86701 26.5088 5.29562 28.6066 7.39341C30.7044 9.49119 32.133 12.1639 32.7118 15.0737C33.2906 17.9834 32.9935 20.9994 31.8582 23.7403C30.7229 26.4812 28.8003 28.8238 26.3336 30.4721C23.8668 32.1203 20.9667 33 18 33C14.0231 32.9956 10.2103 31.4139 7.39823 28.6018C4.58613 25.7897 3.00438 21.9769 3.00001 18Z" fill="#404040"/>
<path d="M12 18.0007C11.9989 16.9027 12.4002 15.8424 13.128 15.0202C13.5645 14.5297 13.989 14.0647 14.2935 13.7602L18.5295 9.45072C18.8118 9.18551 19.1857 9.03978 19.5731 9.04404C19.9604 9.0483 20.331 9.20221 20.6074 9.47357C20.8838 9.74493 21.0445 10.1127 21.0559 10.4999C21.0673 10.887 20.9285 11.2636 20.6685 11.5507L16.425 15.8707C16.1445 16.1527 15.7635 16.5727 15.375 17.0092C15.1333 17.2832 14.9999 17.6361 14.9999 18.0015C14.9999 18.3669 15.1333 18.7197 15.375 18.9937C15.762 19.4287 16.143 19.8487 16.4145 20.1217L20.6685 24.4507C20.9285 24.7378 21.0673 25.1144 21.0559 25.5016C21.0445 25.8888 20.8838 26.2565 20.6074 26.5279C20.331 26.7992 19.9604 26.9531 19.5731 26.9574C19.1857 26.9617 18.8118 26.8159 18.5295 26.5507L14.286 22.2337C13.986 21.9337 13.566 21.4732 13.1325 20.9842C12.402 20.1622 11.999 19.1004 12 18.0007Z" fill="#404040"/>
</g>
<defs>
<clipPath id="clip0_332_23501">
<rect width="36" height="36" fill="white"/>
</clipPath>
</defs>
</svg>