<svg width="300" height="65" viewBox="0 0 300 65" fill="none" xmlns="http://www.w3.org/2000/svg">
<path d="M38.1812 47.148C39.1161 47.2588 39.8861 46.7605 40.2161 45.93C39.9411 45.3209 39.3911 44.8226 38.6762 44.7673C37.7413 44.6565 36.9713 45.1548 36.6414 45.9853C36.9163 46.5944 37.5213 47.0927 38.1812 47.148Z" fill="#FE0020"/>
<path d="M29.3057 37.7065C32.0004 37.928 34.3102 36.1009 34.8602 33.6094C34.4202 31.3948 32.5504 29.6784 30.2406 29.5123C27.5458 29.2909 25.236 31.1179 24.686 33.6094C25.126 35.7687 26.9958 37.4851 29.3057 37.7065Z" fill="#FE0020"/>
<path d="M37.5752 18.3061C36.7503 18.1953 36.0354 18.6383 35.6504 19.2473C35.9254 19.7456 36.4753 20.1332 37.0803 20.1885C37.9052 20.2993 38.6201 19.8563 39.0051 19.2473C38.7301 18.749 38.1802 18.4168 37.5752 18.3061Z" fill="#FE0020"/>
<path d="M53.9924 20.851C55.1473 20.9617 56.1372 20.3527 56.6322 19.4115C56.2472 18.6363 55.4773 18.0273 54.5424 17.9719C53.3875 17.8612 52.3975 18.4702 51.9026 19.4115C52.2876 20.1866 53.1125 20.7403 53.9924 20.851Z" fill="#FE0020"/>
<path d="M27.8249 3.71364C27.7149 4.5995 28.1549 5.37463 28.8698 5.70683C29.4198 5.43 29.8597 4.87633 29.9147 4.21194C30.0247 3.32608 29.5847 2.55095 28.8698 2.21875C28.3198 2.55095 27.8799 3.10461 27.8249 3.71364Z" fill="#FE0020"/>
<path d="M14.4878 32.5092C13.6629 32.3985 12.948 32.8414 12.563 33.4504C12.838 33.9487 13.3879 34.3363 13.9929 34.3917C14.8178 34.5024 15.5327 34.0595 15.9177 33.4504C15.6427 32.9521 15.0928 32.5646 14.4878 32.5092Z" fill="#FE0020"/>
<path d="M4.40576 18.0254C4.29577 19.5203 5.1757 20.7938 6.44059 21.2921C7.5405 20.8491 8.36543 19.7972 8.47542 18.5791C8.58541 17.0842 7.70548 15.8108 6.44059 15.3125C5.34068 15.7554 4.51575 16.8074 4.40576 18.0254Z" fill="#FE0020"/>
<path d="M5.50649 43.9331C4.24159 43.8224 3.14169 44.5421 2.64673 45.5941C3.0317 46.5353 3.91162 47.1997 4.90154 47.3104C6.16643 47.4212 7.26634 46.7014 7.7613 45.6495C7.43133 44.7082 6.5514 44.0438 5.50649 43.9331Z" fill="#FE0020"/>
<path d="M29.5276 59.0252C28.8677 59.1359 28.3177 59.5235 28.0427 60.1325C28.3727 60.8523 29.1976 61.3506 30.0776 61.2398C30.7375 61.1291 31.2875 60.7415 31.5624 60.1325C31.1775 59.4127 30.3525 58.9144 29.5276 59.0252Z" fill="#FE0020"/>
<path d="M54.5425 47.2002C55.8624 47.0895 56.9623 46.3143 57.5122 45.1516C56.9073 43.8782 55.5324 42.9924 53.9375 43.1031C52.6176 43.2138 51.5177 43.989 50.9678 45.1516C51.6277 46.4251 53.0026 47.3109 54.5425 47.2002Z" fill="#FE0020"/>
<path d="M58.7351 43.1857C57.9652 42.1337 57.6902 40.8049 58.0202 39.5869C58.5701 37.2615 58.9001 34.8808 58.9001 32.4446C58.9001 29.6763 58.5151 26.9634 57.8002 24.3612C57.4702 23.0877 57.5802 21.7589 58.2401 20.6516C58.7351 19.8765 58.9551 18.9353 58.9001 17.8833C58.7351 15.5026 56.8103 13.6201 54.5005 13.5094C54.3905 13.5094 54.2255 13.5094 54.1155 13.5094C52.8506 13.5094 51.6407 13.0111 50.7058 12.0698C46.6361 7.80665 41.3016 4.87223 35.582 3.70954C34.5921 3.48808 33.7672 2.93441 33.2722 2.04855C32.5573 0.830496 31.2374 0 29.7525 0C28.2676 0 27.0027 0.775131 26.2878 1.99319C25.7379 2.93442 24.8029 3.59881 23.758 3.76491C20.8983 4.37394 18.2035 5.37053 15.6737 6.81005C13.4189 8.08348 11.3841 9.57837 9.51421 11.4055C8.4143 12.5128 6.87443 13.0664 5.33456 13.0664H5.27956C2.4198 13.0664 0.0549954 15.4472 0 18.3262C0 19.7104 0.49496 20.9285 1.31989 21.925C1.86985 22.5341 2.03483 23.4199 1.81485 24.1951C0.989919 26.908 0.604949 29.7317 0.604949 32.5554C0.604949 35.6559 1.09991 38.6457 2.03483 41.5801C2.25481 42.2998 2.08983 43.0196 1.59487 43.5732C0.824932 44.5145 0.329974 45.7325 0.439965 47.0613C0.604951 49.5528 2.58479 51.546 5.05958 51.6567C5.11458 51.6567 5.16957 51.6567 5.27956 51.6567C6.81943 51.6567 8.24931 52.3211 9.29423 53.4284C11.1091 55.2002 13.1439 56.7504 15.3437 58.0238C18.1485 59.6295 21.1182 60.7368 24.253 61.3458C25.0779 61.5119 25.8478 62.0102 26.2328 62.7854C26.8928 64.1141 28.2676 65 29.8075 65C31.2374 65 32.5023 64.2249 33.2172 63.1175C33.8222 62.1209 34.8121 61.4566 35.967 61.2351C41.3016 60.0724 46.1412 57.4702 50.0458 53.7053C50.9808 52.764 52.3556 52.3211 53.6755 52.4872C54.0055 52.5426 54.3905 52.5426 54.7204 52.4872C57.3602 52.2658 59.78 49.885 60 47.2274C60 45.6218 59.56 44.2376 58.7351 43.1857ZM54.4455 15.6133C55.6554 15.724 56.6453 16.7206 56.7553 17.9387C56.9203 19.5997 55.5454 20.9838 53.8955 20.8177C52.6856 20.707 51.6957 19.7104 51.5857 18.4923C51.4207 16.8313 52.7956 15.4472 54.4455 15.6133ZM32.9973 6.31176C33.0522 6.25639 33.0522 6.31176 32.9973 6.31176C33.3822 5.75809 33.9322 5.53663 34.5371 5.64736C40.3116 6.69932 45.7012 9.6891 49.6609 14.063C50.1558 14.6167 50.2658 15.4472 49.9358 16.1116C49.6059 16.776 49.0009 17.1635 48.286 17.1635H43.6114C42.3465 17.1635 41.1366 16.6099 40.3116 15.6687C39.8717 15.115 39.0467 14.506 38.1118 14.2291C36.7369 13.8969 35.582 12.9557 34.9221 11.7377L32.8323 7.80665C32.6673 7.36372 32.7223 6.75469 32.9973 6.31176ZM37.0119 20.2087C36.132 20.098 35.4171 19.3782 35.3071 18.4923C35.1421 17.2189 36.242 16.1116 37.5069 16.2777C38.3868 16.3884 39.1017 17.1082 39.2117 17.994C39.3217 19.3228 38.2768 20.3748 37.0119 20.2087ZM27.7727 3.70954C27.8827 2.82368 28.5976 2.10392 29.4775 1.99319C30.7424 1.82709 31.8423 2.93442 31.6774 4.20784C31.5674 5.0937 30.8524 5.81346 29.9725 5.92419C28.7076 6.09029 27.6077 5.03833 27.7727 3.70954ZM9.84418 20.9284C10.2841 20.1533 10.5591 19.2121 10.5591 18.2709C10.5591 17.9387 10.5041 17.5511 10.4491 17.2189C10.0092 15.0596 10.7791 12.845 12.484 11.4055C15.9487 8.52641 20.0183 6.53322 24.418 5.64736C25.2429 5.48126 26.0678 5.81346 26.6178 6.47786C27.2227 7.25298 28.2126 7.86201 29.4775 7.97274C30.2475 8.02811 30.9624 8.47104 31.2924 9.13543L33.2172 12.7342C33.8772 14.0077 33.9872 15.5026 33.4922 16.8313C33.3272 17.2743 33.2722 17.7172 33.2722 18.2155C33.2722 18.8245 33.3822 19.3782 33.6022 19.8765C34.0422 20.9284 34.0422 22.0911 33.4922 23.0877L33.4372 23.1985C32.7773 24.4165 31.5124 25.1363 30.0825 25.0809C29.9725 25.0809 29.8075 25.0809 29.6975 25.0809C26.7278 25.0809 24.143 26.908 23.0431 29.4549C22.5481 30.6175 21.4482 31.3373 20.1833 31.3373H20.0183C19.0284 31.3373 18.0935 30.839 17.4885 30.0085C16.9936 29.3441 16.3336 28.8458 15.5637 28.5136C15.4537 28.4583 15.1787 28.4583 14.9038 28.4029C13.6389 28.2922 12.429 27.5724 11.769 26.4651L9.89918 23.5307C9.34922 22.8663 9.34922 21.7589 9.84418 20.9284ZM34.8671 31.9463C35.1421 35.2129 32.4473 37.9259 29.2576 37.5937C26.7828 37.3722 24.8029 35.379 24.583 32.8876C24.308 29.621 27.0028 26.908 30.1925 27.2402C32.6673 27.4617 34.6471 29.4549 34.8671 31.9463ZM13.9688 34.3825C13.0889 34.2717 12.374 33.552 12.264 32.6661C12.099 31.3927 13.1989 30.2853 14.4638 30.4514C15.3437 30.5622 16.0587 31.2819 16.1687 32.1678C16.2786 33.4412 15.2337 34.5486 13.9688 34.3825ZM2.03483 17.994C2.14482 16.4438 3.40972 15.1704 4.94959 15.0596C6.92942 14.8935 8.57929 16.5545 8.4143 18.5477C8.30431 20.098 7.03941 21.3714 5.49954 21.4821C3.51971 21.6482 1.86985 19.9872 2.03483 17.994ZM4.94959 49.4421C3.6297 49.3313 2.58478 48.224 2.47479 46.9506C2.30981 45.1789 3.79468 43.684 5.55454 43.8501C6.87443 43.9608 7.91934 45.0681 8.02933 46.3416C8.19432 48.1686 6.70944 49.6082 4.94959 49.4421ZM7.64436 40.8603C7.2044 41.5247 6.48946 41.9123 5.71952 41.8569C5.71952 41.8569 5.71953 41.8569 5.66453 41.8569C4.7846 41.8015 4.01467 41.1925 3.79468 40.362C3.02475 37.8152 2.63978 35.1576 2.63978 32.4446C2.63978 30.0085 2.96975 27.5724 3.5747 25.247C3.84968 24.2504 4.72961 23.5307 5.71952 23.4753C5.71952 23.4753 5.71952 23.4753 5.77452 23.4753C6.65445 23.4199 7.53437 23.8075 8.02933 24.5826L9.95417 27.6831C10.6141 28.7351 10.7791 30.0085 10.3941 31.1712C10.2291 31.5588 10.1742 32.0571 10.1742 32.5C10.1742 33.109 10.3391 33.7181 10.5591 34.2717C10.8891 34.9915 10.8341 35.822 10.4491 36.5417L7.64436 40.8603ZM31.6224 61.1244C31.5124 62.0102 30.7974 62.73 29.9175 62.8407C28.6526 63.0068 27.5527 61.8995 27.7177 60.6261C27.8277 59.7402 28.5426 59.0204 29.4226 58.9097C30.7424 58.7436 31.7874 59.8509 31.6224 61.1244ZM31.8423 55.3663C31.3474 56.1968 30.4675 56.7504 29.4775 56.8612C28.9276 56.9165 28.4326 57.0273 28.2126 57.138C27.6077 57.3595 27.1127 57.747 26.7278 58.1899C26.0678 58.9651 25.0229 59.3526 24.033 59.1312C19.5234 58.1899 15.3987 56.086 11.989 53.0963C10.3941 51.7121 9.73419 49.6082 10.0642 47.5043C10.1192 47.2274 10.1192 46.9506 10.1192 46.6738C10.1192 45.8986 9.95417 45.1789 9.6242 44.5698C9.12924 43.5179 9.23923 42.2998 9.84418 41.3032L12.154 37.6491C12.594 36.9293 13.3639 36.5417 14.1888 36.5417C15.5087 36.5417 16.7186 35.8773 17.4335 34.8807C18.0385 34.0503 18.9734 33.552 19.9633 33.552H20.1283C21.3382 33.552 22.4931 34.2717 22.9881 35.4344C24.088 38.0366 26.6728 39.8083 29.6425 39.8083C29.8075 39.8083 29.9725 39.8083 30.1375 39.8083C31.7324 39.6976 33.2172 40.4174 34.0972 41.8015L34.4821 42.4106C34.9771 43.1857 35.0321 44.1823 34.6471 45.0128C34.4271 45.5111 34.2621 46.1201 34.2621 46.7291C34.2621 46.9506 34.2621 47.1721 34.3171 47.3935C34.6471 49.3867 34.2071 51.4353 33.1622 53.1516L31.8423 55.3663ZM48.8909 51.6567C45.3162 55.3109 40.8616 57.8024 35.912 58.9651C35.527 59.0758 34.8121 59.1865 34.1522 59.1865C33.1622 59.1312 32.6123 58.0792 33.1622 57.2487L35.0321 54.1482C36.132 52.3765 37.8368 51.1031 39.8167 50.494C39.9267 50.4387 40.0367 50.4387 40.0917 50.3833C40.6966 50.0511 41.2466 49.6082 41.6315 49.0545C42.1815 48.2794 43.0064 47.7811 43.9963 47.7811H46.1412C47.4061 47.7811 48.561 48.4455 49.1659 49.5528C49.1659 49.5528 49.1659 49.5528 49.1659 49.6082C49.6059 50.1618 49.4959 51.0477 48.8909 51.6567ZM38.6068 44.6806C39.4867 44.7913 40.2016 45.5111 40.3116 46.3969C40.4766 47.6704 39.3767 48.7777 38.1118 48.6116C37.2319 48.5009 36.517 47.7811 36.407 46.8952C36.297 45.6218 37.3419 44.5145 38.6068 44.6806ZM49.2209 43.7947C48.616 44.902 47.461 45.5664 46.1962 45.5664H44.0513C43.1164 45.5664 42.2365 45.0681 41.6865 44.293C41.3566 43.7947 40.9166 43.4072 40.4216 43.1303C39.8167 42.7981 39.1567 42.6874 38.5518 42.632C37.6719 42.5767 36.8469 42.0784 36.407 41.3032L35.967 40.5835C35.1421 39.2547 35.1421 37.5383 35.912 36.2095C36.5719 35.1022 37.0119 33.7734 37.0119 32.3893C37.0119 30.7836 36.462 29.2334 35.582 28.0153C34.7571 26.908 34.6471 25.3578 35.3071 24.1397L35.362 24.029C35.912 23.0324 36.8469 22.368 37.9468 22.2019C38.9918 22.0358 39.8717 21.4267 40.3666 20.8177C41.1916 19.8211 42.3465 19.2675 43.6664 19.2675H47.516C48.616 19.2675 49.6609 19.8211 50.2658 20.7624C50.8708 21.6482 51.7507 22.368 52.7956 22.7002C54.4455 23.1985 55.7104 24.5273 56.0953 26.1882C56.5903 28.2368 56.8103 30.2853 56.8103 32.3893C56.8103 34.161 56.6453 35.8773 56.3153 37.5937C55.9853 39.2547 54.7754 40.5281 53.1256 40.9157C52.4656 41.0818 51.8607 41.3032 51.5307 41.5247C50.5408 42.0784 49.7709 42.8535 49.2209 43.7947ZM57.8002 46.9506C57.6352 48.7223 56.2603 50.1618 54.5005 50.2726C52.2456 50.4387 50.4308 48.5562 50.5958 46.3416C50.7608 44.5698 52.1357 43.1303 53.8955 43.0196C56.0953 42.8535 57.9652 44.6806 57.8002 46.9506Z" fill="white"/>
<path d="M282 50V15H299.77V18.7598H285.565V30.5859H298.85V34.3457H285.565V46.2402H300V50H282Z" fill="#FF0000"/>
<path d="M251 50V15H261.559C263.663 15 265.398 15.4215 266.765 16.2646C268.131 17.0964 269.149 18.2186 269.817 19.6313C270.486 21.0327 270.82 22.5879 270.82 24.2969C270.82 25.8008 270.589 27.0426 270.127 28.0225C269.675 29.0023 269.075 29.777 268.328 30.3467C267.591 30.9163 266.789 31.3379 265.924 31.6113V31.9531C266.848 32.0215 267.777 32.3975 268.711 33.0811C269.645 33.7646 270.427 34.7445 271.056 36.0205C271.685 37.2965 272 38.8574 272 40.7031C272 42.4577 271.656 44.0356 270.968 45.437C270.279 46.8384 269.193 47.9492 267.709 48.7695C266.224 49.5898 264.292 50 261.913 50H251ZM254.657 46.2402H261.913C264.302 46.2402 265.998 45.7048 267.001 44.6338C268.013 43.5514 268.52 42.2412 268.52 40.7031C268.52 39.5182 268.259 38.4245 267.738 37.4219C267.217 36.4079 266.475 35.599 265.511 34.9951C264.548 34.3799 263.407 34.0723 262.09 34.0723H254.657V46.2402ZM254.657 30.3809H261.441C262.542 30.3809 263.535 30.1302 264.42 29.6289C265.315 29.1276 266.022 28.4212 266.544 27.5098C267.074 26.5983 267.34 25.5273 267.34 24.2969C267.34 22.7588 266.878 21.4543 265.954 20.3833C265.029 19.3009 263.565 18.7598 261.559 18.7598H254.657V30.3809Z" fill="#FF0000"/>
<path d="M237.04 15H240V38.4242C240 40.8426 239.606 43.0019 238.818 44.9021C238.039 46.7908 236.937 48.2822 235.513 49.3762C234.088 50.4587 232.418 51 230.5 51C228.582 51 226.912 50.4587 225.487 49.3762C224.063 48.2822 222.957 46.7908 222.17 44.9021C221.39 43.0019 221 40.8426 221 38.4242V15H223.96V38.0787C223.96 39.8061 224.222 41.3436 224.747 42.691C225.273 44.0269 226.021 45.0806 226.991 45.8522C227.97 46.6123 229.139 46.9923 230.5 46.9923C231.861 46.9923 233.03 46.6123 234.009 45.8522C234.987 45.0806 235.735 44.0269 236.253 42.691C236.778 41.3436 237.04 39.8061 237.04 38.0787V15Z" fill="#FF0000"/>
<path d="M188 18.7598V15H213V18.7598H202.518V50H198.482V18.7598H188Z" fill="#FF0000"/>
<path d="M180 31V35H165V31H180Z" fill="white"/>
<path d="M133 50V15H143.559C145.663 15 147.398 15.4215 148.765 16.2646C150.131 17.0964 151.149 18.2186 151.817 19.6313C152.486 21.0327 152.82 22.5879 152.82 24.2969C152.82 25.8008 152.589 27.0426 152.127 28.0225C151.675 29.0023 151.075 29.777 150.328 30.3467C149.591 30.9163 148.789 31.3379 147.924 31.6113V31.9531C148.848 32.0215 149.777 32.3975 150.711 33.0811C151.645 33.7646 152.427 34.7445 153.056 36.0205C153.685 37.2965 154 38.8574 154 40.7031C154 42.4577 153.656 44.0356 152.968 45.437C152.279 46.8384 151.193 47.9492 149.709 48.7695C148.224 49.5898 146.292 50 143.913 50H133ZM136.657 46.2402H143.913C146.302 46.2402 147.998 45.7048 149.001 44.6338C150.013 43.5514 150.52 42.2412 150.52 40.7031C150.52 39.5182 150.259 38.4245 149.738 37.4219C149.217 36.4079 148.475 35.599 147.511 34.9951C146.548 34.3799 145.407 34.0723 144.09 34.0723H136.657V46.2402ZM136.657 30.3809H143.441C144.542 30.3809 145.535 30.1302 146.42 29.6289C147.315 29.1276 148.022 28.4212 148.544 27.5098C149.074 26.5983 149.34 25.5273 149.34 24.2969C149.34 22.7588 148.878 21.4543 147.954 20.3833C147.029 19.3009 145.565 18.7598 143.559 18.7598H136.657V30.3809Z" fill="white"/>
<path d="M119.04 15H122V38.4242C122 40.8426 121.606 43.0019 120.818 44.9021C120.039 46.7908 118.937 48.2822 117.513 49.3762C116.088 50.4587 114.418 51 112.5 51C110.582 51 108.912 50.4587 107.487 49.3762C106.063 48.2822 104.957 46.7908 104.17 44.9021C103.39 43.0019 103 40.8426 103 38.4242V15H105.96V38.0787C105.96 39.8061 106.222 41.3436 106.747 42.691C107.273 44.0269 108.021 45.0806 108.991 45.8522C109.97 46.6123 111.139 46.9923 112.5 46.9923C113.861 46.9923 115.03 46.6123 116.009 45.8522C116.987 45.0806 117.735 44.0269 118.253 42.691C118.778 41.3436 119.04 39.8061 119.04 38.0787V15Z" fill="white"/>
<path d="M88.5501 24.2045C88.3957 22.4773 87.7692 21.1364 86.6707 20.1818C85.5723 19.2273 84.2249 18.75 82.6287 18.75C81.4616 18.75 80.4404 19 79.565 19.5C78.6983 20 78.0203 20.6875 77.5312 21.5625C77.0506 22.4375 76.8103 23.4318 76.8103 24.5455C76.8103 25.4773 76.9776 26.2784 77.3123 26.9489C77.6556 27.608 78.0933 28.1591 78.6253 28.6023C79.1574 29.0341 79.7152 29.392 80.2988 29.6761C80.8823 29.9489 81.4187 30.1705 81.9079 30.3409L84.5854 31.2955C85.2719 31.5341 86.0357 31.8636 86.8767 32.2841C87.7263 32.7045 88.5373 33.2784 89.3096 34.0057C90.0906 34.7216 90.7342 35.642 91.2405 36.767C91.7468 37.892 92 39.2727 92 40.9091C92 42.7955 91.6267 44.5 90.8801 46.0227C90.1421 47.5455 89.0608 48.7557 87.6362 49.6534C86.2202 50.5511 84.4995 51 82.4743 51C80.5863 51 78.9514 50.5966 77.5698 49.7898C76.1967 48.983 75.1154 47.858 74.3259 46.4148C73.5449 44.9716 73.103 43.2955 73 41.3864H76.2954C76.3812 42.7045 76.7159 43.7955 77.2995 44.6591C77.8916 45.5114 78.6382 46.1477 79.5393 46.5682C80.449 46.9773 81.4273 47.1818 82.4743 47.1818C83.6929 47.1818 84.787 46.9205 85.7568 46.3977C86.7265 45.8636 87.4946 45.125 88.061 44.1818C88.6274 43.2273 88.9106 42.1136 88.9106 40.8409C88.9106 39.6818 88.666 38.7386 88.1768 38.0114C87.6877 37.2841 87.044 36.6932 86.2459 36.2386C85.4478 35.7841 84.5854 35.3864 83.6585 35.0455L80.4146 33.8182C78.355 33.0341 76.7245 31.9148 75.523 30.4602C74.3216 29.0057 73.7209 27.1023 73.7209 24.75C73.7209 22.7955 74.1199 21.0909 74.918 19.6364C75.7247 18.1705 76.806 17.0341 78.1619 16.2273C79.5264 15.4091 81.0497 15 82.7317 15C84.4309 15 85.9413 15.4034 87.2629 16.2102C88.5845 17.0057 89.6314 18.0966 90.4038 19.483C91.1847 20.8693 91.5967 22.4432 91.6396 24.2045H88.5501Z" fill="white"/>
</svg>
