<svg xmlns="http://www.w3.org/2000/svg" width="80" height="80" viewBox="0 0 80 80" fill="none">
<path d="M64.87 23.1291L57.7766 13.3591C58.5929 13.2061 59.431 13.2061 60.2473 13.3591C61.3099 13.5356 62.3132 13.9653 63.1706 14.6113C64.028 15.2572 64.7138 16.0999 65.1687 17.0667C65.6237 18.0335 65.8343 19.0954 65.7822 20.1607C65.7302 21.226 65.4171 22.2628 64.87 23.1817V23.1291ZM68.0448 15.0159C68.3322 15.0159 68.6119 14.9236 68.8418 14.7529L79.4687 6.86331C79.6082 6.7597 79.7258 6.6299 79.8147 6.48131C79.9035 6.33272 79.962 6.16826 79.9866 5.99732C80.0113 5.82638 80.0017 5.6523 79.9584 5.48502C79.9151 5.31774 79.839 5.16054 79.7343 5.0224C79.6297 4.88425 79.4985 4.76787 79.3484 4.67989C79.1983 4.59191 79.0322 4.53406 78.8595 4.50964C78.5107 4.46032 78.1565 4.55017 77.8746 4.75941L67.2478 12.649C66.9659 12.8583 66.7796 13.1698 66.7298 13.515C66.6799 13.8602 66.7707 14.2109 66.9821 14.4899C67.1058 14.6532 67.2663 14.7858 67.4507 14.8771C67.6352 14.9684 67.8386 15.0159 68.0448 15.0159ZM63.8472 11.0711H64.0597C64.3781 11.0752 64.6874 10.9659 64.9312 10.7631C65.175 10.5604 65.3371 10.2777 65.3881 9.96655L66.7164 2.07694C66.7728 1.7282 66.6869 1.37158 66.4776 1.08552C66.2684 0.799469 65.9529 0.607418 65.6006 0.551619C65.2483 0.49582 64.888 0.580844 64.5991 0.787986C64.3101 0.995129 64.1161 1.30742 64.0597 1.65616L62.7313 9.54578C62.7011 9.71872 62.7061 9.8959 62.7461 10.0669C62.7862 10.2379 62.8603 10.3992 62.9643 10.5413C63.0683 10.6835 63.2 10.8036 63.3516 10.8946C63.5033 10.9856 63.6717 11.0456 63.8472 11.0711ZM26.9852 58.8295L18.3509 64.9834L27.6494 77.8041C28.1411 78.4832 28.7891 79.0366 29.5399 79.4185C30.2906 79.8004 31.1225 79.9997 31.9666 80C33.077 79.9995 34.1594 79.6546 35.0616 79.0138C36.2063 78.201 36.9781 76.9715 37.2072 75.5956C37.4364 74.2197 37.1042 72.81 36.2837 71.6765L26.9852 58.8295ZM22.4954 57.1727L21.7249 56.1076L11.656 42.2088C11.3955 41.8447 11.198 41.4404 11.0715 41.0122L4.42971 45.7459C2.72405 46.958 1.41932 48.6431 0.680203 50.5885C-0.0589156 52.5338 -0.199299 54.6524 0.276769 56.6767C0.752838 58.701 1.82402 60.5403 3.35513 61.9625C4.88623 63.3848 6.80864 64.3261 8.87971 64.6679C9.4542 64.7676 10.0366 64.816 10.6199 64.8125C12.8375 64.8168 14.9996 64.1263 16.7967 62.8401L23.4385 58.1063C23.0717 57.8518 22.7525 57.5359 22.4954 57.1727ZM79.1897 21.6695L69.8912 17.7247C69.5701 17.6042 69.2143 17.6115 68.8986 17.7451C68.5828 17.8787 68.3315 18.1281 68.1975 18.4411C68.0635 18.754 68.0571 19.1062 68.1797 19.4237C68.3023 19.7413 68.5443 19.9995 68.8551 20.1442L78.1536 24.089C78.3155 24.1671 78.4917 24.2118 78.6716 24.2205C78.9776 24.2199 79.274 24.1148 79.5107 23.9229C79.7474 23.731 79.91 23.4641 79.9709 23.1673C80.0318 22.8705 79.9873 22.5619 79.845 22.2938C79.7027 22.0257 79.4712 21.8145 79.1897 21.6958V21.6695ZM63.0369 25.1278L55.2925 14.4505L45.2236 0.551619C45.0945 0.372407 44.9221 0.228131 44.7221 0.132016C44.522 0.0359001 44.3009 -0.00898013 44.0788 0.00148852C43.8567 0.0119572 43.6408 0.0774399 43.4509 0.191934C43.261 0.306429 43.1032 0.466273 42.9919 0.656814C42.8857 0.827755 32.3651 18.6846 28.38 23.9049C26.2015 26.8503 20.2239 32.8859 16.6373 36.3705C15.309 37.6854 13.9806 39.0003 13.9806 39.0003C13.7536 39.2208 13.614 39.5145 13.5872 39.8282C13.5603 40.1419 13.6481 40.4547 13.8345 40.7097L24.6739 55.6606C24.7961 55.8305 24.9574 55.9692 25.1445 56.0652C25.3316 56.1613 25.5391 56.2119 25.7499 56.2128C25.9619 56.2103 26.1707 56.1609 26.3609 56.0682C26.3609 56.0682 27.9284 55.2661 29.7084 54.3982C34.1584 52.2023 41.9027 48.481 45.383 47.337C51.6263 45.2594 72.0963 41.1174 72.2955 41.0648C72.5117 41.0213 72.7136 40.9252 72.8829 40.7852C73.0522 40.6451 73.1836 40.4656 73.2652 40.2627C73.3586 40.0491 73.393 39.8149 73.365 39.5839C73.337 39.3529 73.2475 39.1333 73.1058 38.9477L63.0369 25.1278Z" fill="#01509A"/>
</svg>