<svg xmlns="http://www.w3.org/2000/svg" width="94" height="80" viewBox="0 0 94 80" fill="none">
<path d="M72.2279 25.0981C76.144 25.0981 79.3187 21.9378 79.3187 18.0393C79.3187 14.1408 76.144 10.9805 72.2279 10.9805C68.3118 10.9805 65.1372 14.1408 65.1372 18.0393C65.1372 21.9378 68.3118 25.0981 72.2279 25.0981Z" fill="#01509A"/>
<path d="M41.5016 9.41176C44.1123 9.41176 46.2287 7.30487 46.2287 4.70588C46.2287 2.1069 44.1123 0 41.5016 0C38.8908 0 36.7744 2.1069 36.7744 4.70588C36.7744 7.30487 38.8908 9.41176 41.5016 9.41176Z" fill="#01509A"/>
<path d="M88.1269 45.3968C71.0681 48.785 72.0924 48.6281 71.44 48.6281C69.7993 48.6292 68.2766 47.7792 67.4219 46.385L61.7021 37.1458L56.2816 45.2399L67.2486 50.6987C68.1621 51.1539 68.9029 51.8913 69.3601 52.8007L77.2387 68.487C78.0951 70.0001 78.0447 71.8599 77.1075 73.3248C76.1704 74.7898 74.4988 75.6218 72.7593 75.4892C71.0197 75.3565 69.4949 74.2808 68.7928 72.6909L61.6075 58.4164L49.38 52.3144L35.7343 59.1066C34.2638 59.8475 32.5102 59.7641 31.1174 58.887L18.5117 51.0438C16.9925 50.1943 16.0659 48.5817 16.1005 46.8474C16.1352 45.1131 17.1254 43.5385 18.6773 42.7497C20.2291 41.9609 22.0911 42.086 23.5225 43.0752L33.8749 49.5066C41.2808 45.8266 38.4445 47.2368 46.1497 43.4046C46.2459 43.2477 45.677 44.1011 56.2501 28.3301C56.1445 28.1732 56.9355 28.236 46.6067 28.236L40.1148 34.6987C38.6487 36.1558 36.4003 36.4928 34.5682 35.5301H34.5525V35.5144C33.2358 34.8121 32.3301 33.5315 32.1097 32.0607C31.8893 30.59 32.3803 29.102 33.4337 28.0477L41.3123 20.2046C42.2035 19.3301 43.4015 18.8351 44.6528 18.8242H58.8343C60.4784 18.8259 62.0046 19.6746 62.8681 21.0674L73.7406 38.6674L86.2675 36.1732C87.9458 35.7848 89.7035 36.3363 90.8549 37.6125C92.0062 38.8887 92.3689 40.6874 91.8013 42.307C91.2337 43.9266 89.8258 45.1105 88.1269 45.3968Z" fill="#01509A"/>
<path d="M40.871 16.658C40.2136 17.0109 39.6134 17.4604 39.0905 17.9914L35.6869 21.3796L33.6385 18.0698L29.6992 23.9678L31.9682 25.0816L31.2119 25.8345C29.7723 27.2753 28.948 29.2144 28.9113 31.2463L24.6569 29.1286L14.7141 34.0855C13.6387 34.6183 12.3629 34.559 11.3421 33.9286L2.15567 28.2031C1.09479 27.5606 0.462994 26.3997 0.50168 25.1641C0.540365 23.9285 1.24355 22.809 2.34257 22.2335C3.44158 21.658 4.76659 21.7153 5.81133 22.3835L13.359 27.0894L22.2933 22.6345L29.6677 11.6384L29.6362 11.56H22.64L17.9128 16.2816C17.0431 17.1502 15.7739 17.4909 14.5833 17.1754C13.3928 16.8599 12.4618 15.9361 12.141 14.7519C11.8202 13.5677 12.1584 12.3031 13.0281 11.4345L18.7795 5.709C19.4285 5.06649 20.3065 4.7056 21.2218 4.70508H31.5586C32.7543 4.70316 33.8648 5.3213 34.4894 6.33646L40.871 16.658Z" fill="#01509A"/>
<path d="M44.5738 40.0942L43.9908 40.9726L38.6334 43.6393L36.4116 39.2001C36.532 39.2131 36.653 39.2183 36.774 39.2157C38.8645 39.2248 40.8702 38.3933 42.3363 36.9099L42.7618 36.4863L44.5738 40.0942Z" fill="#01509A"/>
<path d="M91.9245 80.0005H39.9258C39.0556 80.0005 38.3501 79.2982 38.3501 78.4319C38.3501 77.5656 39.0556 76.8633 39.9258 76.8633H91.9245C92.7947 76.8633 93.5002 77.5656 93.5002 78.4319C93.5002 79.2982 92.7947 80.0005 91.9245 80.0005Z" fill="#01509A"/>
<path d="M33.6227 80.0005H30.4712C29.601 80.0005 28.8955 79.2982 28.8955 78.4319C28.8955 77.5656 29.601 76.8633 30.4712 76.8633H33.6227C34.4929 76.8633 35.1984 77.5656 35.1984 78.4319C35.1984 79.2982 34.4929 80.0005 33.6227 80.0005Z" fill="#01509A"/>
</svg>