<svg xmlns="http://www.w3.org/2000/svg" width="94" height="80" viewBox="0 0 94 80" fill="none">
<path d="M82.9318 23.2852H44.8863C42.0845 23.2885 39.3984 24.4047 37.4172 26.3888C35.436 28.3729 34.3215 31.0629 34.3181 33.8688V59.2697C34.3215 62.0756 35.436 64.7656 37.4172 66.7497C39.3984 68.7338 42.0845 69.85 44.8863 69.8533H66.2045L75.4051 79.0696C75.8485 79.514 76.4136 79.8166 77.0288 79.9392C77.644 80.0618 78.2817 79.999 78.8612 79.7585C79.4407 79.5181 79.936 79.1109 80.2843 78.5885C80.6327 78.0661 80.8185 77.4519 80.8182 76.8238V69.8533H82.9318C85.7336 69.85 88.4198 68.7338 90.4009 66.7497C92.3821 64.7656 93.4966 62.0756 93.5 59.2697V33.8688C93.4966 31.0629 92.3821 28.3729 90.4009 26.3888C88.4198 24.4047 85.7336 23.2885 82.9318 23.2852ZM74.4773 43.3941H73.2957C72.8072 47.7647 70.8193 51.8301 67.6713 54.8965C69.4876 55.6793 71.4431 56.0868 73.4204 56.0946C73.989 56.0915 74.5363 56.3112 74.9454 56.7067C75.3545 57.1022 75.5931 57.6421 75.6102 58.2113C75.6186 58.4853 75.5722 58.7583 75.4736 59.0141C75.3751 59.2699 75.2263 59.5033 75.0362 59.7006C74.8461 59.8979 74.6185 60.055 74.3668 60.1628C74.115 60.2706 73.8443 60.3268 73.5705 60.328C70.1918 60.3188 66.8747 59.4209 63.9513 57.7244C61.0548 59.428 57.7568 60.3268 54.3977 60.328C53.8291 60.3311 53.2818 60.1114 52.8727 59.7159C52.4636 59.3204 52.225 58.7805 52.208 58.2113C52.1995 57.9373 52.2459 57.6643 52.3445 57.4085C52.443 57.1527 52.5918 56.9193 52.7819 56.722C52.972 56.5247 53.1996 56.3675 53.4514 56.2598C53.7031 56.152 53.9738 56.0958 54.2476 56.0946C56.2899 56.097 58.3113 55.6837 60.1891 54.8796C58.5503 53.3188 57.2076 51.4735 56.226 49.4332C56.0967 49.181 56.0193 48.9053 55.9984 48.6225C55.9775 48.3397 56.0135 48.0556 56.1044 47.7871C56.1953 47.5185 56.3391 47.271 56.5273 47.0592C56.7155 46.8473 56.9443 46.6756 57.2001 46.554C57.4559 46.4324 57.7335 46.3636 58.0164 46.3515C58.2992 46.3395 58.5816 46.3844 58.8468 46.4838C59.112 46.5831 59.3546 46.7348 59.5601 46.9299C59.7656 47.1249 59.9299 47.3593 60.0432 47.6192C60.955 49.537 62.2693 51.2351 63.8964 52.5977C66.6803 50.268 68.5065 46.9903 69.0241 43.3941H53.3409C52.7803 43.3941 52.2427 43.1711 51.8463 42.7742C51.4499 42.3772 51.2272 41.8388 51.2272 41.2774C51.2272 40.716 51.4499 40.1776 51.8463 39.7807C52.2427 39.3837 52.7803 39.1607 53.3409 39.1607H61.7954V34.9272C61.7954 34.3658 62.0181 33.8274 62.4145 33.4304C62.8109 33.0335 63.3485 32.8105 63.9091 32.8105C64.4696 32.8105 65.0072 33.0335 65.4036 33.4304C65.8 33.8274 66.0227 34.3658 66.0227 34.9272V39.1607H74.4773C75.0378 39.1607 75.5754 39.3837 75.9718 39.7807C76.3682 40.1776 76.5909 40.716 76.5909 41.2774C76.5909 41.8388 76.3682 42.3772 75.9718 42.7742C75.5754 43.1711 75.0378 43.3941 74.4773 43.3941Z" fill="#01509A"/>
<path d="M30.0898 17.8184L26.6467 25.4026H32.7615C32.9137 25.191 33.0764 24.9793 33.2413 24.7676L30.0898 17.8184Z" fill="#01509A"/>
<path d="M49.1137 0H11.0682C8.26637 0.00336108 5.58025 1.1195 3.59906 3.1036C1.61787 5.0877 0.503356 7.77775 0.5 10.5837V35.9845C0.503356 38.7904 1.61787 41.4805 3.59906 43.4646C5.58025 45.4487 8.26637 46.5648 11.0682 46.5682H13.1818V53.5386C13.1815 54.1668 13.3673 54.7809 13.7157 55.3034C14.064 55.8258 14.5593 56.2329 15.1388 56.4734C15.7183 56.7138 16.356 56.7767 16.9712 56.6541C17.5864 56.5314 18.1515 56.2288 18.5949 55.7845L27.7955 46.5682H30.0909V33.8678C30.0952 32.4332 30.3089 31.007 30.725 29.6343H24.7265L21.4462 36.8608C21.2062 37.3591 20.781 37.7434 20.2616 37.9317C19.7422 38.1199 19.1699 38.097 18.6671 37.868C18.1644 37.6389 17.7711 37.2218 17.5715 36.706C17.372 36.1902 17.382 35.6167 17.5993 35.1082L28.1675 11.8241C28.3357 11.4545 28.6064 11.1412 28.9474 10.9215C29.2885 10.7018 29.6854 10.585 30.0909 10.585C30.4965 10.585 30.8934 10.7018 31.2345 10.9215C31.5755 11.1412 31.8462 11.4545 32.0144 11.8241L36.4889 21.6817C38.954 19.9663 41.8846 19.0481 44.8864 19.0506H59.6819V10.5837C59.6785 7.77775 58.564 5.0877 56.5828 3.1036C54.6016 1.1195 51.9155 0.00336108 49.1137 0Z" fill="#01509A"/>
</svg>