<svg xmlns="http://www.w3.org/2000/svg" width="88" height="80" viewBox="0 0 88 80" fill="none">
<path d="M0.5 52.4206L11.4194 50.502L16.2214 78.0819L5.30201 80.0005L0.5 52.4206Z" fill="#01509A"/>
<path d="M20.549 72.3469C22.4488 70.7818 24.88 70.0208 27.3286 70.2254L49.8503 71.9344H49.9215C54.1962 71.9061 58.3542 70.5306 61.8094 68.0032L87.4999 42.7037C85.4428 41.2433 82.6764 41.3132 80.6954 42.8758L80.6656 42.8991L67.8788 52.5046C68.1983 53.2681 68.4309 54.064 68.5741 54.8798C68.7148 55.6898 68.1751 56.4625 67.368 56.6038L46.6194 60.2506C46.5342 60.2647 46.4481 60.2722 46.362 60.2714C45.5905 60.2739 44.9456 59.6818 44.8794 58.9092C44.8132 58.1374 45.3471 57.443 46.1079 57.3124L65.2605 53.9467C63.8971 50.3083 60.153 48.1576 56.341 48.8229L43.7189 51.0409C41.2355 51.4742 38.6867 51.3403 36.2621 50.6509L34.8499 50.2467C27.8774 48.2366 20.3685 50.2259 15.29 55.4304L18.5226 73.9952L20.549 72.3469Z" fill="#01509A"/>
<path d="M48.4579 39.8692C59.417 39.8692 68.3 30.9448 68.3 19.9346C68.3 8.92524 59.417 0 48.4579 0C37.4996 0 28.6157 8.92524 28.6157 19.9346C28.6281 30.9398 37.5045 39.8575 48.4579 39.8692ZM45.6947 9.21465C45.6947 8.39132 46.3594 7.72434 47.1781 7.72434C47.9976 7.72434 48.6615 8.39132 48.6615 9.21465V20.4128H56.7573C57.576 20.4128 58.2407 21.0806 58.2407 21.9031C58.2407 22.7264 57.576 23.3934 56.7573 23.3934H47.2725C46.453 23.3934 45.6947 22.5451 45.6947 21.7218V9.21465Z" fill="#01509A"/>
</svg>