<svg xmlns="http://www.w3.org/2000/svg" width="70" height="80" viewBox="0 0 70 80" fill="none">
<path d="M63.4221 25.3609C60.6537 25.3609 58.3161 27.2183 57.5851 29.7486L41.9098 26.5505C42.1239 24.5841 41.6787 22.5873 40.6495 20.8924L51.5945 12.0911C52.7688 13.0427 54.264 13.6156 55.8914 13.6156C59.6558 13.6156 62.7178 10.562 62.7178 6.80844C62.7178 3.05422 59.6558 0 55.892 0C52.1283 0 49.0656 3.05422 49.0656 6.8078C49.0656 7.92394 49.3416 8.97556 49.8213 9.90653L38.836 18.7395C35.3053 15.6743 29.8719 15.8421 26.5371 19.1118L18.701 11.1478C19.6045 10.0898 20.1526 8.72201 20.1526 7.22651C20.1526 3.88455 17.4265 1.16517 14.0754 1.16517C10.7244 1.16517 7.99757 3.8839 7.99757 7.22651C7.99757 10.5685 10.7244 13.2872 14.0754 13.2872C14.8995 13.2872 15.6846 13.1214 16.4019 12.824L24.8427 21.4028C23.8786 23.2524 23.5922 25.3834 24.0238 27.4202L12.6433 33.4358C11.3909 31.8848 9.47456 30.888 7.32644 30.888C3.56204 30.8874 0.5 33.9416 0.5 37.6951C0.5 41.4487 3.56204 44.5023 7.32644 44.5023C11.0908 44.5023 14.1529 41.4487 14.1529 37.6951C14.1529 37.0893 14.0657 36.5042 13.9159 35.9448L25.0438 30.0628C25.6095 31.0403 26.3451 31.9177 27.2408 32.6293V26.6512C27.2408 23.3234 29.948 20.6157 33.275 20.6157C36.2329 20.6157 38.9271 23.0266 38.9271 25.6738V32.3087C39.8892 31.4603 40.6502 30.4241 41.1703 29.2699L57.4608 32.5932C58.0102 35.3758 60.4734 37.4822 63.4221 37.4822C66.7732 37.4822 69.5 34.7635 69.5 31.4215C69.5 28.0796 66.7732 25.3609 63.4221 25.3609Z" fill="#01509A"/>
<path d="M59.3766 47.3001C57.7681 47.3001 56.4604 48.6104 56.4604 50.2208V55.0053C56.4604 55.7363 55.8654 56.3312 55.1338 56.3312C54.4021 56.3312 53.8065 55.7363 53.8065 55.0053V46.7556C53.8065 44.7917 52.211 43.1943 50.2497 43.1943C48.6412 43.1943 47.3328 44.5046 47.3328 46.1149V50.9318C47.3328 51.6627 46.7372 52.2576 46.0056 52.2576C45.2739 52.2576 44.679 51.6627 44.679 50.9318V43.0594C44.679 41.4491 43.3706 40.1394 41.7621 40.1394C40.1536 40.1394 38.8452 41.4497 38.8452 43.0594V46.4053C38.8452 47.1362 38.2502 47.7311 37.5186 47.7311C36.7869 47.7311 36.1919 47.1369 36.1919 46.4053V25.6735C36.1919 24.7367 34.9669 23.3477 33.2751 23.3477C31.4557 23.3477 29.9754 24.8296 29.9754 26.6509V55.6447C29.9754 56.2499 29.566 56.7776 28.9801 56.9286C28.3923 57.0802 27.7805 56.8157 27.4875 56.2873L24.8317 51.495C24.2777 50.4956 23.2245 49.875 22.0814 49.875C21.5639 49.875 21.051 50.0059 20.5979 50.2543C19.1333 51.0569 18.5423 52.8795 19.2544 54.4053L30.4415 76.381C31.5781 78.6133 33.8388 79.9997 36.3417 79.9997H49.5031C56.7715 79.9997 62.6847 74.0829 62.6847 66.8093V50.6111C62.684 48.7853 61.2005 47.3001 59.3766 47.3001Z" fill="#01509A"/>
</svg>