<svg xmlns="http://www.w3.org/2000/svg" width="104" height="80" viewBox="0 0 104 80" fill="none">
<path d="M30.9596 55.9469C31.0804 55.7549 32.0944 54.1584 33.8827 51.9095L25.3621 49.778L20.0345 42.6669V39.1113H25.3621L28.9138 33.778L31.8156 26.5158C28.2106 27.4136 26.1097 28.2811 26.06 28.3007L24.6624 25.0331C24.8808 24.9389 27.1859 23.9807 31.0626 23.0171L27.1379 17.778L23.5862 7.11133L14.7069 17.778H2.27586L0.5 21.3335V28.4447H7.60345L14.7069 51.5558L23.5862 60.4447V80.0002L28.9138 78.2224L39.569 53.3335L37.7168 52.8695C35.3335 55.6909 34.0052 57.778 33.9715 57.8313L30.9596 55.9469Z" fill="#01509A"/>
<path d="M103.5 24.8882V19.5549L85.7414 10.666H80.4138L73.1914 14.6091C79.5259 21.0749 82.6124 29.274 83.5642 32.2038C85.111 32.4989 88.0021 33.1976 91.069 34.6447V28.4438L103.5 24.8882Z" fill="#01509A"/>
<path d="M81.7545 35.503C81.6603 35.4799 71.7457 33.1546 56.1749 38.9999C51.5098 40.751 47.443 43.5297 44.0938 46.4186L51.9999 48.0008V55.1119L55.5516 60.4452H59.1033L62.6551 49.7786V42.6675H67.9827L71.5344 48.0008L76.862 42.6675L78.6378 46.223V51.5563L92.8447 55.1119L87.5171 48.0008L85.7413 42.6675L90.2058 38.1981C86.084 36.095 82.0422 35.551 81.9693 35.5421L81.7545 35.503Z" fill="#01509A"/>
<path d="M78.3538 28.6989C76.688 25.0455 73.9496 20.2633 69.9184 16.3984L60.8793 21.3335L55.5517 17.778H50.2241V21.0082C51.9982 21.0544 53.8256 21.1522 55.7293 21.3424C66.3312 22.4038 73.8395 25.8935 78.3538 28.6989Z" fill="#01509A"/>
<path d="M41.3447 32.0002L48.4482 35.5558L39.5688 40.8891L41.5614 43.8811C45.2125 40.7096 49.7037 37.6304 54.9283 35.6696C63.9639 32.2793 71.1952 31.4669 76.0042 31.4544C71.7901 28.9282 64.8962 25.8349 55.3758 24.882C53.2625 24.6704 51.2256 24.5638 49.2757 24.5371L46.6723 28.4447L41.3447 32.0002Z" fill="#01509A"/>
<path d="M93.2318 64.6707C93.2549 64.6404 93.9794 63.7124 94.8958 62.2227H89.2929L83.9653 65.7782V71.1115L91.0688 69.3338L99.9481 72.8893V67.556L97.7886 64.3133C96.8528 65.8067 96.1105 66.7613 96.0092 66.8875L93.2318 64.6707Z" fill="#01509A"/>
<path d="M38.1413 8.85333L37.4434 5.36711C37.779 5.29956 41.5065 4.58489 46.6708 4.61689V0H36.0156H30.688V8.88889L34.2397 10.6667L39.5673 19.5556L46.6708 8.88889V8.20444C41.7569 8.16711 38.2194 8.83911 38.1413 8.85333Z" fill="#01509A"/>
<path d="M90.2061 38.1967C93.5074 39.8803 96.8584 42.5612 98.2631 46.7834C100.128 52.3852 96.997 58.8029 94.8943 62.2216H96.3967L97.789 64.3123C100.222 60.4331 104.01 52.7976 101.634 45.6598C99.7424 39.978 95.2424 36.6145 91.0691 34.6465V37.3327L90.2061 38.1967Z" fill="#01509A"/>
<path d="M69.0145 10.9978C61.8418 5.86714 53.1312 4.65825 46.6724 4.61914V8.20492C52.6108 8.24759 60.5667 9.32847 66.9509 13.892C68.02 14.6565 68.9914 15.5116 69.9184 16.3987L73.1931 14.6103C71.9287 13.3214 70.5471 12.0929 69.0145 10.9978Z" fill="#01509A"/>
<path d="M41.5616 43.8809C38.2781 46.7324 35.6818 49.6515 33.8828 51.9111L37.7169 52.8711C39.3578 50.928 41.5101 48.6453 44.094 46.4178L43.1208 46.2222L41.5616 43.8809Z" fill="#01509A"/>
<path d="M31.8155 26.5162C35.9106 25.4975 41.9539 24.4397 49.2757 24.5357L50.2241 23.1117V21.0086C42.1723 20.7971 35.5519 21.9028 31.0625 23.0175L32.4654 24.8895L31.8155 26.5162Z" fill="#01509A"/>
</svg>