<svg xmlns="http://www.w3.org/2000/svg" width="20" height="20" viewBox="0 0 20 20" fill="none">
  <path fill-rule="evenodd" clip-rule="evenodd" d="M15.8752 10.8974C17.725 10.8974 19.2301 9.3983 19.2301 7.55532C19.2301 5.8217 17.8714 4.3583 16.1365 4.2234C16.0058 4.21319 15.9037 4.10553 15.9011 3.97447C15.8611 2.12894 14.3207 0.627659 12.4671 0.627659C11.5518 0.627659 10.6905 0.982128 10.0424 1.62553C9.9854 1.68213 9.90498 1.70851 9.8254 1.69702C9.74583 1.68553 9.67647 1.63702 9.63817 1.56638C9.11264 0.6 8.10115 0 6.99902 0C5.3454 0 3.99944 1.34043 3.99944 2.98766C3.99944 3.29489 4.04625 3.59787 4.13817 3.88851C4.162 3.9634 4.14966 4.04511 4.1054 4.10979C4.06072 4.17447 3.98923 4.21532 3.91093 4.22043C2.15008 4.33234 0.770508 5.79745 0.770508 7.55532C0.770508 9.3983 2.27561 10.8974 4.1254 10.8974H15.8752ZM13.7365 11.4208V14.1345C13.7365 14.2753 13.8505 14.3898 13.9918 14.3898H15.8292C15.9403 14.7749 16.2965 15.0579 16.7177 15.0579C17.2275 15.0579 17.642 14.6438 17.642 14.1349C17.642 13.626 17.2275 13.2115 16.7177 13.2115C16.2965 13.2115 15.9403 13.494 15.8292 13.8796H14.2475V11.4213L13.7365 11.4208ZM12.2263 11.4208H12.7369V17.1557C13.4071 17.2766 13.9177 17.863 13.9177 18.5664C13.9177 19.357 13.2735 20 12.4816 20C11.6897 20 11.0454 19.357 11.0454 18.5664C11.0454 17.863 11.556 17.2766 12.2263 17.1557V11.4208ZM7.85902 13.8268C7.0671 13.8268 6.42285 14.4698 6.42285 15.2604C6.42285 16.0506 7.0671 16.694 7.85902 16.694C8.5637 16.694 9.15093 16.1851 9.27178 15.5157H11.1016C11.2424 15.5157 11.3569 15.4013 11.3569 15.2604V11.4213H10.8463V15.0051H9.27178C9.15093 14.3362 8.5637 13.8268 7.85902 13.8268ZM5.1603 11.4208H5.67093V17.1557C6.34115 17.2766 6.85178 17.863 6.85178 18.5664C6.85178 19.357 6.20753 20 5.41561 20C4.6237 20 3.97944 19.357 3.97944 18.5664C3.97944 17.863 4.48966 17.2766 5.1603 17.1557V11.4208ZM3.53859 14.0217V11.377C3.36455 11.3506 3.19391 11.3123 3.02795 11.2634V14.0217C2.642 14.1328 2.35902 14.4881 2.35902 14.9085C2.35902 15.4174 2.77391 15.8315 3.2837 15.8315C3.79349 15.8315 4.20838 15.4174 4.20838 14.9085C4.20795 14.4877 3.92455 14.1323 3.53859 14.0217Z" fill="#FFB765"/>
</svg>