<svg xmlns="http://www.w3.org/2000/svg" width="20" height="20" viewBox="0 0 20 20" fill="none">
<path fill-rule="evenodd" clip-rule="evenodd" d="M15.8747 10.8974C17.7245 10.8974 19.2296 9.3983 19.2296 7.55532C19.2296 5.8217 17.8709 4.3583 16.136 4.2234C16.0053 4.21319 15.9032 4.10553 15.9007 3.97447C15.8607 2.12894 14.3202 0.627659 12.4666 0.627659C11.5513 0.627659 10.69 0.982128 10.0419 1.62553C9.98491 1.68213 9.90449 1.70851 9.82491 1.69702C9.74534 1.68553 9.67598 1.63702 9.63768 1.56638C9.11215 0.6 8.10066 0 6.99853 0C5.34491 0 3.99896 1.34043 3.99896 2.98766C3.99896 3.29489 4.04576 3.59787 4.13768 3.88851C4.16151 3.9634 4.14917 4.04511 4.10491 4.10979C4.06023 4.17447 3.98874 4.21532 3.91044 4.22043C2.14959 4.33234 0.77002 5.79745 0.77002 7.55532C0.77002 9.3983 2.27513 10.8974 4.12491 10.8974H15.8747ZM13.736 11.4208V14.1345C13.736 14.2753 13.85 14.3898 13.9913 14.3898H15.8287C15.9398 14.7749 16.296 15.0579 16.7173 15.0579C17.227 15.0579 17.6415 14.6438 17.6415 14.1349C17.6415 13.626 17.227 13.2115 16.7173 13.2115C16.296 13.2115 15.9398 13.494 15.8287 13.8796H14.247V11.4213L13.736 11.4208ZM12.2258 11.4208H12.7364V17.1557C13.4066 17.2766 13.9173 17.863 13.9173 18.5664C13.9173 19.357 13.273 20 12.4811 20C11.6892 20 11.0449 19.357 11.0449 18.5664C11.0449 17.863 11.5556 17.2766 12.2258 17.1557V11.4208ZM7.85853 13.8268C7.06662 13.8268 6.42236 14.4698 6.42236 15.2604C6.42236 16.0506 7.06662 16.694 7.85853 16.694C8.56321 16.694 9.15044 16.1851 9.2713 15.5157H11.1011C11.2419 15.5157 11.3564 15.4013 11.3564 15.2604V11.4213H10.8458V15.0051H9.2713C9.15044 14.3362 8.56321 13.8268 7.85853 13.8268ZM5.15981 11.4208H5.67044V17.1557C6.34066 17.2766 6.8513 17.863 6.8513 18.5664C6.8513 19.357 6.20704 20 5.41513 20C4.62321 20 3.97896 19.357 3.97896 18.5664C3.97896 17.863 4.48917 17.2766 5.15981 17.1557V11.4208ZM3.5381 14.0217V11.377C3.36406 11.3506 3.19342 11.3123 3.02747 11.2634V14.0217C2.64151 14.1328 2.35853 14.4881 2.35853 14.9085C2.35853 15.4174 2.77342 15.8315 3.28321 15.8315C3.793 15.8315 4.20789 15.4174 4.20789 14.9085C4.20747 14.4877 3.92406 14.1323 3.5381 14.0217Z" fill="white" fill-opacity="0.7"/>
</svg>