<svg xmlns="http://www.w3.org/2000/svg" width="20" height="20" viewBox="0 0 20 20" fill="none">
<path d="M9.99978 9.63402C11.3233 9.63402 12.4694 9.15932 13.4058 8.22275C14.3422 7.28632 14.8169 6.14055 14.8169 4.81686C14.8169 3.49363 14.3422 2.3477 13.4057 1.41097C12.4691 0.474697 11.3232 0 9.99978 0C8.67609 0 7.53032 0.474697 6.59389 1.41112C5.65747 2.34755 5.18262 3.49347 5.18262 4.81686C5.18262 6.14055 5.65747 7.28647 6.59404 8.2229C7.53062 9.15917 8.67655 9.63402 9.99978 9.63402Z" fill="white" fill-opacity="0.7"/>
<path d="M18.3028 15.352C18.2758 14.9623 18.2211 14.5372 18.1407 14.0883C18.0595 13.636 17.955 13.2084 17.8299 12.8177C17.7007 12.4138 17.5249 12.0149 17.3076 11.6327C17.0821 11.2359 16.8172 10.8905 16.5199 10.6062C16.2091 10.3088 15.8286 10.0697 15.3885 9.89532C14.95 9.72183 14.464 9.63394 13.9441 9.63394C13.74 9.63394 13.5425 9.71771 13.1612 9.96597C12.9265 10.119 12.652 10.296 12.3456 10.4918C12.0836 10.6587 11.7287 10.8151 11.2903 10.9567C10.8626 11.0951 10.4284 11.1653 9.99975 11.1653C9.57114 11.1653 9.13703 11.0951 8.70887 10.9567C8.27095 10.8153 7.91603 10.6589 7.65434 10.4919C7.35085 10.298 7.07619 10.121 6.838 9.96582C6.45715 9.71756 6.25955 9.63379 6.05539 9.63379C5.53537 9.63379 5.04953 9.72183 4.61115 9.89548C4.1714 10.0696 3.79069 10.3087 3.47957 10.6064C3.18248 10.8908 2.91744 11.2361 2.69222 11.6327C2.47509 12.0149 2.29931 12.4136 2.16992 12.8178C2.04495 13.2086 1.94043 13.636 1.85925 14.0883C1.77884 14.5366 1.72421 14.9618 1.6972 15.3524C1.67065 15.7351 1.65723 16.1323 1.65723 16.5335C1.65723 17.5775 1.9891 18.4226 2.64355 19.0459C3.2899 19.661 4.14515 19.9731 5.18518 19.9731H14.8152C15.8553 19.9731 16.7102 19.6612 17.3567 19.0459C18.0113 18.4231 18.3432 17.5778 18.3432 16.5333C18.343 16.1303 18.3295 15.7328 18.3028 15.352Z" fill="white" fill-opacity="0.7"/>
</svg>