<svg xmlns="http://www.w3.org/2000/svg" width="69" height="68" viewBox="0 0 69 68" fill="none">
    <g clip-path="url(#clip0_674_2511)">
        <path
            d="M10.6362 8.83398C9.97913 8.83398 9.39144 9.22015 9.13896 9.81792L5.40879 18.6467C5.19735 19.1471 5.43774 19.7216 5.94549 19.9299C6.45309 20.1383 7.03654 19.9014 7.24798 19.401L8.31871 16.8669H12.9539L14.0246 19.401C14.1838 19.7781 14.5543 20.0056 14.9446 20.0056C15.0722 20.0056 15.202 19.9812 15.3271 19.9299C15.8348 19.7216 16.0752 19.1471 15.8638 18.6467L12.1335 9.81779C11.8809 9.22015 11.2933 8.83398 10.6362 8.83398ZM9.14786 14.904L10.6362 11.3814L12.1245 14.904H9.14786Z"
            fill="white" />
        <path
            d="M46.9949 7.80713H26.415C25.8648 7.80713 25.4189 8.24655 25.4189 8.78857C25.4189 9.33059 25.8648 9.77002 26.415 9.77002H46.9949C47.5451 9.77002 47.991 9.33059 47.991 8.78857C47.991 8.24655 47.5451 7.80713 46.9949 7.80713Z"
            fill="white" />
        <path
            d="M19.3301 9.77002H23.4827C24.033 9.77002 24.4788 9.33059 24.4788 8.78857C24.4788 8.24655 24.033 7.80713 23.4827 7.80713H19.3301C18.7798 7.80713 18.334 8.24655 18.334 8.78857C18.334 9.33059 18.78 9.77002 19.3301 9.77002Z"
            fill="white" />
        <path
            d="M46.9946 11.5615H36.3184C35.7681 11.5615 35.3223 12.0009 35.3223 12.543C35.3223 13.085 35.7681 13.5244 36.3184 13.5244H46.9946C47.5449 13.5244 47.9907 13.085 47.9907 12.543C47.9907 12.0009 47.5449 11.5615 46.9946 11.5615Z"
            fill="white" />
        <path
            d="M19.3301 13.5244H33.1621C33.7123 13.5244 34.1582 13.085 34.1582 12.543C34.1582 12.0009 33.7123 11.5615 33.1621 11.5615H19.3301C18.7798 11.5615 18.334 12.0009 18.334 12.543C18.334 13.085 18.78 13.5244 19.3301 13.5244Z"
            fill="white" />
        <path
            d="M46.9946 15.3154H43.0176C42.4673 15.3154 42.0215 15.7549 42.0215 16.2969C42.0215 16.8389 42.4673 17.2783 43.0176 17.2783H46.9946C47.5449 17.2783 47.9907 16.8389 47.9907 16.2969C47.9907 15.7549 47.5449 15.3154 46.9946 15.3154Z"
            fill="white" />
        <path
            d="M19.3301 17.2783H39.9977C40.5479 17.2783 40.9938 16.8389 40.9938 16.2969C40.9938 15.7549 40.5479 15.3154 39.9977 15.3154H19.3301C18.7798 15.3154 18.334 15.7549 18.334 16.2969C18.334 16.8389 18.78 17.2783 19.3301 17.2783Z"
            fill="white" />
        <path
            d="M46.9949 19.0693H29.8291C29.2789 19.0693 28.833 19.5088 28.833 20.0508C28.833 20.5928 29.2789 21.0322 29.8291 21.0322H46.9949C47.5451 21.0322 47.9909 20.5928 47.9909 20.0508C47.9909 19.5088 47.5451 19.0693 46.9949 19.0693Z"
            fill="white" />
        <path
            d="M19.3301 21.0322H26.904C27.4542 21.0322 27.9001 20.5928 27.9001 20.0508C27.9001 19.5088 27.4542 19.0693 26.904 19.0693H19.3301C18.7798 19.0693 18.334 19.5088 18.334 20.0508C18.334 20.5928 18.78 21.0322 19.3301 21.0322Z"
            fill="white" />
        <path
            d="M62.6716 42.4746H42.0918C41.5416 42.4746 41.0957 42.9139 41.0957 43.4561C41.0957 43.9982 41.5416 44.4375 42.0918 44.4375H62.6716C63.2219 44.4375 63.6677 43.9982 63.6677 43.4561C63.6677 42.9139 63.2219 42.4746 62.6716 42.4746Z"
            fill="white" />
        <path
            d="M35.0078 44.4375H39.1605C39.7107 44.4375 40.1566 43.9982 40.1566 43.4561C40.1566 42.9139 39.7107 42.4746 39.1605 42.4746H35.0078C34.4576 42.4746 34.0117 42.9139 34.0117 43.4561C34.0117 43.9982 34.4577 44.4375 35.0078 44.4375Z"
            fill="white" />
        <path
            d="M62.6714 46.2285H51.9951C51.4449 46.2285 50.999 46.6678 50.999 47.21C50.999 47.7521 51.4449 48.1914 51.9951 48.1914H62.6714C63.2216 48.1914 63.6675 47.7521 63.6675 47.21C63.6675 46.6678 63.2216 46.2285 62.6714 46.2285Z"
            fill="white" />
        <path
            d="M35.0078 48.1914H48.84C49.3902 48.1914 49.8361 47.7521 49.8361 47.21C49.8361 46.6678 49.3902 46.2285 48.84 46.2285H35.0078C34.4576 46.2285 34.0117 46.6678 34.0117 47.21C34.0117 47.7521 34.4577 48.1914 35.0078 48.1914Z"
            fill="white" />
        <path
            d="M62.6714 49.9824H58.6943C58.1441 49.9824 57.6982 50.4217 57.6982 50.9639C57.6982 51.506 58.1441 51.9453 58.6943 51.9453H62.6714C63.2216 51.9453 63.6675 51.506 63.6675 50.9639C63.6675 50.4217 63.2216 49.9824 62.6714 49.9824Z"
            fill="white" />
        <path
            d="M56.6717 50.9639C56.6717 50.4217 56.2258 49.9824 55.6756 49.9824H35.0078C34.4576 49.9824 34.0117 50.4217 34.0117 50.9639C34.0117 51.506 34.4576 51.9453 35.0078 51.9453H55.6754C56.2257 51.9453 56.6717 51.506 56.6717 50.9639Z"
            fill="white" />
        <path
            d="M45.5059 55.6997H62.6716C63.2218 55.6997 63.6677 55.2604 63.6677 54.7183C63.6677 54.1761 63.2218 53.7368 62.6716 53.7368H45.5059C44.9556 53.7368 44.5098 54.1761 44.5098 54.7183C44.5098 55.2604 44.9557 55.6997 45.5059 55.6997Z"
            fill="white" />
        <path
            d="M35.0078 53.7368C34.4576 53.7368 34.0117 54.1761 34.0117 54.7183C34.0117 55.2604 34.4576 55.6997 35.0078 55.6997H42.5818C43.1321 55.6997 43.5779 55.2604 43.5779 54.7183C43.5779 54.1761 43.1321 53.7368 42.5818 53.7368H35.0078Z"
            fill="white" />
        <path
            d="M30.3114 46.6536H31.1387C31.6889 46.6536 32.1348 46.2143 32.1348 45.6722C32.1348 45.13 31.6889 44.6907 31.1387 44.6907H27.2024V44.0591C27.2024 43.5169 26.7566 43.0776 26.2063 43.0776C25.6561 43.0776 25.2102 43.5169 25.2102 44.0591V44.6907H21.4883C20.938 44.6907 20.4922 45.13 20.4922 45.6722C20.4922 46.2143 20.938 46.6536 21.4883 46.6536H28.2949C28.0946 47.6944 27.5983 49.3506 26.3763 50.7877C25.3552 49.8196 24.7949 48.7137 24.5812 48.2277C24.3626 47.7305 23.7761 47.502 23.2713 47.7171C22.7665 47.9325 22.5344 48.5104 22.7531 49.0078C23.0136 49.6006 23.6829 50.9193 24.9055 52.1148C24.2771 52.5456 23.5366 52.9124 22.6643 53.1767C22.1385 53.3361 21.8433 53.8852 22.0049 54.4033C22.1672 54.9229 22.7253 55.2117 23.2498 55.053C24.479 54.6805 25.5777 54.1127 26.5275 53.3662C27.3671 53.8636 28.3624 54.2477 29.5321 54.4085C30.073 54.4837 30.5798 54.1117 30.6563 53.5722C30.7324 53.0352 30.3523 52.5393 29.8075 52.4644C29.1326 52.3717 28.5321 52.178 28.0006 51.9209C28.5667 51.2298 29.0472 50.4483 29.4346 49.5828C29.9459 48.44 30.1928 47.3765 30.3114 46.6536Z"
            fill="white" />
        <path
            d="M13.3695 49.1625L9.85625 46.0596C9.44666 45.6978 8.81686 45.7318 8.44963 46.1354C8.08241 46.5389 8.11681 47.1595 8.52653 47.5213L10.1012 48.9119H6.37962C5.86723 48.9119 5.4502 48.5011 5.4502 47.9962V29.04C5.4502 28.498 5.00434 28.0586 4.4541 28.0586C3.90386 28.0586 3.45801 28.498 3.45801 29.04V47.9962C3.45801 49.5835 4.7686 50.8748 6.37962 50.8748H10.101L8.52653 52.2654C8.11681 52.6272 8.08241 53.2477 8.44963 53.6513C8.64633 53.8675 8.91846 53.9776 9.19179 53.9776C9.42846 53.9776 9.66606 53.8949 9.85625 53.7271L13.3695 50.6242C13.5803 50.438 13.7008 50.1724 13.7008 49.8934C13.7008 49.6144 13.5803 49.3488 13.3695 49.1625Z"
            fill="white" />
        <path
            d="M55.8928 15.0048L59.406 18.1077C59.5962 18.2758 59.8338 18.3583 60.0705 18.3583C60.3438 18.3583 60.6158 18.2482 60.8127 18.032C61.1799 17.6284 61.1455 17.0079 60.7358 16.646L59.1611 15.2554H62.8828C63.3952 15.2554 63.8122 15.6662 63.8122 16.1712V35.1273C63.8122 35.6695 64.2581 36.1088 64.8083 36.1088C65.3586 36.1088 65.8044 35.6695 65.8044 35.1273V16.1712C65.8044 14.5838 64.4938 13.2925 62.8828 13.2925H59.1611L60.7358 11.9019C61.1455 11.54 61.1799 10.9195 60.8127 10.5159C60.4453 10.1122 59.8156 10.0782 59.406 10.4402L55.8928 13.5431C55.682 13.7293 55.5615 13.9951 55.5615 14.274C55.5615 14.5528 55.682 14.8186 55.8928 15.0048Z"
            fill="white" />
        <path
            d="M66.0573 38.439H18.6193C17.2725 38.439 16.1768 39.5186 16.1768 40.8455V57.3289C16.1768 58.656 17.2725 59.7355 18.6193 59.7355H25.9904C26.1636 59.7355 26.3232 59.8351 26.3973 59.9891L27.7743 62.8527C28.1823 63.7015 29.0281 64.229 29.9814 64.229C30.9349 64.229 31.7806 63.7016 32.1886 62.8527L33.5656 59.9891C33.6399 59.8351 33.7995 59.7355 33.9726 59.7355H48.8395C49.3897 59.7355 49.8356 59.2962 49.8356 58.7541C49.8356 58.2119 49.3897 57.7727 48.8395 57.7727H33.9727C33.0339 57.7727 32.1674 58.3128 31.7655 59.1488L30.3885 62.0124C30.2822 62.2331 30.0879 62.266 29.9816 62.266C29.8752 62.266 29.6809 62.233 29.5747 62.0124L28.1978 59.1488C27.7959 58.3128 26.9294 57.7727 25.9905 57.7727H18.6194C18.3712 57.7727 18.1691 57.5736 18.1691 57.3289V40.8455C18.1691 40.6009 18.3711 40.4019 18.6194 40.4019H66.0573C66.3055 40.4019 66.5075 40.6009 66.5075 40.8455V57.3289C66.5075 57.5735 66.3055 57.7727 66.0573 57.7727H52.691C52.1408 57.7727 51.6949 58.2119 51.6949 58.7541C51.6949 59.2962 52.1408 59.7355 52.691 59.7355H66.0573C67.404 59.7355 68.4997 58.656 68.4997 57.3289V40.8455C68.4997 39.5186 67.404 38.439 66.0573 38.439Z"
            fill="white" />
        <path
            d="M17.8891 25.3215C17.9632 25.1674 18.1229 25.0679 18.2958 25.0679H50.3805C51.7272 25.0679 52.8229 23.9883 52.8229 22.6614V6.17799C52.8229 4.85107 51.7272 3.77148 50.3805 3.77148H15.2156C14.6654 3.77148 14.2195 4.21091 14.2195 4.75293C14.2195 5.29495 14.6654 5.73438 15.2156 5.73438H50.3805C50.6288 5.73438 50.8308 5.93341 50.8308 6.17799V22.6614C50.8308 22.906 50.6288 23.105 50.3805 23.105H18.2958C17.357 23.105 16.4906 23.6452 16.0887 24.4812L14.7116 27.3448C14.6055 27.5655 14.4112 27.5984 14.3048 27.5984C14.1984 27.5984 14.0041 27.5654 13.898 27.3446L12.521 24.4813C12.119 23.6452 11.2525 23.105 10.3136 23.105H2.94255C2.69433 23.105 2.49219 22.906 2.49219 22.6614V6.17799C2.49219 5.93341 2.6942 5.73438 2.94255 5.73438H11.3641C11.9143 5.73438 12.3602 5.29495 12.3602 4.75293C12.3602 4.21091 11.9142 3.77148 11.3641 3.77148H2.94255C1.5957 3.77148 0.5 4.85107 0.5 6.17799V22.6614C0.5 23.9883 1.5957 25.0679 2.94255 25.0679H10.3136C10.4868 25.0679 10.6465 25.1675 10.7206 25.3217L12.0975 28.1851C12.5056 29.034 13.3513 29.5614 14.3047 29.5614C15.2581 29.5614 16.1039 29.034 16.5119 28.1853L17.8891 25.3215Z"
            fill="white" />
    </g>
    <defs>
        <clipPath id="clip0_674_2511">
            <rect width="68" height="67" fill="white" transform="translate(0.5 0.5)" />
        </clipPath>
    </defs>
</svg>