<svg xmlns="http://www.w3.org/2000/svg" width="78" height="60" viewBox="0 0 78 60" fill="none">
    <g clip-path="url(#clip0_674_2502)">
        <path
            d="M48.6123 41.9439C48.6123 41.8989 48.628 41.8162 48.6595 41.6955L53.0556 27.9182C53.1813 27.5415 53.4691 27.2515 53.9182 27.0482C54.3674 26.8448 54.883 26.7432 55.4664 26.7432C56.0492 26.7432 56.5654 26.8448 57.0146 27.0482C57.4638 27.2515 57.7509 27.5415 57.8773 27.9182L62.2969 41.6955C62.3284 41.8162 62.3447 41.8989 62.3447 41.9439C62.3447 42.3356 62.0884 42.6747 61.5763 42.9606C61.0643 43.2466 60.5323 43.3893 59.981 43.3893C59.3033 43.3893 58.9013 43.1715 58.7756 42.7348L57.9722 39.9116H52.9848L52.1814 42.7348C52.0551 43.1715 51.6531 43.3893 50.976 43.3893C50.4241 43.3893 49.8921 43.2466 49.3801 42.9606C48.868 42.6747 48.6123 42.3356 48.6123 41.9439ZM53.7411 37.2011H57.1917L55.4664 31.148L53.7411 37.2011Z"
            fill="white" />
        <path
            d="M66.9223 18.2734H51.3672V10.8179C51.3672 4.8531 46.3982 0 40.2896 0H11.0777C4.96962 0 0 4.8531 0 10.8179V23.5181C0 29.4016 4.83394 34.203 10.8277 34.3337C10.7878 35.5675 10.6468 36.9419 10.4058 38.4389C10.2427 39.4495 10.6278 40.4427 11.4347 41.0959C11.9762 41.534 12.6362 41.7619 13.3104 41.7619C13.6461 41.7619 13.9853 41.7049 14.3156 41.5898C16.5114 40.8233 20.3313 38.8846 22.3011 34.3361H33.2794V41.7921C33.2794 47.7569 38.249 52.61 44.357 52.61H55.6989C57.6693 57.1586 61.4886 59.0967 63.685 59.8638C64.0147 59.9788 64.3539 60.0352 64.6896 60.0352C65.3638 60.0352 66.0238 59.8074 66.5653 59.3692C67.3728 58.7166 67.7573 57.7229 67.5942 56.7123C67.3532 55.2158 67.2122 53.8408 67.1723 52.6071C73.1661 52.4769 78 47.6755 78 41.7921V29.0919C78 23.1265 73.0304 18.2734 66.9223 18.2734ZM74.9531 41.7915C74.9531 46.1163 71.3504 49.6346 66.9223 49.6346H65.6518C64.833 49.6346 64.1605 50.2668 64.1296 51.0665C64.0635 52.7843 64.2075 54.7823 64.558 57.0075C62.3401 56.2003 59.4956 54.4464 58.1953 50.6504C57.9876 50.0437 57.4056 49.6346 56.751 49.6346H44.357C39.9289 49.6346 36.3262 46.1163 36.3262 41.7915V32.8501C36.3262 32.8495 36.3262 32.8489 36.3262 32.8483C36.3262 32.8478 36.3262 32.8472 36.3262 32.8466V29.0913C36.3262 27.7576 36.675 26.4407 37.3343 25.2836C37.7438 24.5654 37.4795 23.6599 36.744 23.2601C36.0091 22.8603 35.0813 23.1189 34.6719 23.8366C33.7608 25.4353 33.2794 27.252 33.2794 29.0913V31.3606H21.249C20.5938 31.3606 20.0118 31.7697 19.8041 32.3765C18.5044 36.1725 15.6599 37.9269 13.442 38.7335C13.7919 36.5084 13.9359 34.5104 13.8704 32.7925C13.8395 31.9929 13.167 31.3606 12.3476 31.3606H11.0777C6.64957 31.3606 3.04688 27.8424 3.04688 23.5181V10.8179C3.04688 6.49365 6.64957 2.97544 11.0777 2.97544H40.2896C44.7177 2.97544 48.3203 6.49365 48.3203 10.8179V18.2739H46.1602C45.3187 18.2739 44.6367 18.9399 44.6367 19.7617C44.6367 20.5834 45.3187 21.2494 46.1602 21.2494H66.9223C71.3504 21.2494 74.9531 24.7676 74.9531 29.0919V41.7915Z"
            fill="white" />
        <path
            d="M31.6969 12.2102C32.5448 12.2102 33.232 11.5379 33.232 10.7085C33.232 9.87896 32.5448 9.20668 31.6969 9.20668H25.8407V6.95929C25.8407 6.1298 25.1535 5.45752 24.3056 5.45752C23.4583 5.45752 22.7705 6.1298 22.7705 6.95929V9.20668H16.915C16.0671 9.20668 15.3799 9.87896 15.3799 10.7085C15.3799 11.5379 16.0671 12.2102 16.915 12.2102H27.0898C26.799 13.4603 26.0812 15.4789 24.3122 17.7521C23.4607 16.6581 22.8617 15.6379 22.4425 14.7591C22.0839 14.0077 21.1701 13.6827 20.4019 14.0341C19.6338 14.3849 19.3016 15.2783 19.6602 16.0298C20.2154 17.1931 21.0346 18.5664 22.2363 20.0271C20.7605 21.4244 18.8548 22.8511 16.3915 24.2045C15.6521 24.6104 15.3895 25.5256 15.8044 26.2489C16.0857 26.7399 16.6074 27.0156 17.1446 27.0156C17.3989 27.0156 17.6567 26.954 17.8942 26.8232C20.5656 25.356 22.6638 23.7938 24.3128 22.2422C25.9481 23.7839 28.0402 25.3537 30.7171 26.8232C30.9551 26.954 31.213 27.0156 31.4672 27.0156C32.0039 27.0156 32.5256 26.7399 32.8074 26.2489C33.2224 25.5256 32.9592 24.6104 32.2204 24.2045C29.7546 22.8505 27.855 21.4197 26.3882 20.0288C29.0453 16.7947 29.9249 13.844 30.2146 12.2102H31.6969Z"
            fill="white" />
        <path
            d="M39.9626 19.375H39.9591C39.1258 19.375 38.4512 20.0469 38.4512 20.8759C38.4512 21.7049 39.1293 22.3768 39.9626 22.3768C40.7965 22.3768 41.4723 21.7049 41.4723 20.8759C41.4723 20.0469 40.7965 19.375 39.9626 19.375Z"
            fill="white" />
    </g>
    <defs>
        <clipPath id="clip0_674_2502">
            <rect width="78" height="60" fill="white" />
        </clipPath>
    </defs>
</svg>