<svg width="16" height="17" viewBox="0 0 16 17" fill="none" xmlns="http://www.w3.org/2000/svg">
<g clip-path="url(#clip0_69_1728)">
<path d="M14.3 3.16667H12.13C11.9675 2.41428 11.5377 1.73823 10.9129 1.25248C10.2881 0.766727 9.50654 0.50097 8.7 0.5L7.3 0.5C6.49346 0.50097 5.71192 0.766727 5.08712 1.25248C4.46233 1.73823 4.03247 2.41428 3.87 3.16667H1.7C1.51435 3.16667 1.3363 3.2369 1.20503 3.36193C1.07375 3.48695 1 3.65652 1 3.83333C1 4.01014 1.07375 4.17971 1.20503 4.30474C1.3363 4.42976 1.51435 4.5 1.7 4.5H2.4V13.1667C2.40111 14.0504 2.77022 14.8976 3.42635 15.5225C4.08249 16.1474 4.97208 16.4989 5.9 16.5H10.1C11.0279 16.4989 11.9175 16.1474 12.5736 15.5225C13.2298 14.8976 13.5989 14.0504 13.6 13.1667V4.5H14.3C14.4857 4.5 14.6637 4.42976 14.795 4.30474C14.9263 4.17971 15 4.01014 15 3.83333C15 3.65652 14.9263 3.48695 14.795 3.36193C14.6637 3.2369 14.4857 3.16667 14.3 3.16667ZM7.3 1.83333H8.7C9.13419 1.83384 9.55759 1.96225 9.91213 2.20096C10.2667 2.43967 10.535 2.77699 10.6803 3.16667H5.3197C5.46501 2.77699 5.73333 2.43967 6.08787 2.20096C6.44241 1.96225 6.86581 1.83384 7.3 1.83333ZM12.2 13.1667C12.2 13.6971 11.9788 14.2058 11.5849 14.5809C11.1911 14.956 10.657 15.1667 10.1 15.1667H5.9C5.34305 15.1667 4.8089 14.956 4.41508 14.5809C4.02125 14.2058 3.8 13.6971 3.8 13.1667V4.5H12.2V13.1667Z" fill="#404040"/>
<path d="M6 12.5C6.26522 12.5 6.51957 12.421 6.70711 12.2803C6.89464 12.1397 7 11.9489 7 11.75V7.25C7 7.05109 6.89464 6.86032 6.70711 6.71967C6.51957 6.57902 6.26522 6.5 6 6.5C5.73478 6.5 5.48043 6.57902 5.29289 6.71967C5.10536 6.86032 5 7.05109 5 7.25V11.75C5 11.9489 5.10536 12.1397 5.29289 12.2803C5.48043 12.421 5.73478 12.5 6 12.5Z" fill="#404040"/>
<path d="M10 12.5C10.2652 12.5 10.5196 12.421 10.7071 12.2803C10.8946 12.1397 11 11.9489 11 11.75V7.25C11 7.05109 10.8946 6.86032 10.7071 6.71967C10.5196 6.57902 10.2652 6.5 10 6.5C9.73478 6.5 9.48043 6.57902 9.29289 6.71967C9.10536 6.86032 9 7.05109 9 7.25V11.75C9 11.9489 9.10536 12.1397 9.29289 12.2803C9.48043 12.421 9.73478 12.5 10 12.5Z" fill="#404040"/>
</g>
<defs>
<clipPath id="clip0_69_1728">
<rect width="16" height="16" fill="white" transform="translate(0 0.5)"/>
</clipPath>
</defs>
</svg>
