<svg xmlns="http://www.w3.org/2000/svg" width="25" height="24" viewBox="0 0 25 24" fill="none">
    <path d="M22.5 8.16216V8.23516C22.5 9.09516 22.5 9.52616 22.293 9.87816C22.086 10.2302 21.709 10.4392 20.957 10.8582L20.164 11.2982C20.71 9.45016 20.893 7.46416 20.96 5.76616L20.97 5.54516L20.972 5.49316C21.623 5.71916 21.989 5.88816 22.217 6.20416C22.5 6.59716 22.5 7.11916 22.5 8.16216ZM2.5 8.16216V8.23516C2.5 9.09516 2.5 9.52616 2.707 9.87816C2.914 10.2302 3.291 10.4392 4.043 10.8582L4.837 11.2982C4.29 9.45016 4.107 7.46416 4.04 5.76616L4.03 5.54516L4.029 5.49316C3.377 5.71916 3.011 5.88816 2.783 6.20416C2.5 6.59716 2.5 7.12016 2.5 8.16216Z" fill="white"/>
    <path fill-rule="evenodd" clip-rule="evenodd" d="M12.5 2.00024C14.284 2.00024 15.753 2.15724 16.877 2.34724C18.016 2.53924 18.585 2.63524 19.061 3.22124C19.537 3.80724 19.511 4.44024 19.461 5.70624C19.289 10.0552 18.351 15.4862 13.25 15.9662V19.5002H14.68C14.9111 19.5004 15.135 19.5805 15.3136 19.7271C15.4923 19.8737 15.6147 20.0776 15.66 20.3042L15.85 21.2502H18.5C18.6989 21.2502 18.8897 21.3293 19.0303 21.4699C19.171 21.6106 19.25 21.8013 19.25 22.0002C19.25 22.1991 19.171 22.3899 19.0303 22.5306C18.8897 22.6712 18.6989 22.7502 18.5 22.7502H6.49997C6.30106 22.7502 6.11029 22.6712 5.96964 22.5306C5.82899 22.3899 5.74997 22.1991 5.74997 22.0002C5.74997 21.8013 5.82899 21.6106 5.96964 21.4699C6.11029 21.3293 6.30106 21.2502 6.49997 21.2502H9.14997L9.33997 20.3042C9.38527 20.0776 9.50765 19.8737 9.68631 19.7271C9.86497 19.5805 10.0889 19.5004 10.32 19.5002H11.75V15.9662C6.64997 15.4862 5.71197 10.0542 5.53997 5.70624C5.48897 4.44024 5.46397 3.80624 5.93997 3.22124C6.41497 2.63524 6.98397 2.53924 8.12297 2.34724C9.56979 2.11011 11.0339 1.99404 12.5 2.00024ZM13.452 6.19923L13.354 6.02323C12.974 5.34023 12.784 5.00024 12.5 5.00024C12.216 5.00024 12.026 5.34023 11.646 6.02323L11.548 6.19923C11.44 6.39324 11.386 6.48923 11.302 6.55324C11.217 6.61724 11.112 6.64124 10.902 6.68824L10.712 6.73223C9.97397 6.89923 9.60497 6.98223 9.51697 7.26424C9.42897 7.54724 9.68097 7.84124 10.184 8.42923L10.314 8.58124C10.457 8.74824 10.529 8.83124 10.561 8.93524C10.593 9.03924 10.582 9.15024 10.561 9.37324L10.541 9.57624C10.465 10.3612 10.427 10.7542 10.656 10.9282C10.886 11.1022 11.232 10.9432 11.923 10.6252L12.101 10.5432C12.298 10.4532 12.396 10.4082 12.5 10.4082C12.604 10.4082 12.702 10.4532 12.899 10.5432L13.077 10.6252C13.768 10.9442 14.114 11.1022 14.344 10.9282C14.574 10.7542 14.535 10.3612 14.459 9.57624L14.439 9.37324C14.418 9.15024 14.407 9.03924 14.439 8.93524C14.471 8.83224 14.543 8.74824 14.686 8.58124L14.816 8.42923C15.319 7.84124 15.571 7.54724 15.483 7.26424C15.395 6.98223 15.026 6.89923 14.288 6.73223L14.098 6.68824C13.888 6.64124 13.783 6.61824 13.698 6.55324C13.614 6.48923 13.56 6.39324 13.452 6.19923Z" fill="white"/>
</svg>