<svg width="16" height="17" viewBox="0 0 16 17" fill="none" xmlns="http://www.w3.org/2000/svg">
<path d="M14.6676 9.08333C14.5387 10.6032 13.8923 12.0335 12.8359 13.1368C11.7794 14.2401 10.3762 14.9502 8.85922 15.1493C7.34222 15.3483 5.80254 15.0244 4.49564 14.2311C3.18873 13.4379 2.19315 12.2231 1.67407 10.7882C1.15499 9.35338 1.14362 7.78474 1.64183 6.34255C2.14004 4.90037 3.11789 3.67133 4.41315 2.85934C5.70842 2.04735 7.24323 1.70123 8.76296 1.87839C10.2827 2.05555 11.696 2.74534 12.7684 3.83333H10.6805C10.5032 3.83333 10.3331 3.90357 10.2076 4.0286C10.0822 4.15362 10.0118 4.32319 10.0118 4.5C10.0118 4.67681 10.0822 4.84638 10.2076 4.9714C10.3331 5.09643 10.5032 5.16667 10.6805 5.16667H13.4512C13.7805 5.16649 14.0963 5.036 14.3291 4.80387C14.562 4.57174 14.6929 4.25695 14.6931 3.92867V1.16667C14.6931 0.989856 14.6226 0.820286 14.4972 0.695262C14.3718 0.570238 14.2017 0.5 14.0243 0.5C13.8469 0.5 13.6768 0.570238 13.5514 0.695262C13.426 0.820286 13.3555 0.989856 13.3555 1.16667V2.552C12.0105 1.35382 10.2993 0.642989 8.49869 0.534474C6.69813 0.425959 4.91349 0.926105 3.4334 1.95402C1.95332 2.98194 0.864342 4.47752 0.342593 6.19888C-0.179155 7.92023 -0.103166 9.76672 0.558272 11.4397C1.21971 13.1127 2.42792 14.5143 3.98749 15.4179C5.54706 16.3215 7.3668 16.6742 9.1524 16.4191C10.938 16.1639 12.585 15.3157 13.8271 14.0117C15.0693 12.7077 15.8338 11.0242 15.9971 9.23333C16.0058 9.14049 15.9949 9.04688 15.9652 8.95846C15.9356 8.87003 15.8878 8.78873 15.8249 8.71974C15.762 8.65075 15.6853 8.59558 15.5998 8.55775C15.5143 8.51992 15.4219 8.50025 15.3284 8.5C15.1652 8.49804 15.0072 8.55669 14.885 8.66452C14.7629 8.77236 14.6854 8.92165 14.6676 9.08333Z" fill="#404040"/>
</svg>
