<svg xmlns="http://www.w3.org/2000/svg" width="61" height="60" viewBox="0 0 61 60" fill="none">
    <g clip-path="url(#clip0_632_2488)">
        <path
            d="M59.71 20.6455C59.1362 20.016 58.3238 19.6569 57.4717 19.6569H3.52814C2.67634 19.6569 1.8636 20.016 1.28977 20.6455C0.715953 21.2751 0.434038 22.1175 0.513071 22.9657L3.39127 53.8821C3.53631 55.4391 4.84263 56.6295 6.40633 56.6295H54.5935C56.1572 56.6295 57.4635 55.4388 57.6085 53.8821L60.4867 22.9657C60.5658 22.1175 60.2838 21.2751 59.71 20.6455ZM40.5998 50.2884C40.5977 50.2881 40.5958 50.2881 40.5937 50.2884H20.4064C18.734 50.2884 17.3783 48.9324 17.3783 47.2603C17.3783 43.1481 20.7237 39.8027 24.8359 39.8027H27.0091C24.7741 38.5679 23.2564 36.1872 23.2564 33.4583C23.2564 29.4642 26.5059 26.2145 30.5002 26.2145C34.4945 26.2145 37.744 29.4639 37.744 33.4583C37.744 36.1872 36.2263 38.5679 33.9913 39.8027H36.1645C40.1928 39.8027 43.4852 43.0134 43.6179 47.0102C43.6245 47.0925 43.6282 47.1761 43.6282 47.2603C43.6279 48.9327 42.2722 50.2884 40.5998 50.2884ZM54.6743 14.0195C54.6743 15.274 53.6575 16.2905 52.4033 16.2905H8.59685C7.34262 16.2905 6.32578 15.274 6.32578 14.0195C6.32578 12.7649 7.34262 11.7484 8.59685 11.7484H52.4033C53.6575 11.7484 54.6743 12.7649 54.6743 14.0195ZM48.6787 5.64167C48.6787 6.89621 47.6619 7.91273 46.4076 7.91273H14.5925C13.3382 7.91273 12.3214 6.89621 12.3214 5.64167C12.3214 4.38713 13.3382 3.37061 14.5925 3.37061H46.4073C47.6619 3.37061 48.6787 4.38713 48.6787 5.64167Z"
            fill="white" />
    </g>
    <defs>
        <clipPath id="clip0_632_2488">
            <rect width="60" height="60" fill="white" transform="translate(0.5)" />
        </clipPath>
    </defs>
</svg>