<svg xmlns="http://www.w3.org/2000/svg" width="60" height="60" viewBox="0 0 60 60" fill="none">
    <path fill-rule="evenodd" clip-rule="evenodd"
        d="M58.125 20.625C58.125 18.5541 56.4469 16.875 54.375 16.875H5.625C3.55312 16.875 1.875 18.5541 1.875 20.625V54.375C1.875 56.4459 3.55312 58.125 5.625 58.125H54.375C56.4469 58.125 58.125 56.4459 58.125 54.375V20.625ZM40.3688 39.09C40.9126 38.7478 41.25 38.1469 41.25 37.5C41.25 36.8531 40.9126 36.2522 40.3688 35.91L25.3688 26.535C24.7876 26.1741 24.0657 26.1544 23.4657 26.4853C22.8657 26.8153 22.5 27.4434 22.5 28.125V46.875C22.5 47.5566 22.8657 48.1847 23.4657 48.5147C24.0657 48.8456 24.7876 48.8259 25.3688 48.465L40.3688 39.09Z"
        fill="white" />
    <path fill-rule="evenodd" clip-rule="evenodd"
        d="M11.25 13.125H48.75C49.785 13.125 50.625 12.285 50.625 11.25C50.625 10.215 49.785 9.375 48.75 9.375H11.25C10.215 9.375 9.375 10.215 9.375 11.25C9.375 12.285 10.215 13.125 11.25 13.125Z"
        fill="white" />
    <path fill-rule="evenodd" clip-rule="evenodd"
        d="M16.8749 5.625H43.1249C44.1598 5.625 44.9998 4.785 44.9998 3.75C44.9998 2.715 44.1598 1.875 43.1249 1.875H16.8749C15.84 1.875 15 2.715 15 3.75C15 4.785 15.84 5.625 16.8749 5.625Z"
        fill="white" />
</svg>