<svg xmlns="http://www.w3.org/2000/svg" width="92" height="56" viewBox="0 0 92 56" fill="none">
<rect x="0.5" y="0.5" width="91" height="55" rx="7.5" fill="white"/>
<rect x="0.5" y="0.5" width="91" height="55" rx="7.5" stroke="#BEC0C6"/>
<path d="M66.3 13H26.7C25.2114 13 24 14.1876 24 15.6471V40.3529C24 41.8124 25.2114 43 26.7 43H66.3C67.7886 43 69 41.8124 69 40.3529V15.6471C69 14.1876 67.7886 13 66.3 13ZM67.2 40.3529C67.2 40.8382 66.795 41.2353 66.3 41.2353H26.7C26.2032 41.2353 25.8 40.8382 25.8 40.3529V15.6471C25.8 15.16 26.2032 14.7647 26.7 14.7647H66.3C66.795 14.7647 67.2 15.16 67.2 15.6471V40.3529Z" fill="#424566"/>
<path d="M68.0994 20.9395H24.8994V24.4689H68.0994V20.9395Z" fill="#424566"/>
<path d="M68.1 20.0605H24.9C24.4032 20.0605 24 20.4558 24 20.9429V24.4723C24 24.9594 24.4032 25.3547 24.9 25.3547H68.1C68.5968 25.3547 69 24.9594 69 24.4723V20.9429C69 20.4558 68.5968 20.0605 68.1 20.0605ZM67.2 23.59H25.8V21.8253H67.2V23.59Z" fill="#424566"/>
<path d="M48.3012 30.6484H32.1012C31.6044 30.6484 31.2012 31.0438 31.2012 31.5308C31.2012 32.0178 31.6044 32.4131 32.1012 32.4131H48.3012C48.7979 32.4131 49.2012 32.0178 49.2012 31.5308C49.2012 31.0437 48.7979 30.6484 48.3012 30.6484Z" fill="#424566"/>
<path d="M41.1012 34.1758H32.1012C31.6044 34.1758 31.2012 34.5711 31.2012 35.0581C31.2012 35.5452 31.6044 35.9405 32.1012 35.9405H41.1012C41.5979 35.9405 42.0012 35.5452 42.0012 35.0581C42.0012 34.5711 41.5979 34.1758 41.1012 34.1758Z" fill="#424566"/>
</svg>