<svg xmlns="http://www.w3.org/2000/svg" width="42" height="30" viewBox="0 0 42 30" fill="none">
<path d="M34.5138 30H7.4862C3.35765 30 0 26.9399 0 23.1773V6.8227C0 3.06006 3.35765 0 7.4862 0H34.5138C38.6423 0 42 3.06006 42 6.8227V23.1773C41.945 26.9901 38.6419 30 34.5138 30Z" fill="#424566"/>
<path d="M34.5138 29.5987H7.43119C3.57809 29.5987 0.44043 26.7391 0.44043 23.2275V6.82282C0.44043 3.31123 3.57809 0.45166 7.43119 0.45166H34.5138C38.3669 0.45166 41.5045 3.31123 41.5045 6.82282V23.2275C41.5045 26.7391 38.3669 29.5987 34.5138 29.5987Z" fill="#FEBD55"/>
<path d="M41.5045 15.5521V14.5488H27.1926V10.1341L30.8807 6.77287H41.5045C41.5045 6.42159 41.4495 6.07072 41.3945 5.76956H30.6057C30.4407 5.76956 30.3302 5.81968 30.2202 5.91993L26.3671 9.43153H21.5227V0.501953H20.4218V9.43153H15.6328L11.7797 5.91993C11.6697 5.81968 11.5043 5.76956 11.3943 5.76956H0.550427C0.495429 6.07072 0.44043 6.42159 0.44043 6.77287H11.1743L14.8074 10.084V14.5488H0.44043V15.5521H14.8074V20.0169L11.1743 23.328H0.44043C0.44043 23.6792 0.495429 24.0301 0.550427 24.3313H11.3943C11.5593 24.3313 11.6697 24.2811 11.7797 24.1809L15.6328 20.6693H20.4218V29.5989H21.5227V20.6693H26.3667L30.2198 24.1809C30.3298 24.2811 30.4398 24.3313 30.6052 24.3313H41.3941C41.4491 24.0301 41.5041 23.6792 41.5041 23.328H30.8802L27.1921 19.9667V15.5521H41.5045ZM26.0917 19.6656H15.9083V10.3847H26.0917V19.6656Z" fill="#B5613C"/>
</svg>