<svg xmlns="http://www.w3.org/2000/svg" width="92" height="56" viewBox="0 0 92 56" fill="none">
<rect x="0.5" y="0.5" width="91" height="55" rx="7.5" fill="white"/>
<rect x="0.5" y="0.5" width="91" height="55" rx="7.5" stroke="#BEC0C6"/>
<circle cx="58" cy="28" r="18" fill="#FF5F00"/>
<path fill-rule="evenodd" clip-rule="evenodd" d="M46 14.5834C42.3175 17.8793 40 22.669 40 28C40 33.331 42.3175 38.1207 46 41.4166C42.8155 44.2669 38.6101 46 34 46C24.0589 46 16 37.9411 16 28C16 18.0589 24.0589 10 34 10C38.6101 10 42.8155 11.7331 46 14.5834Z" fill="#EB001B"/>
<path fill-rule="evenodd" clip-rule="evenodd" d="M46 41.4166C49.6825 38.1207 52 33.331 52 28C52 22.669 49.6825 17.8793 46 14.5834C49.1845 11.7331 53.3899 10 58 10C67.9411 10 76 18.0589 76 28C76 37.9411 67.9411 46 58 46C53.3899 46 49.1845 44.2669 46 41.4166Z" fill="#F79E1B"/>
</svg>