<svg xmlns="http://www.w3.org/2000/svg" width="60" height="47" viewBox="0 0 60 47" fill="none">
<g clip-path="url(#clip0_2682_9911)">
<path d="M10.9103 46.2689V43.1912C10.9103 42.0112 10.1899 41.242 8.95512 41.242C8.33786 41.242 7.66903 41.4471 7.20597 42.114C6.84601 41.5497 6.33162 41.242 5.55992 41.242C5.0453 41.242 4.53114 41.3957 4.1194 41.96V41.3445H3.03906V46.2689H4.1194V43.5501C4.1194 42.6783 4.58246 42.2678 5.30284 42.2678C6.02275 42.2678 6.38318 42.7295 6.38318 43.5501V46.2689H7.46351V43.5501C7.46351 42.6783 7.97767 42.2678 8.64649 42.2678C9.36687 42.2678 9.72683 42.7295 9.72683 43.5501V46.2689H10.9103ZM26.9093 41.3445H25.1604V39.857H24.08V41.3445H23.1026V42.3189H24.0798V44.5762C24.0798 45.7048 24.5429 46.3714 25.7776 46.3714C26.2407 46.3714 26.7549 46.2177 27.1153 46.0125L26.8064 45.0891C26.4978 45.2942 26.1378 45.3456 25.8805 45.3456C25.3661 45.3456 25.1604 45.0379 25.1604 44.5248V42.3189H26.9093V41.3445ZM36.0666 41.2417C35.4493 41.2417 35.0378 41.5497 34.7805 41.96V41.3445H33.7002V46.2689H34.7805V43.499C34.7805 42.6783 35.1405 42.2166 35.8093 42.2166C36.015 42.2166 36.2724 42.268 36.4781 42.3192L36.7868 41.2934C36.581 41.242 36.2724 41.242 36.0666 41.242M22.228 41.7551C21.7134 41.3959 20.9932 41.2422 20.2215 41.2422C18.987 41.2422 18.164 41.8577 18.164 42.8323C18.164 43.6532 18.7812 44.1147 19.8616 44.2687L20.376 44.3201C20.9419 44.4224 21.2506 44.5764 21.2506 44.833C21.2506 45.1919 20.839 45.4485 20.1187 45.4485C19.3985 45.4485 18.8326 45.1919 18.4724 44.9355L17.958 45.7562C18.5239 46.1665 19.2956 46.3717 20.0671 46.3717C21.5076 46.3717 22.3309 45.705 22.3309 44.7816C22.3309 43.9095 21.6621 43.4478 20.633 43.294L20.1187 43.2426C19.6556 43.1912 19.2956 43.0889 19.2956 42.7811C19.2956 42.422 19.6556 42.2168 20.2215 42.2168C20.839 42.2168 21.4563 42.4732 21.7649 42.6271L22.228 41.7551ZM50.9342 41.2422C50.3167 41.2422 49.9052 41.5499 49.6479 41.9603V41.3448H48.5676V46.2691H49.6479V43.4992C49.6479 42.6785 50.0081 42.2168 50.6767 42.2168C50.8827 42.2168 51.14 42.2682 51.3457 42.3194L51.6544 41.2936C51.4486 41.2422 51.14 41.2422 50.9342 41.2422ZM37.1469 43.8069C37.1469 45.2945 38.1757 46.3717 39.7707 46.3717C40.4908 46.3717 41.0052 46.2179 41.5196 45.8076L41.0052 44.9355C40.5937 45.2433 40.1822 45.397 39.7191 45.397C38.8445 45.397 38.2273 44.7816 38.2273 43.8069C38.2273 42.8837 38.8445 42.268 39.7191 42.2168C40.1822 42.2168 40.5937 42.3706 41.0052 42.6785L41.5196 41.8065C41.0052 41.3959 40.4908 41.2422 39.7707 41.2422C38.1757 41.2422 37.1469 42.3194 37.1469 43.8069ZM47.1273 43.8069V41.3448H46.0469V41.9603C45.6867 41.4988 45.1724 41.2422 44.5035 41.2422C43.1146 41.2422 42.0342 42.3194 42.0342 43.8069C42.0342 45.2945 43.1146 46.3717 44.5035 46.3717C45.2237 46.3717 45.7383 46.1153 46.0469 45.6536V46.2691H47.1273V43.8069ZM43.1659 43.8069C43.1659 42.9349 43.7318 42.2168 44.6577 42.2168C45.5323 42.2168 46.1498 42.8837 46.1498 43.8069C46.1498 44.679 45.5323 45.397 44.6577 45.397C43.7318 45.3456 43.1659 44.679 43.1659 43.8069ZM30.2534 41.2422C28.8129 41.2422 27.7839 42.268 27.7839 43.8069C27.7839 45.3459 28.8127 46.3717 30.3047 46.3717C31.0249 46.3717 31.7453 46.1665 32.3112 45.705L31.7966 44.9355C31.3851 45.2433 30.8707 45.4485 30.3563 45.4485C29.6875 45.4485 29.0187 45.1407 28.8642 44.2684H32.517V43.8583C32.5685 42.268 31.6426 41.2422 30.2534 41.2422ZM30.2532 42.1654C30.9218 42.1654 31.3851 42.576 31.4877 43.3454H28.9155C29.0184 42.6785 29.4815 42.1654 30.2532 42.1654ZM57.0558 43.8069V39.3955H55.9755V41.9603C55.6153 41.4988 55.1009 41.2422 54.4321 41.2422C53.0431 41.2422 51.9628 42.3194 51.9628 43.8069C51.9628 45.2945 53.0431 46.3717 54.4321 46.3717C55.1524 46.3717 55.6668 46.1153 55.9755 45.6536V46.2691H57.0558V43.8069ZM53.0946 43.8069C53.0946 42.9349 53.6604 42.2168 54.5865 42.2168C55.4611 42.2168 56.0783 42.8837 56.0783 43.8069C56.0783 44.679 55.4611 45.397 54.5865 45.397C53.6604 45.3456 53.0946 44.679 53.0946 43.8069ZM16.9803 43.8069V41.3448H15.9V41.9603C15.5398 41.4988 15.0254 41.2422 14.3566 41.2422C12.9676 41.2422 11.8873 42.3194 11.8873 43.8069C11.8873 45.2945 12.9676 46.3717 14.3566 46.3717C15.0769 46.3717 15.5913 46.1153 15.9 45.6536V46.2691H16.9803V43.8069ZM12.9676 43.8069C12.9676 42.9349 13.5335 42.2168 14.4594 42.2168C15.334 42.2168 15.9515 42.8837 15.9515 43.8069C15.9515 44.679 15.334 45.397 14.4594 45.397C13.5335 45.3456 12.9676 44.679 12.9676 43.8069Z" fill="white"/>
<path d="M21.8677 3.94971H38.0727V32.9832H21.8677V3.94971Z" fill="#FF5F00"/>
<path d="M22.895 18.4666C22.895 12.5676 25.6729 7.33532 29.9427 3.9497C26.8048 1.48753 22.8437 0 18.5223 0C8.28444 0 0.00195312 8.25855 0.00195312 18.4666C0.00195312 28.6744 8.28444 36.9332 18.5221 36.9332C22.8434 36.9332 26.8046 35.4457 29.9427 32.9833C25.6729 29.649 22.895 24.3656 22.895 18.4666Z" fill="#EB001B"/>
<path d="M59.9368 18.4666C59.9368 28.6744 51.6544 36.9332 41.4167 36.9332C37.0954 36.9332 33.1342 35.4457 29.9961 32.9833C34.3174 29.5979 37.044 24.3656 37.044 18.4666C37.044 12.5676 34.2659 7.33532 29.9961 3.9497C33.134 1.48753 37.0954 0 41.4167 0C51.6544 0 59.9368 8.30996 59.9368 18.4666Z" fill="#F79E1B"/>
</g>
<defs>
<clipPath id="clip0_2682_9911">
<rect width="60" height="46.5" fill="white"/>
</clipPath>
</defs>
</svg>