<svg width="96" height="32" viewBox="0 0 96 32" fill="none" xmlns="http://www.w3.org/2000/svg">
<g clip-path="url(#clip0_664_5419)">
<path d="M89.3761 1.09519L95.619 30.9H88.4666C88.1809 29.6523 87.9571 28.3476 87.6713 27.1C87.3856 25.8523 87.6714 26.4761 86.9333 26.4761H78.2523C78.1588 26.4599 78.063 26.4635 77.9709 26.4865C77.8789 26.5095 77.7926 26.5515 77.7178 26.6098C77.6429 26.668 77.581 26.7413 77.5361 26.8249C77.4912 26.9085 77.4643 27.0006 77.4571 27.0952C77.0571 28.2381 76.6618 29.3714 76.2094 30.4476C75.7523 31.5238 75.8094 30.9571 75.638 30.9571H67.9809V30.2761C71.7618 21.3095 75.5475 12.3238 79.3285 3.319C79.5521 2.70776 79.952 2.17656 80.4775 1.79259C81.003 1.40862 81.6306 1.18912 82.2809 1.16186C84.7761 1.04757 87.0475 1.10471 89.3761 1.10471M84.0428 9.45234L80.0094 20.2952H86.3666L84.0428 9.45234ZM19.9618 21.3619V20.6809C22.2332 14.3809 24.5571 8.08091 26.7713 1.78091C26.7713 1.27138 27.2285 1.04281 27.7952 1.04281H35.3428V1.78091L23.5951 30.1619C23.5393 30.3971 23.3974 30.603 23.1973 30.7387C22.9972 30.8745 22.7534 30.9303 22.5142 30.8952H15.9332C15.3618 30.8952 15.138 30.8952 14.9666 30.1571C12.8713 21.9857 10.7094 13.8142 8.60943 5.58567C8.55973 5.37488 8.46895 5.17596 8.3423 5.00029C8.21565 4.82461 8.05561 4.67563 7.87134 4.56186C5.67985 3.34244 3.35914 2.37135 0.952287 1.66662C0.952287 1.66662 0.552288 1.3809 0.380859 1.27138C0.623487 1.2135 0.876327 1.2135 1.11895 1.27138H12.4713C12.9455 1.19927 13.4295 1.22815 13.8918 1.35612C14.354 1.4841 14.784 1.70829 15.1535 2.014C15.5231 2.31971 15.8239 2.70005 16.0362 3.1301C16.2485 3.56015 16.3676 4.0302 16.3856 4.50948L19.6237 21.1333C19.6049 21.266 19.6049 21.4006 19.6237 21.5333L19.9618 21.3619ZM46.4094 29.7619L47.5475 23.119L48.3428 23.5761C51.2403 25.0772 54.5654 25.5379 57.7618 24.8809C58.3729 24.8286 58.9525 24.5873 59.4202 24.1904C59.8878 23.7936 60.2203 23.261 60.3713 22.6666C60.4292 22.0739 60.2953 21.4782 59.9893 20.9673C59.6832 20.4564 59.2213 20.0572 58.6713 19.8285C57.5333 19.0904 56.2904 18.5238 55.2094 17.7857C53.8113 17.0029 52.5157 16.0495 51.3523 14.9476C50.1745 13.5385 49.5292 11.7603 49.5292 9.92376C49.5292 8.08722 50.1745 6.30906 51.3523 4.89995C53.0606 3.03216 55.2956 1.727 57.7618 1.1571C61.5187 0.219351 65.4693 0.416548 69.1142 1.72376H69.3999L68.319 7.85233C66.8872 7.41163 65.4266 7.07113 63.9475 6.83329C62.4735 6.71988 60.993 6.71988 59.519 6.83329C58.9867 6.93904 58.4958 7.19519 58.1047 7.57138C57.9151 7.73186 57.7628 7.93172 57.6583 8.15705C57.5538 8.38238 57.4997 8.62777 57.4997 8.87614C57.4997 9.12452 57.5538 9.36991 57.6583 9.59524C57.7628 9.82057 57.9151 10.0204 58.1047 10.1809C58.7823 10.805 59.5228 11.3571 60.3142 11.8285C61.7904 12.7333 63.3237 13.4714 64.7428 14.4381C65.9166 15.1557 66.8902 16.1583 67.573 17.3527C68.2558 18.5472 68.6258 19.8948 68.6486 21.2704C68.6714 22.6461 68.3463 24.0052 67.7034 25.2217C67.0606 26.4381 66.1208 27.4724 64.9714 28.2285C62.7083 29.9807 59.9892 31.0453 57.138 31.2952C53.4897 31.698 49.7988 31.1705 46.4094 29.7619ZM33.8094 30.8952L38.6904 1.09996H46.4666L41.5856 30.8952H33.8094Z" fill="white"/>
</g>
<defs>
<clipPath id="clip0_664_5419">
<rect width="96" height="32" fill="white"/>
</clipPath>
</defs>
</svg>
