<svg xmlns="http://www.w3.org/2000/svg" width="92" height="56" viewBox="0 0 92 56" fill="none">
<rect x="0.5" y="0.5" width="91" height="55" rx="7.5" fill="white"/>
<rect x="0.5" y="0.5" width="91" height="55" rx="7.5" stroke="#BEC0C6"/>
<path d="M72.067 18.3377L76 37.6587H71.494C71.314 36.8499 71.173 36.0041 70.993 35.1953C70.813 34.3865 70.993 34.7909 70.528 34.7909H65.059C65.0001 34.7804 64.9397 34.7827 64.8817 34.7976C64.8237 34.8125 64.7694 34.8398 64.7222 34.8775C64.6751 34.9153 64.6361 34.9628 64.6078 35.017C64.5795 35.0712 64.5626 35.1309 64.558 35.1922C64.306 35.9331 64.057 36.6678 63.772 37.3654C63.484 38.063 63.52 37.6957 63.412 37.6957H58.588V37.2543C60.97 31.4416 63.355 25.6166 65.737 19.7793C65.8779 19.3831 66.1298 19.0387 66.4609 18.7898C66.7919 18.5409 67.1873 18.3986 67.597 18.3809C69.169 18.3069 70.6 18.3439 72.067 18.3439M68.707 23.7552L66.166 30.7841H70.171L68.707 23.7552ZM28.336 31.4756V31.0342C29.767 26.9502 31.231 22.8662 32.626 18.7822C32.626 18.4519 32.914 18.3038 33.271 18.3038H38.026V18.7822L30.625 37.1802C30.5898 37.3327 30.5004 37.4661 30.3743 37.5541C30.2483 37.6421 30.0947 37.6783 29.944 37.6556H25.798C25.438 37.6556 25.297 37.6556 25.189 37.1771C23.869 31.88 22.507 26.5828 21.184 21.2487C21.1527 21.112 21.0955 20.9831 21.0157 20.8692C20.9359 20.7553 20.8351 20.6587 20.719 20.585C19.3384 19.7945 17.8763 19.165 16.36 18.7081C16.36 18.7081 16.108 18.5229 16 18.4519C16.1529 18.4144 16.3121 18.4144 16.465 18.4519H23.617C23.9157 18.4052 24.2207 18.4239 24.5119 18.5069C24.8031 18.5898 25.074 18.7352 25.3068 18.9333C25.5396 19.1315 25.7291 19.3781 25.8629 19.6568C25.9966 19.9356 26.0716 20.2403 26.083 20.551L28.123 31.3274C28.1111 31.4134 28.1111 31.5007 28.123 31.5867L28.336 31.4756ZM44.998 36.9209L45.715 32.6147L46.216 32.911C48.0414 33.8841 50.1362 34.1827 52.15 33.7568C52.535 33.7229 52.9001 33.5665 53.1947 33.3092C53.4894 33.052 53.6988 32.7067 53.794 32.3214C53.8305 31.9372 53.7461 31.551 53.5533 31.2198C53.3605 30.8886 53.0694 30.6298 52.723 30.4816C52.006 30.0031 51.223 29.6358 50.542 29.1573C49.6611 28.6499 48.8449 28.0319 48.112 27.3175C47.37 26.4041 46.9634 25.2514 46.9634 24.0608C46.9634 22.8703 47.37 21.7176 48.112 20.8042C49.1882 19.5934 50.5963 18.7473 52.15 18.3779C54.5169 17.77 57.0057 17.8978 59.302 18.7452H59.482L58.801 22.718C57.899 22.4324 56.9788 22.2116 56.047 22.0574C55.1184 21.9839 54.1856 21.9839 53.257 22.0574C52.9216 22.126 52.6124 22.292 52.366 22.5359C52.2466 22.6399 52.1506 22.7695 52.0848 22.9156C52.019 23.0616 51.9849 23.2207 51.9849 23.3817C51.9849 23.5427 52.019 23.7018 52.0848 23.8479C52.1506 23.9939 52.2466 24.1235 52.366 24.2275C52.7929 24.6321 53.2594 24.99 53.758 25.2956C54.688 25.8821 55.654 26.3606 56.548 26.9872C57.2875 27.4524 57.9009 28.1024 58.331 28.8767C58.7612 29.651 58.9943 30.5246 59.0087 31.4163C59.023 32.3081 58.8182 33.1892 58.4132 33.9777C58.0082 34.7662 57.4161 35.4367 56.692 35.9269C55.2663 37.0628 53.5532 37.7528 51.757 37.9149C49.4586 38.176 47.1333 37.8341 44.998 36.9209ZM37.06 37.6556L40.135 18.3408H45.034L41.959 37.6556H37.06Z" fill="#02277D"/>
</svg>