<svg xmlns="http://www.w3.org/2000/svg" width="120" height="118" viewBox="0 0 120 118" fill="none">
<path d="M112.164 92.7309C112.21 95.4043 110.065 97.5895 107.383 97.636C107.36 97.636 107.36 97.636 107.337 97.636H10.5627C8.13756 97.6127 6.10881 95.8227 5.80566 93.4283H101.6C104.258 93.4283 106.427 91.3594 106.427 88.8022V9.089C106.427 6.53185 104.258 4.46289 101.6 4.46289H103.162C105.844 4.50938 108.013 6.69458 107.989 9.36796L112.164 92.7309Z" fill="#49699C"/>
<path d="M106.428 9.089V88.8022C106.428 91.3594 104.259 93.4283 101.601 93.4283H4.82703C2.16867 93.4283 0 91.3594 0 88.8022V9.089C0 6.53185 2.16867 4.46289 4.82703 4.46289H101.601C104.259 4.46289 106.428 6.53185 106.428 9.089Z" fill="#F1F2F2"/>
<path d="M106.428 9.089V25.9429H0V9.089C0 6.53185 2.16867 4.46289 4.82703 4.46289H8.32488V12.3668C8.3482 14.0406 9.7007 15.3889 11.3797 15.3889H12.7088C14.3878 15.3889 15.7403 14.0406 15.7403 12.3668V4.46289H28.3559V12.3668C28.3792 14.0406 29.7317 15.3889 31.4107 15.3889H32.7399C34.4188 15.3889 35.7713 14.0406 35.7713 12.3668V4.46289H48.3869V12.3668C48.4102 14.0406 49.7627 15.3889 51.4417 15.3889H52.7709C54.4498 15.3889 55.8023 14.0406 55.8023 12.3668V4.46289H68.861V12.3668C68.861 14.0406 70.2135 15.3889 71.8924 15.3889H73.2216C74.9006 15.3889 76.2531 14.0406 76.2531 12.3668V4.46289H87.8893V12.3668C87.8893 14.0406 89.2418 15.3889 90.9207 15.3889H92.2499C93.9289 15.3889 95.2814 14.0406 95.3047 12.3668V4.46289H101.601C104.259 4.46289 106.428 6.53185 106.428 9.089Z" fill="#49699C"/>
<path d="M76.2525 3.02208V12.3673C76.2525 14.0411 74.9 15.3894 73.221 15.3894H71.8918C70.2129 15.3894 68.8604 14.0411 68.8604 12.3673V3.02208C68.8604 1.34831 70.2129 0 71.8918 0H73.221C74.9 0 76.2525 1.34831 76.2525 3.02208Z" fill="#F04930"/>
<path d="M95.3046 3.02208V12.3673C95.2813 14.0411 93.9288 15.3894 92.2498 15.3894H90.9206C89.2417 15.3894 87.8892 14.0411 87.8892 12.3673V3.02208C87.8892 1.34831 89.2417 0 90.9206 0H92.2498C93.9288 0 95.2813 1.34831 95.3046 3.02208Z" fill="#F04930"/>
<path d="M55.8022 3.02208V12.3673C55.8022 14.0411 54.4497 15.3894 52.7707 15.3894H51.4415C49.7625 15.3894 48.41 14.0411 48.3867 12.3673V3.02208C48.41 1.34831 49.7625 0 51.4415 0H52.7707C54.4497 0 55.8022 1.34831 55.8022 3.02208Z" fill="#F04930"/>
<path d="M35.7709 3.02208V12.3673C35.7709 14.0411 34.4184 15.3894 32.7394 15.3894H31.4103C29.7313 15.3894 28.3788 14.0411 28.3555 12.3673V3.02208C28.3788 1.34831 29.7313 0 31.4103 0H32.7394C34.4184 0 35.7709 1.34831 35.7709 3.02208Z" fill="#F04930"/>
<path d="M15.7397 3.02208V12.3673C15.7397 14.0411 14.3872 15.3894 12.7082 15.3894H11.379C9.70004 15.3894 8.34754 14.0411 8.32422 12.3673V3.02208C8.34754 1.34831 9.70004 0 11.379 0H12.7082C14.3872 0 15.7397 1.34831 15.7397 3.02208Z" fill="#F04930"/>
<path d="M22.8994 38.7305H37.6837V53.4457H22.8994V38.7305Z" fill="#F04930"/>
<path d="M52.1641 66.5312H66.9483V81.2465H52.1641V66.5312Z" fill="#F04930"/>
<path d="M97.9167 37.3809H21.7569V51.1662H8.51172V81.9914H83.0392V68.857H97.9167V37.3809ZM95.1184 51.1662H83.0392V40.1705H95.1184V51.1662ZM51.2321 51.1662H39.1296V40.1705H51.2321V51.1662ZM54.0304 40.1705H65.8298V51.1662H54.0304V40.1705ZM51.2321 53.9558V66.0674H39.1296V53.9558H51.2321ZM36.3313 66.0674H24.5552V53.9558H36.3313V66.0674ZM36.3313 68.857V79.2018H24.5552V68.857H36.3313ZM39.1296 68.857H51.2321V79.2018H39.1296V68.857ZM54.0304 68.857H65.8298V79.2018H54.0304V68.857ZM54.0304 66.0674V53.9558H65.8298V66.0674H54.0304ZM68.6281 53.9558H80.2409V66.0674H68.6281V53.9558ZM68.6281 51.1662V40.1705H80.2409V51.1662H68.6281ZM24.5552 40.1705H36.3313V51.1662H24.5552V40.1705ZM21.7569 53.9558V66.0674H11.31V53.9558H21.7569ZM11.31 68.857H21.7569V79.2018H11.31V68.857ZM80.2409 79.2018H68.6281V68.857H80.2409V79.2018ZM83.0392 66.0674V53.9558H95.1184V66.0674H83.0392Z" fill="#5E5E5E"/>
<path d="M94.7453 117.187C108.68 117.187 119.976 105.925 119.976 92.0339C119.976 78.1422 108.68 66.8809 94.7453 66.8809C80.8105 66.8809 69.5142 78.1422 69.5142 92.0339C69.5142 105.925 80.8105 117.187 94.7453 117.187Z" fill="#FFBB26"/>
<path d="M120 92.0346C119.976 105.936 108.667 117.188 94.7218 117.188C84.5081 117.164 75.3204 111.027 71.4028 101.612C85.5808 106.099 100.738 98.2879 105.262 84.1307C106.801 79.3418 106.941 74.2043 105.682 69.3457C114.426 73.5301 120 82.3639 120 92.0346Z" fill="#F2B10C"/>
<path d="M80.1944 85.502L77.5127 84.7116C78.702 80.7364 81.3603 77.3656 84.9515 75.2734L86.3739 77.6679C83.3891 79.4114 81.1971 82.201 80.1944 85.502Z" fill="#F1F2F2"/>
<path d="M107.921 105.726L106.125 103.611C108.527 101.588 110.159 98.7989 110.719 95.707L113.47 96.2185C112.771 99.9379 110.812 103.285 107.921 105.726Z" fill="#F1F2F2"/>
<path d="M103.326 96.6839C103.35 92.6157 99.0356 91.5696 95.6078 90.7327C92.1799 89.8958 90.1511 89.3147 89.8946 87.7571C89.7314 86.99 89.9412 86.1996 90.4543 85.6184C91.2238 84.6885 92.6229 84.2236 94.4418 84.2236C95.8176 84.2236 97.7065 84.6188 98.7558 85.7114C99.4554 86.4088 99.7585 87.3387 99.7352 88.5708L102.977 88.687C103.047 86.5483 102.394 84.828 101.111 83.4797C99.8285 82.1314 97.8697 81.434 96.4239 81.2015V78.3887H93.2059V81.0853C90.9906 81.3178 89.195 82.1779 88.0058 83.5495C86.8631 84.8513 86.3967 86.618 86.7232 88.315C87.3761 92.081 91.3637 93.0341 94.8849 93.8943C98.406 94.7544 100.132 95.2658 100.108 96.6839C100.085 98.1019 99.502 100.217 94.7449 100.31C93.066 100.357 91.7135 99.8919 90.804 99.0086C90.0578 98.2414 89.6148 97.2418 89.5915 96.1725H86.3501C86.3268 98.1019 87.1196 99.9617 88.5188 101.287C89.778 102.496 91.387 103.263 93.1126 103.449V105.541H96.3306V103.425C102.37 102.751 103.303 98.9853 103.326 96.6839Z" fill="#5E5E5E"/>
</svg>