<svg xmlns="http://www.w3.org/2000/svg" width="50" height="64" viewBox="0 0 50 64" fill="none">
  <rect x="2" width="46" height="2" fill="#404040"/>
  <rect x="8" y="6" width="34" height="2" fill="#404040"/>
  <rect y="2" width="2" height="52" fill="#404040"/>
  <rect x="48" y="2" width="2" height="52" fill="#404040"/>
  <rect x="6" y="8" width="2" height="26" fill="#404040"/>
  <rect x="42" y="8" width="2" height="26" fill="#404040"/>
  <rect x="8" y="34" width="34" height="2" fill="#404040"/>
  <rect x="26" y="44" width="16" height="2" fill="#404040"/>
  <rect x="6" y="44" width="4" height="2" fill="#404040"/>
  <path fill-rule="evenodd" clip-rule="evenodd" d="M48 54H2V64H48V54ZM46 56H4V62H46V56Z" fill="#404040"/>
  <rect x="16" y="14" width="2" height="4" fill="#404040"/>
  <rect x="32" y="14" width="2" height="4" fill="#404040"/>
  <rect x="24" y="14" width="2" height="10" fill="#404040"/>
  <rect x="22" y="22" width="2" height="2" fill="#404040"/>
  <rect x="18" y="28" width="2" height="2" fill="#404040"/>
  <rect x="28" y="28" width="2" height="2" fill="#404040"/>
  <rect x="20" y="26" width="8" height="2" fill="#404040"/>
  <rect x="32" y="19" width="2" height="4" fill="url(#paint0_linear_273_23357)"/>
  <defs>
    <linearGradient id="paint0_linear_273_23357" x1="33" y1="19" x2="33" y2="23" gradientUnits="userSpaceOnUse">
      <stop stop-color="#D9E2FD"/>
      <stop offset="1" stop-color="#2D5CF4"/>
    </linearGradient>
  </defs>
</svg>