<svg xmlns="http://www.w3.org/2000/svg" width="49" height="48" viewBox="0 0 49 48" fill="none">
<g clip-path="url(#clip0_339_24159)">
<path d="M45.1373 8.86202L17.4993 36.498C17.3134 36.6846 17.0926 36.8326 16.8495 36.9336C16.6063 37.0346 16.3456 37.0866 16.0823 37.0866C15.819 37.0866 15.5582 37.0346 15.3151 36.9336C15.0719 36.8326 14.8511 36.6846 14.6653 36.498L3.97727 25.8C3.79145 25.6135 3.57062 25.4654 3.32745 25.3644C3.08429 25.2634 2.82357 25.2114 2.56027 25.2114C2.29696 25.2114 2.03624 25.2634 1.79308 25.3644C1.54991 25.4654 1.32908 25.6135 1.14327 25.8C0.956712 25.9858 0.808687 26.2067 0.707684 26.4498C0.606681 26.693 0.554687 26.9537 0.554688 27.217C0.554687 27.4803 0.606681 27.741 0.707684 27.9842C0.808687 28.2274 0.956712 28.4482 1.14327 28.634L11.8353 39.324C12.9632 40.4498 14.4917 41.0821 16.0853 41.0821C17.6789 41.0821 19.2074 40.4498 20.3353 39.324L47.9713 11.694C48.1575 11.5082 48.3053 11.2875 48.4061 11.0446C48.5069 10.8016 48.5588 10.5411 48.5588 10.278C48.5588 10.0149 48.5069 9.75446 48.4061 9.51148C48.3053 9.2685 48.1575 9.0478 47.9713 8.86202C47.7854 8.67546 47.5646 8.52744 47.3215 8.42643C47.0783 8.32543 46.8176 8.27344 46.5543 8.27344C46.291 8.27344 46.0302 8.32543 45.7871 8.42643C45.5439 8.52744 45.3231 8.67546 45.1373 8.86202Z" fill="#2CBF7B"/>
</g>
<defs>
<clipPath id="clip0_339_24159">
<rect width="48" height="48" fill="white" transform="translate(0.5)"/>
</clipPath>
</defs>
</svg>