<svg width="80" height="81" viewBox="0 0 80 81" fill="none" xmlns="http://www.w3.org/2000/svg">
<path d="M40 80.5C62.0914 80.5 80 62.5914 80 40.5C80 18.4086 62.0914 0.5 40 0.5C17.9086 0.5 0 18.4086 0 40.5C0.0239062 62.5816 17.9184 80.4761 40 80.5ZM36.6667 20.5C36.6667 18.6591 38.1591 17.1667 40 17.1667C41.8409 17.1667 43.3333 18.6591 43.3333 20.5V47.1667C43.3333 49.0077 41.8409 50.5 40 50.5C38.1591 50.5 36.6667 49.0077 36.6667 47.1667V20.5ZM40 60.5C41.8409 60.5 43.3333 61.9923 43.3333 63.8333C43.3333 65.6742 41.8409 67.1666 40 67.1666C38.1591 67.1666 36.6667 65.6742 36.6667 63.8333C36.6667 61.9923 38.1591 60.5 40 60.5Z" fill="#FFB155"/>
</svg>
