<svg xmlns="http://www.w3.org/2000/svg" width="45" height="13" viewBox="0 0 45 13" fill="none">
<path d="M30.2313 0.5H26.839C26.6395 0.5 26.4399 0.701678 26.3402 0.903356L24.9434 9.7772C24.9434 9.97888 25.0431 10.0797 25.2427 10.0797H27.0386C27.2381 10.0797 27.3379 9.97888 27.3379 9.7772L27.737 7.25622C27.737 7.05454 27.9365 6.85287 28.2358 6.85287H29.3333C31.6281 6.85287 32.9251 5.74364 33.2244 3.52517C33.4239 2.61762 33.2244 1.81091 32.8253 1.30671C32.2267 0.802519 31.3287 0.5 30.2313 0.5ZM30.6303 3.82769C30.4308 5.03776 29.5328 5.03776 28.6349 5.03776H28.0363L28.4354 2.71846C28.4354 2.61762 28.5351 2.51678 28.7347 2.51678H28.9342C29.5329 2.51678 30.1315 2.51678 30.4308 2.92014C30.6303 3.02098 30.6303 3.3235 30.6303 3.82769Z" fill="#139AD6"/>
<path d="M5.7879 0.5H2.39566C2.19612 0.5 1.99657 0.701678 1.8968 0.903356L0.5 9.7772C0.5 9.97888 0.599773 10.0797 0.799316 10.0797H2.39566C2.5952 10.0797 2.79475 9.87804 2.89452 9.67636L3.29361 7.25622C3.29361 7.05454 3.49315 6.85287 3.79246 6.85287H4.88995C7.1847 6.85287 8.48173 5.74364 8.78104 3.52517C8.98059 2.61762 8.78104 1.81091 8.38196 1.30671C7.78333 0.802519 6.98515 0.5 5.7879 0.5ZM6.18698 3.82769C5.98744 5.03776 5.08949 5.03776 4.19155 5.03776H3.69269L4.09178 2.71846C4.09178 2.61762 4.19155 2.51678 4.39109 2.51678H4.59064C5.18927 2.51678 5.78789 2.51678 6.08721 2.92014C6.18698 3.02098 6.28675 3.3235 6.18698 3.82769Z" fill="#263B80"/>
<path d="M16.0633 3.72707H14.4669C14.3672 3.72707 14.1676 3.82791 14.1676 3.92875L14.0678 4.43294L13.9681 4.23127C13.569 3.72707 12.8706 3.52539 12.0724 3.52539C10.2765 3.52539 8.68018 4.93714 8.38086 6.85308C8.18132 7.86148 8.48063 8.76903 8.97949 9.37406C9.47835 9.9791 10.1768 10.1808 11.0747 10.1808C12.5713 10.1808 13.3694 9.27322 13.3694 9.27322L13.2697 9.77742C13.2697 9.9791 13.3694 10.0799 13.569 10.0799H15.0656C15.2651 10.0799 15.4647 9.87826 15.5644 9.67658L16.4624 4.02959C16.3626 3.92875 16.1631 3.72707 16.0633 3.72707ZM13.7685 6.95392C13.569 7.86147 12.8706 8.56735 11.8729 8.56735C11.374 8.56735 10.9749 8.36567 10.7754 8.16399C10.5758 7.86148 10.4761 7.45812 10.4761 6.95392C10.5758 6.04637 11.374 5.3405 12.272 5.3405C12.7708 5.3405 13.0701 5.54217 13.3694 5.74385C13.6688 6.04637 13.7685 6.55057 13.7685 6.95392Z" fill="#263B80"/>
<path d="M40.4051 3.72707H38.8087C38.709 3.72707 38.5094 3.82791 38.5094 3.92875L38.4096 4.43294L38.3099 4.23127C37.9108 3.72707 37.2124 3.52539 36.4142 3.52539C34.6183 3.52539 33.022 4.93714 32.7227 6.85308C32.5231 7.86148 32.8224 8.76903 33.3213 9.37406C33.8201 9.9791 34.5185 10.1808 35.4165 10.1808C36.9131 10.1808 37.7112 9.27322 37.7112 9.27322L37.6115 9.77742C37.6115 9.9791 37.7112 10.0799 37.9108 10.0799H39.4074C39.6069 10.0799 39.8064 9.87826 39.9062 9.67658L40.8042 4.02959C40.7044 3.92875 40.6046 3.72707 40.4051 3.72707ZM38.1103 6.95392C37.9108 7.86147 37.2124 8.56735 36.2147 8.56735C35.7158 8.56735 35.3167 8.36567 35.1172 8.16399C34.9176 7.86148 34.8179 7.45812 34.8179 6.95392C34.9176 6.04637 35.7158 5.3405 36.6137 5.3405C37.1126 5.3405 37.4119 5.54217 37.7112 5.74385C38.1103 6.04637 38.2101 6.55057 38.1103 6.95392Z" fill="#139AD6"/>
<path d="M24.743 3.72656H23.0468C22.8473 3.72656 22.7475 3.8274 22.6478 3.92824L20.4528 7.35678L19.4551 4.12992C19.3553 3.92824 19.2555 3.8274 18.9562 3.8274H17.3599C17.1603 3.8274 17.0605 4.02908 17.0605 4.23076L18.8564 9.57524L17.1603 11.9954C17.0605 12.1971 17.1603 12.4996 17.3599 12.4996H18.9562C19.1558 12.4996 19.2555 12.3987 19.3553 12.2979L24.8427 4.3316C25.142 4.02908 24.9425 3.72656 24.743 3.72656Z" fill="#263B80"/>
<path d="M42.305 0.803739L40.9082 9.87926C40.9082 10.0809 41.008 10.1818 41.2075 10.1818H42.6043C42.8039 10.1818 43.0034 9.9801 43.1032 9.77842L44.5 0.904576C44.5 0.702898 44.4002 0.60206 44.2007 0.60206H42.6043C42.5045 0.50122 42.4048 0.60206 42.305 0.803739Z" fill="#139AD6"/>
</svg>