<svg xmlns="http://www.w3.org/2000/svg" width="20" height="30" viewBox="0 0 20 30" fill="none">
    <mask id="path-1-inside-1_1165_3299" fill="white">
        <path fill-rule="evenodd" clip-rule="evenodd"
            d="M1.61474 25.6193C3.51698 28.4057 6.42954 30.0039 9.60564 30.0039C13.1691 30.0039 16.4042 28.0077 18.2601 24.663C23.1748 15.8076 16.1265 7.81585 16.0547 7.73621C15.8562 7.51627 15.4964 7.63863 15.4652 7.93786C15.2556 9.94722 14.7967 10.9049 14.4653 11.3488C14.1358 9.0671 12.2444 6.60837 12.0447 6.50359C10.0133 5.44098 9.45434 1.54463 9.33135 0.375834C9.28564 -0.0561362 8.92146 -0.0608831 8.7584 0.0892604C4.03536 4.44114 3.73071 11.3803 3.76909 13.6792C3.12688 12.9077 2.7303 11.3871 2.6155 10.7473C2.55477 10.4101 2.10667 10.3546 1.96953 10.6656C1.80032 11.0494 -2.13636 20.1245 1.61474 25.6193ZM13.0775 28.174C12.2849 29.3348 11.0714 30.0006 9.74813 30.0006C8.26324 30.0006 6.91526 29.1689 6.14194 27.7755C4.09413 24.0862 7.03084 20.7566 7.06081 20.7234C7.14342 20.6317 7.29329 20.6827 7.30636 20.8074C7.39364 21.6445 7.58487 22.0435 7.72299 22.2285C7.86039 21.2779 8.64846 20.2535 8.73167 20.2099C9.57812 19.7671 9.81096 18.1439 9.86227 17.6569C9.88134 17.477 10.033 17.475 10.101 17.5375C12.0689 19.3507 12.1958 22.2416 12.1798 23.1995C12.4474 22.8781 12.6127 22.2446 12.6605 21.978C12.6858 21.8376 12.8725 21.8143 12.9297 21.9439C13.0002 22.1038 14.6404 25.8846 13.0775 28.174Z" />
    </mask>
    <path fill-rule="evenodd" clip-rule="evenodd"
        d="M1.61474 25.6193C3.51698 28.4057 6.42954 30.0039 9.60564 30.0039C13.1691 30.0039 16.4042 28.0077 18.2601 24.663C23.1748 15.8076 16.1265 7.81585 16.0547 7.73621C15.8562 7.51627 15.4964 7.63863 15.4652 7.93786C15.2556 9.94722 14.7967 10.9049 14.4653 11.3488C14.1358 9.0671 12.2444 6.60837 12.0447 6.50359C10.0133 5.44098 9.45434 1.54463 9.33135 0.375834C9.28564 -0.0561362 8.92146 -0.0608831 8.7584 0.0892604C4.03536 4.44114 3.73071 11.3803 3.76909 13.6792C3.12688 12.9077 2.7303 11.3871 2.6155 10.7473C2.55477 10.4101 2.10667 10.3546 1.96953 10.6656C1.80032 11.0494 -2.13636 20.1245 1.61474 25.6193ZM13.0775 28.174C12.2849 29.3348 11.0714 30.0006 9.74813 30.0006C8.26324 30.0006 6.91526 29.1689 6.14194 27.7755C4.09413 24.0862 7.03084 20.7566 7.06081 20.7234C7.14342 20.6317 7.29329 20.6827 7.30636 20.8074C7.39364 21.6445 7.58487 22.0435 7.72299 22.2285C7.86039 21.2779 8.64846 20.2535 8.73167 20.2099C9.57812 19.7671 9.81096 18.1439 9.86227 17.6569C9.88134 17.477 10.033 17.475 10.101 17.5375C12.0689 19.3507 12.1958 22.2416 12.1798 23.1995C12.4474 22.8781 12.6127 22.2446 12.6605 21.978C12.6858 21.8376 12.8725 21.8143 12.9297 21.9439C13.0002 22.1038 14.6404 25.8846 13.0775 28.174Z"
        fill="#FFE000" />
    <path
        d="M1.61474 25.6193L0.788835 26.1831L0.788842 26.1831L1.61474 25.6193ZM18.2601 24.663L17.3857 24.1778L17.3857 24.1779L18.2601 24.663ZM16.0547 7.73621L16.7974 7.06656L16.797 7.06612L16.0547 7.73621ZM15.4652 7.93786L16.4598 8.04163L16.4598 8.04162L15.4652 7.93786ZM14.4653 11.3488L13.4756 11.4917L13.821 13.8834L15.2666 11.947L14.4653 11.3488ZM12.0447 6.50359L12.5092 5.61804L12.5082 5.6175L12.0447 6.50359ZM9.33135 0.375834L10.3259 0.271188L10.3258 0.270596L9.33135 0.375834ZM8.7584 0.0892604L8.08105 -0.646402L8.08078 -0.646152L8.7584 0.0892604ZM3.76909 13.6792L3.00054 14.319L4.81633 16.5002L4.76895 13.6625L3.76909 13.6792ZM2.6155 10.7473L3.59978 10.5707L3.59967 10.5701L2.6155 10.7473ZM1.96953 10.6656L1.05454 10.2621L1.05452 10.2622L1.96953 10.6656ZM9.74813 30.0006V31.0006H9.74819L9.74813 30.0006ZM13.0775 28.174L13.9034 28.7379L13.9034 28.7378L13.0775 28.174ZM6.14194 27.7755L7.01631 27.2903L7.01628 27.2902L6.14194 27.7755ZM7.06081 20.7234L7.80346 21.3931L7.80373 21.3928L7.06081 20.7234ZM7.30636 20.8074L8.30096 20.7037L8.30091 20.7032L7.30636 20.8074ZM7.72299 22.2285L6.92172 22.8268L8.36711 24.7625L8.71271 22.3716L7.72299 22.2285ZM8.73167 20.2099L8.2682 19.3237L8.26739 19.3242L8.73167 20.2099ZM9.86227 17.6569L8.86784 17.5515L8.86778 17.5521L9.86227 17.6569ZM10.101 17.5375L10.7786 16.8021L10.7779 16.8015L10.101 17.5375ZM12.1798 23.1995L11.18 23.1828L11.1328 26.0198L12.9483 23.8393L12.1798 23.1995ZM12.6605 21.978L11.6763 21.8008L11.6762 21.8014L12.6605 21.978ZM12.9297 21.9439L13.8447 21.5405L13.8446 21.5403L12.9297 21.9439ZM9.60564 29.0039C6.78368 29.0039 4.17032 27.5891 2.44063 25.0555L0.788842 26.1831C2.86364 29.2223 6.0754 31.0039 9.60564 31.0039V29.0039ZM17.3857 24.1779C15.6902 27.2334 12.7742 29.0039 9.60564 29.0039V31.0039C13.5641 31.0039 17.1182 28.782 19.1345 25.1482L17.3857 24.1779ZM15.312 8.40586C15.3028 8.39559 16.9939 10.3055 18.0899 13.2568C19.1781 16.1872 19.6609 20.0782 17.3857 24.1778L19.1344 25.1483C21.774 20.3924 21.19 15.8598 19.9648 12.5606C18.7474 9.28225 16.8785 7.15647 16.7974 7.06656L15.312 8.40586ZM16.4598 8.04162C16.4059 8.5584 15.724 8.86224 15.3124 8.40629L16.797 7.06612C15.9883 6.17029 14.5869 6.71886 14.4706 7.83411L16.4598 8.04162ZM15.2666 11.947C15.7437 11.308 16.2394 10.1547 16.4598 8.04163L14.4706 7.8341C14.2718 9.73979 13.8498 10.5017 13.664 10.7505L15.2666 11.947ZM11.5801 7.38913C11.4965 7.34524 11.4426 7.30044 11.4318 7.29155C11.413 7.27606 11.4026 7.26577 11.4025 7.26565C11.402 7.26519 11.4139 7.27703 11.4398 7.30665C11.4902 7.36423 11.5657 7.45703 11.6607 7.58378C11.8495 7.83574 12.0946 8.19372 12.3452 8.61823C12.8575 9.48603 13.338 10.5394 13.4756 11.4917L15.455 11.2058C15.263 9.87646 14.6331 8.55966 14.0674 7.60147C13.7791 7.11299 13.4932 6.69404 13.261 6.38421C13.1454 6.23007 13.0378 6.09576 12.9452 5.98991C12.8996 5.93781 12.8501 5.88386 12.7998 5.83476C12.7773 5.8128 12.6655 5.70004 12.5092 5.61804L11.5801 7.38913ZM8.33684 0.48048C8.4015 1.0949 8.58122 2.4404 9.02174 3.78986C9.44205 5.07739 10.1915 6.66277 11.5812 7.38968L12.5082 5.6175C11.8664 5.2818 11.3208 4.3877 10.923 3.16921C10.5454 2.01264 10.3842 0.825565 10.3259 0.271189L8.33684 0.48048ZM9.43574 0.824923C9.27208 0.975617 9.03723 1.0454 8.79203 0.969178C8.6508 0.925275 8.52519 0.836594 8.43884 0.718757C8.35657 0.606473 8.33994 0.509749 8.33691 0.481072L10.3258 0.270596C10.2706 -0.251499 9.96456 -0.760733 9.38573 -0.940669C8.90625 -1.08972 8.40778 -0.94724 8.08105 -0.646402L9.43574 0.824923ZM4.76895 13.6625C4.75065 12.566 4.81486 10.3533 5.44654 7.90379C6.07883 5.45184 7.26257 2.82732 9.43602 0.824673L8.08078 -0.646152C5.53118 1.70308 4.20108 4.72406 3.50989 7.40437C2.81808 10.0871 2.74916 12.4934 2.76923 13.6959L4.76895 13.6625ZM1.63122 10.924C1.69722 11.2918 1.83786 11.883 2.05012 12.4927C2.25529 13.082 2.56232 13.7926 3.00054 14.319L4.53764 13.0394C4.33365 12.7943 4.12129 12.3589 3.93891 11.8351C3.76363 11.3316 3.64858 10.8427 3.59978 10.5707L1.63122 10.924ZM2.88453 11.0691C2.61206 11.687 1.74037 11.5301 1.63133 10.9246L3.59967 10.5701C3.36918 9.29017 1.60129 9.0222 1.05454 10.2621L2.88453 11.0691ZM2.44064 25.0555C0.793258 22.6423 0.782633 19.3345 1.30644 16.4016C1.82279 13.5105 2.81416 11.2287 2.88455 11.069L1.05452 10.2622C0.955698 10.4863 -0.105881 12.9339 -0.662404 16.05C-1.21147 19.1243 -1.31488 23.1014 0.788835 26.1831L2.44064 25.0555ZM9.74819 31.0006C11.4255 31.0005 12.9382 30.1515 13.9034 28.7379L12.2516 27.6101C11.6316 28.5182 10.7173 29.0006 9.74807 29.0006L9.74819 31.0006ZM5.26757 28.2608C6.20132 29.9433 7.86834 31.0006 9.74813 31.0006V29.0006C8.65813 29.0006 7.62919 28.3946 7.01631 27.2903L5.26757 28.2608ZM6.31816 20.0537C6.25801 20.1204 5.42744 21.069 4.88477 22.5303C4.33433 24.0124 4.06151 26.0879 5.2676 28.2608L7.01628 27.2902C6.17456 25.7737 6.34619 24.3398 6.75965 23.2266C7.18087 22.0923 7.83364 21.3596 7.80346 21.3931L6.31816 20.0537ZM8.30091 20.7032C8.2026 19.7653 7.01215 19.2835 6.31789 20.054L7.80373 21.3928C7.27469 21.9799 6.38397 21.6002 6.3118 20.9116L8.30091 20.7032ZM8.52426 21.6302C8.53179 21.6403 8.37743 21.437 8.30096 20.7037L6.31175 20.9111C6.40985 21.852 6.63795 22.4468 6.92172 22.8268L8.52426 21.6302ZM8.26739 19.3242C8.11821 19.4024 8.01746 19.506 8.00952 19.5138C7.97375 19.5487 7.94213 19.5835 7.91741 19.6117C7.86651 19.6699 7.81227 19.738 7.75814 19.8102C7.64872 19.9561 7.51772 20.1485 7.38654 20.3706C7.13527 20.7962 6.82922 21.4217 6.73328 22.0854L8.71271 22.3716C8.75416 22.0848 8.91084 21.7227 9.10876 21.3875C9.20218 21.2293 9.29238 21.0979 9.35842 21.0098C9.39202 20.965 9.41407 20.9384 9.42273 20.9285C9.42779 20.9227 9.42177 20.9301 9.40675 20.9448C9.39935 20.952 9.38249 20.9681 9.3582 20.9882C9.3419 21.0016 9.28336 21.0497 9.19594 21.0955L8.26739 19.3242ZM8.86778 17.5521C8.84527 17.7657 8.78347 18.214 8.64453 18.6396C8.48538 19.1271 8.31749 19.298 8.2682 19.3237L9.19514 21.096C9.9923 20.679 10.3641 19.8169 10.5458 19.2603C10.7477 18.6418 10.828 18.0351 10.8568 17.7617L8.86778 17.5521ZM10.7779 16.8015C10.4989 16.5449 10.0776 16.4236 9.66647 16.5514C9.15604 16.71 8.90981 17.1555 8.86784 17.5515L10.8567 17.7623C10.847 17.854 10.8121 17.9981 10.7046 18.1447C10.5931 18.2968 10.4355 18.4067 10.2601 18.4612C9.94658 18.5587 9.63508 18.4677 9.42404 18.2736L10.7779 16.8015ZM13.1797 23.2161C13.1886 22.6842 13.1585 21.6252 12.8527 20.4395C12.5475 19.2562 11.9506 17.882 10.7786 16.8021L9.42339 18.273C10.2193 19.0063 10.6698 19.9841 10.9161 20.939C11.1617 21.8915 11.1871 22.7569 11.18 23.1828L13.1797 23.2161ZM11.6762 21.8014C11.6609 21.8867 11.6204 22.0606 11.5582 22.2394C11.5277 22.327 11.4959 22.4044 11.465 22.4666C11.4499 22.4972 11.4367 22.5206 11.4262 22.5376C11.4154 22.5549 11.41 22.5612 11.4114 22.5596L12.9483 23.8393C13.1993 23.5379 13.3548 23.1616 13.447 22.897C13.5462 22.612 13.6123 22.3359 13.6448 22.1547L11.6762 21.8014ZM13.8446 21.5403C13.3773 20.4813 11.8712 20.7184 11.6763 21.8008L13.6447 22.1553C13.5003 22.9567 12.3676 23.1473 12.0148 22.3476L13.8446 21.5403ZM13.9034 28.7378C14.913 27.2589 14.8367 25.4067 14.6005 24.0846C14.3569 22.7207 13.8941 21.6527 13.8447 21.5405L12.0147 22.3474C12.0357 22.3951 12.4283 23.2974 12.6317 24.4362C12.8426 25.6169 12.8049 26.7997 12.2516 27.6102L13.9034 28.7378Z"
        fill="#D96421" mask="url(#path-1-inside-1_1165_3299)" />
</svg>