<svg width="17" height="16" viewBox="0 0 17 16" fill="none" xmlns="http://www.w3.org/2000/svg">
<g clip-path="url(#clip0_399_10158)">
<path d="M8.5 0C6.91775 0 5.37104 0.469192 4.05544 1.34824C2.73985 2.22729 1.71447 3.47672 1.10897 4.93853C0.503466 6.40034 0.34504 8.00887 0.653721 9.56072C0.962403 11.1126 1.72433 12.538 2.84315 13.6569C3.96197 14.7757 5.38743 15.5376 6.93928 15.8463C8.49113 16.155 10.0997 15.9965 11.5615 15.391C13.0233 14.7855 14.2727 13.7602 15.1518 12.4446C16.0308 11.129 16.5 9.58225 16.5 8C16.4977 5.87897 15.6541 3.84547 14.1543 2.34568C12.6545 0.845886 10.621 0.00229405 8.5 0ZM8.5 14.6667C7.18146 14.6667 5.89253 14.2757 4.7962 13.5431C3.69987 12.8106 2.84539 11.7694 2.34081 10.5512C1.83622 9.33305 1.7042 7.99261 1.96144 6.6994C2.21867 5.40619 2.85361 4.21831 3.78596 3.28596C4.71831 2.35361 5.9062 1.71867 7.1994 1.46143C8.49261 1.2042 9.83305 1.33622 11.0512 1.8408C12.2694 2.34539 13.3106 3.19987 14.0431 4.2962C14.7757 5.39253 15.1667 6.68146 15.1667 8C15.1647 9.76752 14.4617 11.4621 13.2119 12.7119C11.9621 13.9617 10.2675 14.6647 8.5 14.6667Z" fill="#01509A"/>
<path d="M8.97767 3.37522C8.59323 3.30518 8.19808 3.32048 7.8202 3.42005C7.44232 3.51962 7.09095 3.70102 6.79094 3.95142C6.49093 4.20183 6.24962 4.5151 6.08408 4.86909C5.91855 5.22307 5.83283 5.60911 5.83301 5.99989C5.83301 6.1767 5.90325 6.34627 6.02827 6.47129C6.15329 6.59632 6.32286 6.66656 6.49967 6.66656C6.67649 6.66656 6.84605 6.59632 6.97108 6.47129C7.0961 6.34627 7.16634 6.1767 7.16634 5.99989C7.16617 5.80374 7.20929 5.60997 7.2926 5.43239C7.37592 5.25482 7.49739 5.09781 7.64835 4.97257C7.79932 4.84733 7.97605 4.75695 8.16596 4.70785C8.35586 4.65876 8.55426 4.65217 8.74701 4.68856C9.01037 4.73968 9.25251 4.86815 9.44251 5.05755C9.6325 5.24695 9.76173 5.48869 9.81367 5.75189C9.86614 6.02816 9.82991 6.31394 9.71018 6.56838C9.59044 6.82282 9.39332 7.03289 9.14701 7.16856C8.73912 7.40487 8.40207 7.74623 8.17096 8.15709C7.93985 8.56795 7.82315 9.03326 7.83301 9.50456V9.99989C7.83301 10.1767 7.90325 10.3463 8.02827 10.4713C8.15329 10.5963 8.32286 10.6666 8.49967 10.6666C8.67649 10.6666 8.84605 10.5963 8.97108 10.4713C9.0961 10.3463 9.16634 10.1767 9.16634 9.99989V9.50456C9.15798 9.27256 9.21088 9.04246 9.31972 8.83742C9.42856 8.63237 9.5895 8.45962 9.78634 8.33656C10.2693 8.07127 10.6583 7.66286 10.8997 7.16749C11.1412 6.67212 11.2232 6.11413 11.1345 5.57024C11.0459 5.02635 10.7909 4.52328 10.4047 4.13022C10.0184 3.73715 9.51992 3.4734 8.97767 3.37522Z" fill="#01509A"/>
<path d="M9.16634 11.9999C9.16634 11.6317 8.86786 11.3333 8.49967 11.3333C8.13148 11.3333 7.83301 11.6317 7.83301 11.9999C7.83301 12.3681 8.13148 12.6666 8.49967 12.6666C8.86786 12.6666 9.16634 12.3681 9.16634 11.9999Z" fill="#01509A"/>
</g>
<defs>
<clipPath id="clip0_399_10158">
<rect width="16" height="16" fill="white" transform="translate(0.5)"/>
</clipPath>
</defs>
</svg>
