<svg xmlns="http://www.w3.org/2000/svg" width="54" height="41" viewBox="0 0 41 29" fill="none">
    <path
        d="M20.5 29C15.5118 28.9991 10.5285 28.7085 5.57664 28.1299C3.34976 27.8455 1.58773 26.1687 1.25839 24.021C0.247202 17.7099 0.247202 11.2857 1.25839 4.97456C1.58773 2.82689 3.34976 1.15011 5.57664 0.86568C15.4896 -0.28856 25.5102 -0.28856 35.4234 0.86568C37.65 1.15011 39.412 2.82689 39.7414 4.97456C40.7529 11.2857 40.7529 17.7099 39.7414 24.021C39.412 26.1687 37.65 27.8455 35.4234 28.1299C30.4713 28.7085 25.4879 28.9991 20.5 29Z"
        fill="url(#paint0_linear_1135_3390)" />
    <g filter="url(#filter0_d_1135_3390)">
        <path d="M16.3242 20.9697V8.03125L26.8737 14.5004L16.3242 20.9697Z" fill="white" />
    </g>
    <defs>
        <filter id="filter0_d_1135_3390" x="12.3242" y="4.03125" width="18.5498" height="20.9385"
            filterUnits="userSpaceOnUse" color-interpolation-filters="sRGB">
            <feFlood flood-opacity="0" result="BackgroundImageFix" />
            <feColorMatrix in="SourceAlpha" type="matrix"
                values="0 0 0 0 0 0 0 0 0 0 0 0 0 0 0 0 0 0 127 0" result="hardAlpha" />
            <feOffset />
            <feGaussianBlur stdDeviation="2" />
            <feComposite in2="hardAlpha" operator="out" />
            <feColorMatrix type="matrix" values="0 0 0 0 0 0 0 0 0 0 0 0 0 0 0 0 0 0 0.2 0" />
            <feBlend mode="normal" in2="BackgroundImageFix" result="effect1_dropShadow_1135_3390" />
            <feBlend mode="normal" in="SourceGraphic" in2="effect1_dropShadow_1135_3390"
                result="shape" />
        </filter>
        <linearGradient id="paint0_linear_1135_3390" x1="0.500001" y1="19.6862" x2="40.572"
            y2="9.59998" gradientUnits="userSpaceOnUse">
            <stop stop-color="#C0C1C3" />
            <stop offset="0.285" stop-color="#C1C2C4" />
            <stop offset="0.595" stop-color="#F3F3F3" />
            <stop offset="1" stop-color="#C5C5C5" />
        </linearGradient>
    </defs>
</svg>